<?xml version="1.0" encoding="utf-8"?>
<!-- Generator: Adobe Illustrator 26.0.1, SVG Export Plug-In . SVG Version: 6.00 Build 0)  -->
<svg version="1.1" id="Layer_1" xmlns="http://www.w3.org/2000/svg" xmlns:xlink="http://www.w3.org/1999/xlink" x="0px" y="0px"
	 viewBox="0 0 258.84 136.06" style="enable-background:new 0 0 258.84 136.06;" xml:space="preserve">
<style type="text/css">
	.st0{fill:#84BD00;}
	.st1{enable-background:new    ;}
</style>
	<g>
	<path class="st0" d="M11.33,0.5C5.35,0.5,0.5,5.35,0.5,11.33c0,0,0,0,0,0v113.74c0.01,5.8,4.7,10.49,10.5,10.5h236.84
		c5.8-0.01,10.49-4.7,10.5-10.5V11c0-5.8-4.7-10.5-10.5-10.5H11.33"/>
</g>
	<g>
	<path d="M11.33,0.5V0C5.07,0,0,5.07,0,11.33c0,0,0,0,0,0v113.74c0,6.08,4.92,11,11,11c0,0,0,0,0,0h236.84c6.08,0,11-4.92,11-11V11
		c0-6.08-4.92-11-11-11H11.33v1h236.51c5.52,0,10,4.48,10,10v114.07c0,5.52-4.48,10-10,10c0,0,0,0,0,0H11c-5.52,0-10-4.48-10-10
		V11.33C0.99,5.64,5.6,1.01,11.29,1c0.01,0,0.03,0,0.04,0V0.5"/>
</g>
	<g class="st1">
	<path d="M19.04,25.36c0.14,0.66,0.44,1.16,0.9,1.49c0.46,0.33,1.12,0.5,1.96,0.5c0.97,0,1.67-0.17,2.1-0.52
		c0.43-0.35,0.65-0.91,0.65-1.7c0-0.62-0.18-1.12-0.53-1.51c-0.35-0.39-0.92-0.71-1.71-0.96l-2.45-0.76
		c-1.14-0.35-2.01-0.9-2.62-1.64c-0.61-0.74-0.91-1.62-0.91-2.63v-0.21c0-1.54,0.49-2.73,1.47-3.58c0.98-0.85,2.37-1.27,4.17-1.27
		c1.94,0,3.38,0.52,4.32,1.55c0.65,0.74,0.97,1.63,0.97,2.68c0,0.25-0.05,0.41-0.15,0.5c-0.1,0.08-0.3,0.13-0.59,0.13h-1.32
		c-0.29,0-0.48-0.04-0.58-0.12c-0.09-0.08-0.15-0.23-0.18-0.46c-0.14-1.26-1.04-1.89-2.7-1.89c-1.69,0-2.54,0.76-2.54,2.29
		c0,0.31,0.04,0.58,0.12,0.81c0.08,0.23,0.21,0.43,0.39,0.61s0.43,0.34,0.73,0.48c0.3,0.15,0.67,0.29,1.12,0.43l2.45,0.76
		c1.17,0.35,2.04,0.91,2.62,1.67s0.87,1.69,0.87,2.78v0.3c0,1.49-0.48,2.64-1.45,3.45c-0.97,0.81-2.34,1.21-4.11,1.21
		c-2.09,0-3.62-0.48-4.59-1.45c-0.38-0.4-0.68-0.85-0.89-1.34c-0.21-0.49-0.31-1.01-0.31-1.55c0-0.25,0.05-0.41,0.15-0.5
		s0.3-0.13,0.59-0.13h1.29c0.28,0,0.47,0.04,0.57,0.12S18.99,25.13,19.04,25.36z"/>
		<path d="M29.72,19.59c0-1.58,0.18-2.8,0.53-3.65c0.45-1.11,1.17-1.95,2.16-2.52c0.99-0.57,2.18-0.85,3.57-0.85
		c0.78,0,1.53,0.1,2.23,0.29s1.31,0.49,1.83,0.89s0.94,0.91,1.25,1.53c0.31,0.62,0.46,1.37,0.46,2.23c0,0.22-0.05,0.36-0.16,0.44
		c-0.11,0.08-0.3,0.12-0.58,0.12h-1.43c-0.28,0-0.47-0.04-0.57-0.12c-0.1-0.08-0.16-0.23-0.17-0.46c-0.06-0.88-0.34-1.51-0.83-1.89
		c-0.49-0.38-1.23-0.58-2.22-0.58c-0.57,0-1.05,0.07-1.45,0.2c-0.4,0.13-0.73,0.36-0.98,0.68s-0.44,0.75-0.57,1.29
		c-0.12,0.54-0.18,1.22-0.18,2.03v3.88c0,1.55,0.26,2.65,0.77,3.28s1.32,0.95,2.41,0.95c1.02,0,1.78-0.26,2.31-0.79
		c0.52-0.52,0.78-1.42,0.78-2.68v-0.44h-1.78c-0.28,0-0.46-0.05-0.54-0.15s-0.13-0.3-0.13-0.59v-1.02c0-0.29,0.04-0.49,0.13-0.59
		c0.08-0.1,0.27-0.15,0.54-0.15h3.9c0.29,0,0.49,0.04,0.59,0.13c0.1,0.08,0.15,0.27,0.15,0.54v2.61c0,0.75-0.12,1.47-0.36,2.13
		c-0.24,0.67-0.6,1.26-1.1,1.77c-0.49,0.51-1.12,0.91-1.87,1.2s-1.64,0.44-2.65,0.44c-1.49,0-2.67-0.27-3.54-0.82
		c-0.87-0.55-1.53-1.32-1.97-2.32c-0.2-0.45-0.34-0.94-0.42-1.49c-0.08-0.55-0.12-1.27-0.12-2.16V19.59z"/>
		<path d="M50.29,12.58c1.37,0,2.52,0.26,3.45,0.8c0.93,0.53,1.62,1.31,2.07,2.34c0.2,0.45,0.34,0.95,0.42,1.5s0.12,1.27,0.12,2.15
		v3.37c0,0.8-0.04,1.49-0.13,2.07c-0.08,0.58-0.22,1.1-0.4,1.58c-0.45,1.11-1.14,1.95-2.07,2.52c-0.93,0.57-2.08,0.85-3.45,0.85
		c-1.37,0-2.52-0.27-3.45-0.8c-0.93-0.53-1.62-1.31-2.07-2.34c-0.2-0.45-0.34-0.95-0.42-1.5c-0.08-0.55-0.12-1.27-0.12-2.15v-3.37
		c0-0.8,0.04-1.49,0.13-2.07s0.22-1.1,0.4-1.58c0.45-1.11,1.13-1.95,2.07-2.52C47.77,12.86,48.92,12.58,50.29,12.58z M50.29,10.43
		l-0.67,0.69c-0.14,0.15-0.25,0.27-0.35,0.36s-0.18,0.15-0.25,0.2c-0.08,0.05-0.15,0.07-0.23,0.08s-0.18,0.01-0.3,0.01h-1.62
		c-0.26,0-0.39-0.08-0.39-0.25c0-0.05,0.02-0.1,0.07-0.16c0.05-0.06,0.14-0.16,0.28-0.3l1.75-1.69c0.14-0.14,0.25-0.25,0.35-0.33
		c0.09-0.08,0.18-0.15,0.25-0.18c0.08-0.04,0.15-0.07,0.23-0.08s0.17-0.02,0.28-0.02h1.2c0.2,0,0.37,0.04,0.5,0.1
		c0.13,0.07,0.33,0.24,0.61,0.52l1.75,1.69c0.14,0.14,0.23,0.24,0.28,0.3s0.07,0.12,0.07,0.16c0,0.17-0.13,0.25-0.39,0.25h-1.62
		c-0.22,0-0.39-0.03-0.51-0.09c-0.12-0.06-0.33-0.25-0.62-0.55L50.29,10.43z M50.29,15.05c-1.14,0-1.95,0.32-2.44,0.97
		s-0.73,1.72-0.73,3.21v3.88c0,1.49,0.24,2.56,0.73,3.21c0.48,0.65,1.3,0.97,2.44,0.97c1.14,0,1.95-0.32,2.43-0.97
		c0.48-0.65,0.73-1.72,0.73-3.21v-3.88c0-1.49-0.24-2.56-0.73-3.21C52.24,15.37,51.43,15.05,50.29,15.05z"/>
		<path d="M62.01,22.96v5.75c0,0.26-0.05,0.44-0.14,0.53c-0.09,0.09-0.29,0.14-0.6,0.14h-1.29c-0.31,0-0.51-0.05-0.6-0.14
		c-0.09-0.09-0.14-0.27-0.14-0.53V13.62c0-0.26,0.05-0.44,0.14-0.53c0.09-0.09,0.29-0.14,0.6-0.14h4.94c1.83,0,3.17,0.38,4.02,1.14
		c0.85,0.76,1.27,1.98,1.27,3.66v0.44c0,2.34-0.93,3.82-2.79,4.43l3.44,6.09c0.06,0.12,0.09,0.22,0.09,0.3c0,0.25-0.2,0.37-0.6,0.37
		h-1.73c-0.26,0-0.45-0.04-0.57-0.13c-0.12-0.08-0.25-0.27-0.4-0.54l-3.12-5.75H62.01z M62.01,20.56h2.89
		c0.89,0,1.52-0.18,1.89-0.54c0.37-0.36,0.55-0.98,0.55-1.86v-0.32c0-0.92-0.18-1.57-0.54-1.94c-0.36-0.37-1-0.55-1.9-0.55h-2.89
		V20.56z"/>
		<path d="M89.87,28.71c0,0.28-0.05,0.46-0.15,0.54c-0.1,0.08-0.3,0.13-0.59,0.13h-1.34c-0.29,0-0.49-0.04-0.59-0.13
		c-0.1-0.08-0.15-0.27-0.15-0.54v-6.69h-6.23v6.69c0,0.28-0.05,0.46-0.15,0.54c-0.1,0.08-0.3,0.13-0.59,0.13h-1.34
		c-0.29,0-0.49-0.04-0.59-0.13c-0.1-0.08-0.15-0.27-0.15-0.54V13.62c0-0.28,0.05-0.46,0.15-0.54c0.1-0.08,0.3-0.13,0.59-0.13h1.34
		c0.29,0,0.49,0.04,0.59,0.13c0.1,0.08,0.15,0.26,0.15,0.54v5.91h6.23v-5.91c0-0.28,0.05-0.46,0.15-0.54
		c0.1-0.08,0.3-0.13,0.59-0.13h1.34c0.29,0,0.49,0.04,0.59,0.13c0.1,0.08,0.15,0.26,0.15,0.54V28.71z"/>
		<path d="M94.07,12.95c0.26,0,0.44,0.03,0.54,0.1s0.2,0.21,0.31,0.43l3.35,6.81l3.3-6.81c0.11-0.21,0.21-0.36,0.31-0.43
		c0.1-0.07,0.28-0.1,0.54-0.1h1.59c0.38,0,0.58,0.12,0.58,0.37c0,0.11-0.02,0.21-0.07,0.3l-4.94,9.53v5.56
		c0,0.28-0.05,0.46-0.15,0.54c-0.1,0.08-0.3,0.13-0.59,0.13h-1.34c-0.29,0-0.49-0.04-0.59-0.13c-0.1-0.08-0.15-0.27-0.15-0.54v-5.56
		l-4.94-9.53c-0.05-0.09-0.07-0.19-0.07-0.3c0-0.25,0.19-0.37,0.58-0.37H94.07z"/>
		<path d="M116.11,28.64c0,0.29-0.04,0.49-0.13,0.59c-0.08,0.1-0.27,0.15-0.54,0.15h-8.22c-0.29,0-0.49-0.04-0.59-0.13
		c-0.1-0.08-0.15-0.27-0.15-0.54V13.62c0-0.28,0.05-0.46,0.15-0.54c0.1-0.08,0.3-0.13,0.59-0.13h1.34c0.29,0,0.49,0.04,0.59,0.13
		c0.1,0.08,0.15,0.26,0.15,0.54v13.27h6.14c0.28,0,0.46,0.05,0.54,0.15c0.08,0.1,0.13,0.3,0.13,0.59V28.64z"/>
		<path d="M128.46,28.64c0,0.29-0.04,0.49-0.13,0.59c-0.08,0.1-0.27,0.15-0.54,0.15h-8.7c-0.29,0-0.49-0.04-0.59-0.13
		c-0.1-0.08-0.15-0.27-0.15-0.54V13.62c0-0.28,0.05-0.46,0.15-0.54c0.1-0.08,0.3-0.13,0.59-0.13h8.61c0.28,0,0.46,0.05,0.54,0.15
		c0.08,0.1,0.13,0.3,0.13,0.59v1.02c0,0.29-0.04,0.49-0.13,0.59c-0.08,0.1-0.27,0.15-0.54,0.15h-6.53v4.25h5.93
		c0.28,0,0.46,0.05,0.54,0.15c0.08,0.1,0.13,0.3,0.13,0.59v1.02c0,0.29-0.04,0.49-0.13,0.59c-0.08,0.1-0.27,0.15-0.54,0.15h-5.93
		v4.71h6.62c0.28,0,0.46,0.05,0.54,0.15c0.08,0.1,0.13,0.3,0.13,0.59V28.64z"/>
		<path d="M134.11,18.28v10.43c0,0.28-0.05,0.46-0.15,0.54c-0.1,0.08-0.3,0.13-0.59,0.13h-1.27c-0.29,0-0.49-0.04-0.59-0.13
		c-0.1-0.08-0.15-0.27-0.15-0.54V13.62c0-0.28,0.05-0.46,0.15-0.54c0.1-0.08,0.3-0.13,0.59-0.13h1.34c0.29,0,0.5,0.03,0.63,0.1
		s0.27,0.25,0.43,0.54l5.52,10.46V13.62c0-0.28,0.05-0.46,0.15-0.54c0.1-0.08,0.3-0.13,0.59-0.13h1.27c0.29,0,0.49,0.04,0.59,0.13
		c0.1,0.08,0.15,0.26,0.15,0.54v15.09c0,0.28-0.05,0.46-0.15,0.54c-0.1,0.08-0.3,0.13-0.59,0.13h-1.34c-0.29,0-0.5-0.03-0.63-0.1
		s-0.27-0.25-0.43-0.54L134.11,18.28z"/>
		<path d="M151.54,12.95c0.75,0,1.43,0.08,2.02,0.25c0.59,0.17,1.12,0.4,1.57,0.68c0.45,0.29,0.83,0.62,1.14,0.99
		s0.55,0.78,0.74,1.21c0.17,0.42,0.3,0.88,0.4,1.4c0.1,0.52,0.15,1.21,0.15,2.09v3.3c0,0.86-0.05,1.55-0.15,2.05
		c-0.1,0.51-0.23,0.96-0.4,1.36c-0.17,0.42-0.4,0.81-0.69,1.19c-0.29,0.38-0.65,0.71-1.06,0.99c-0.42,0.29-0.9,0.51-1.47,0.67
		c-0.56,0.16-1.2,0.24-1.9,0.24h-5.05c-0.29,0-0.49-0.04-0.59-0.13c-0.1-0.08-0.15-0.27-0.15-0.54V13.62c0-0.28,0.05-0.46,0.15-0.54
		c0.1-0.08,0.3-0.13,0.59-0.13H151.54z M148.91,26.89h2.58c0.52,0,0.98-0.07,1.37-0.2c0.39-0.13,0.72-0.35,0.99-0.66
		c0.27-0.31,0.47-0.72,0.61-1.23s0.21-1.16,0.21-1.93v-3.42c0-0.75-0.07-1.39-0.22-1.9s-0.35-0.93-0.62-1.24
		c-0.27-0.31-0.6-0.53-0.99-0.67s-0.84-0.21-1.35-0.21h-2.58V26.89z"/>
		<path d="M163.29,28.71c0,0.28-0.05,0.46-0.15,0.54c-0.1,0.08-0.3,0.13-0.59,0.13h-1.34c-0.29,0-0.49-0.04-0.59-0.13
		c-0.1-0.08-0.15-0.27-0.15-0.54V13.62c0-0.28,0.05-0.46,0.15-0.54c0.1-0.08,0.3-0.13,0.59-0.13h1.34c0.29,0,0.49,0.04,0.59,0.13
		c0.1,0.08,0.15,0.26,0.15,0.54V28.71z"/>
		<path d="M172.06,12.95c0.75,0,1.43,0.08,2.02,0.25c0.59,0.17,1.12,0.4,1.57,0.68c0.45,0.29,0.83,0.62,1.14,0.99
		s0.55,0.78,0.74,1.21c0.17,0.42,0.3,0.88,0.4,1.4c0.1,0.52,0.15,1.21,0.15,2.09v3.3c0,0.86-0.05,1.55-0.15,2.05
		c-0.1,0.51-0.23,0.96-0.4,1.36c-0.17,0.42-0.4,0.81-0.69,1.19c-0.29,0.38-0.65,0.71-1.06,0.99c-0.42,0.29-0.9,0.51-1.47,0.67
		c-0.56,0.16-1.2,0.24-1.9,0.24h-5.05c-0.29,0-0.49-0.04-0.59-0.13c-0.1-0.08-0.15-0.27-0.15-0.54V13.62c0-0.28,0.05-0.46,0.15-0.54
		c0.1-0.08,0.3-0.13,0.59-0.13H172.06z M169.43,26.89h2.58c0.52,0,0.98-0.07,1.37-0.2c0.39-0.13,0.72-0.35,0.99-0.66
		c0.27-0.31,0.47-0.72,0.61-1.23s0.21-1.16,0.21-1.93v-3.42c0-0.75-0.07-1.39-0.22-1.9s-0.35-0.93-0.62-1.24
		c-0.27-0.31-0.6-0.53-0.99-0.67s-0.84-0.21-1.35-0.21h-2.58V26.89z"/>
		<path d="M186.34,29.38c-0.29,0-0.49-0.04-0.59-0.13c-0.1-0.08-0.15-0.27-0.15-0.54V13.62c0-0.28,0.05-0.46,0.15-0.54
		c0.1-0.08,0.3-0.13,0.59-0.13h5.31c1.65,0,2.89,0.35,3.74,1.05c0.85,0.7,1.27,1.74,1.27,3.1v0.3c0,0.85-0.21,1.57-0.63,2.17
		c-0.42,0.6-0.96,0.98-1.6,1.15c0.72,0.18,1.32,0.6,1.78,1.26c0.46,0.65,0.69,1.44,0.69,2.34v0.37c0,1.71-0.49,2.92-1.47,3.62
		s-2.39,1.06-4.24,1.06H186.34z M188.37,19.62h3.09c0.78,0,1.37-0.15,1.74-0.46c0.38-0.31,0.57-0.81,0.57-1.5v-0.3
		c0-0.69-0.2-1.2-0.6-1.52c-0.4-0.32-1.03-0.48-1.89-0.48h-2.91V19.62z M188.37,26.98h2.91c0.85,0,1.5-0.18,1.97-0.53
		c0.47-0.35,0.7-0.95,0.7-1.78v-0.46c0-0.71-0.2-1.27-0.6-1.67c-0.4-0.41-0.98-0.61-1.73-0.61h-3.25V26.98z"/>
		<path d="M200.35,12.95c0.28,0,0.47,0.04,0.58,0.12c0.11,0.08,0.19,0.26,0.25,0.55l2.19,11.33l2.4-11.01
		c0.03-0.17,0.1-0.28,0.22-0.33c0.12-0.05,0.29-0.08,0.52-0.08h1.38c0.23,0,0.4,0.03,0.52,0.08c0.12,0.05,0.19,0.17,0.22,0.33
		l2.17,11.12l2.45-11.45c0.06-0.29,0.15-0.48,0.25-0.55s0.3-0.12,0.58-0.12h1.5c0.32,0,0.49,0.14,0.49,0.42
		c0,0.12-0.02,0.28-0.07,0.46l-3.42,15.14c-0.03,0.17-0.11,0.28-0.23,0.33c-0.12,0.05-0.29,0.08-0.51,0.08h-1.78
		c-0.23,0-0.4-0.03-0.52-0.08c-0.12-0.05-0.19-0.17-0.22-0.33l-2.26-10.85l-2.24,10.85c-0.03,0.17-0.1,0.28-0.22,0.33
		c-0.12,0.05-0.29,0.08-0.52,0.08h-1.73c-0.22,0-0.38-0.03-0.51-0.08c-0.12-0.05-0.2-0.17-0.23-0.33l-3.23-15.14
		c-0.05-0.18-0.07-0.34-0.07-0.46c0-0.28,0.16-0.42,0.48-0.42H200.35z"/>
		<path d="M218.93,12.95c0.26,0,0.44,0.03,0.54,0.1c0.1,0.07,0.2,0.21,0.31,0.43l3.35,6.81l3.3-6.81c0.11-0.21,0.21-0.36,0.31-0.43
		c0.1-0.07,0.28-0.1,0.54-0.1h1.59c0.38,0,0.58,0.12,0.58,0.37c0,0.11-0.02,0.21-0.07,0.3l-4.94,9.53v5.56
		c0,0.28-0.05,0.46-0.15,0.54c-0.1,0.08-0.3,0.13-0.59,0.13h-1.34c-0.29,0-0.49-0.04-0.59-0.13c-0.1-0.08-0.15-0.27-0.15-0.54v-5.56
		l-4.94-9.53c-0.05-0.09-0.07-0.19-0.07-0.3c0-0.25,0.19-0.37,0.58-0.37H218.93z"/>
		<path d="M236.79,12.95c0.75,0,1.43,0.08,2.02,0.25c0.59,0.17,1.12,0.4,1.57,0.68c0.45,0.29,0.83,0.62,1.14,0.99
		s0.55,0.78,0.74,1.21c0.17,0.42,0.3,0.88,0.4,1.4c0.1,0.52,0.15,1.21,0.15,2.09v3.3c0,0.86-0.05,1.55-0.15,2.05
		c-0.1,0.51-0.23,0.96-0.4,1.36c-0.17,0.42-0.4,0.81-0.69,1.19c-0.29,0.38-0.65,0.71-1.06,0.99c-0.42,0.29-0.9,0.51-1.47,0.67
		c-0.56,0.16-1.2,0.24-1.9,0.24h-5.05c-0.29,0-0.49-0.04-0.59-0.13c-0.1-0.08-0.15-0.27-0.15-0.54V13.62c0-0.28,0.05-0.46,0.15-0.54
		c0.1-0.08,0.3-0.13,0.59-0.13H236.79z M234.16,26.89h2.58c0.52,0,0.98-0.07,1.37-0.2c0.39-0.13,0.72-0.35,0.99-0.66
		c0.27-0.31,0.47-0.72,0.61-1.23s0.21-1.16,0.21-1.93v-3.42c0-0.75-0.07-1.39-0.22-1.9s-0.35-0.93-0.62-1.24
		c-0.27-0.31-0.6-0.53-0.99-0.67s-0.84-0.21-1.35-0.21h-2.58V26.89z"/>
</g>
	<g class="st1">
	<path d="M19.08,45.85v6.72c0,0.28-0.05,0.46-0.15,0.54c-0.1,0.08-0.3,0.13-0.59,0.13H17c-0.29,0-0.49-0.04-0.59-0.13
		c-0.1-0.08-0.15-0.27-0.15-0.54V37.48c0-0.28,0.05-0.46,0.15-0.54c0.1-0.08,0.3-0.13,0.59-0.13h8.56c0.28,0,0.46,0.05,0.54,0.15
		c0.08,0.1,0.13,0.3,0.13,0.59v1.02c0,0.29-0.04,0.49-0.13,0.59c-0.08,0.1-0.27,0.15-0.54,0.15h-6.49v4.06h5.89
		c0.28,0,0.46,0.05,0.54,0.15c0.08,0.1,0.13,0.3,0.13,0.59v1.02c0,0.29-0.04,0.49-0.13,0.59c-0.08,0.1-0.27,0.15-0.54,0.15H19.08z"
	/>
		<path d="M34.45,36.44c1.37,0,2.52,0.26,3.45,0.8c0.93,0.53,1.62,1.31,2.07,2.34c0.2,0.45,0.34,0.95,0.42,1.5s0.12,1.27,0.12,2.15
		v3.37c0,0.8-0.04,1.49-0.13,2.07c-0.08,0.58-0.22,1.1-0.4,1.58c-0.45,1.11-1.14,1.95-2.07,2.52c-0.93,0.57-2.08,0.85-3.45,0.85
		c-1.37,0-2.52-0.27-3.45-0.8c-0.93-0.53-1.62-1.31-2.07-2.34c-0.2-0.45-0.34-0.95-0.42-1.5c-0.08-0.55-0.12-1.27-0.12-2.15v-3.37
		c0-0.8,0.04-1.49,0.13-2.07s0.22-1.1,0.4-1.58c0.45-1.11,1.13-1.95,2.07-2.52C31.93,36.72,33.08,36.44,34.45,36.44z M34.45,38.91
		c-1.14,0-1.95,0.32-2.44,0.97s-0.73,1.72-0.73,3.21v3.88c0,1.49,0.24,2.56,0.73,3.21c0.48,0.65,1.3,0.97,2.44,0.97
		c1.14,0,1.95-0.32,2.43-0.97c0.48-0.65,0.73-1.72,0.73-3.21v-3.88c0-1.49-0.24-2.56-0.73-3.21C36.4,39.23,35.59,38.91,34.45,38.91z
		"/>
		<path d="M49.04,36.44c1.37,0,2.52,0.26,3.45,0.8c0.93,0.53,1.62,1.31,2.07,2.34c0.2,0.45,0.34,0.95,0.42,1.5s0.12,1.27,0.12,2.15
		v3.37c0,0.8-0.04,1.49-0.13,2.07c-0.08,0.58-0.22,1.1-0.4,1.58c-0.45,1.11-1.14,1.95-2.07,2.52c-0.93,0.57-2.08,0.85-3.45,0.85
		c-1.37,0-2.52-0.27-3.45-0.8c-0.93-0.53-1.62-1.31-2.07-2.34c-0.2-0.45-0.34-0.95-0.42-1.5c-0.08-0.55-0.12-1.27-0.12-2.15v-3.37
		c0-0.8,0.04-1.49,0.13-2.07s0.22-1.1,0.4-1.58c0.45-1.11,1.13-1.95,2.07-2.52C46.52,36.72,47.67,36.44,49.04,36.44z M49.04,38.91
		c-1.14,0-1.95,0.32-2.44,0.97s-0.73,1.72-0.73,3.21v3.88c0,1.49,0.24,2.56,0.73,3.21c0.48,0.65,1.3,0.97,2.44,0.97
		c1.14,0,1.95-0.32,2.43-0.97c0.48-0.65,0.73-1.72,0.73-3.21v-3.88c0-1.49-0.24-2.56-0.73-3.21C50.99,39.23,50.17,38.91,49.04,38.91
		z"/>
		<path d="M63.44,36.81c0.75,0,1.43,0.08,2.02,0.25c0.59,0.17,1.12,0.4,1.57,0.68c0.45,0.29,0.83,0.62,1.14,0.99s0.55,0.78,0.74,1.21
		c0.17,0.42,0.3,0.88,0.4,1.4s0.15,1.21,0.15,2.09v3.3c0,0.86-0.05,1.55-0.15,2.05s-0.23,0.96-0.4,1.36
		c-0.17,0.42-0.4,0.81-0.69,1.19c-0.29,0.38-0.65,0.71-1.06,0.99c-0.42,0.29-0.9,0.51-1.47,0.67c-0.56,0.16-1.2,0.24-1.9,0.24h-5.05
		c-0.29,0-0.49-0.04-0.59-0.13c-0.1-0.08-0.15-0.27-0.15-0.54V37.48c0-0.28,0.05-0.46,0.15-0.54c0.1-0.08,0.3-0.13,0.59-0.13H63.44z
		 M60.81,50.75h2.58c0.52,0,0.98-0.07,1.37-0.2c0.39-0.13,0.72-0.35,0.99-0.66c0.27-0.31,0.47-0.72,0.61-1.23
		c0.14-0.52,0.21-1.16,0.21-1.93v-3.42c0-0.75-0.07-1.39-0.22-1.9c-0.15-0.52-0.35-0.93-0.62-1.24c-0.27-0.31-0.6-0.53-0.99-0.67
		c-0.39-0.14-0.84-0.21-1.35-0.21h-2.58V50.75z"/>
		<path d="M88.85,52.57c0,0.28-0.05,0.46-0.15,0.54c-0.1,0.08-0.3,0.13-0.59,0.13h-1.34c-0.29,0-0.49-0.04-0.59-0.13
		c-0.1-0.08-0.15-0.27-0.15-0.54v-6.69H79.8v6.69c0,0.28-0.05,0.46-0.15,0.54c-0.1,0.08-0.3,0.13-0.59,0.13h-1.34
		c-0.29,0-0.49-0.04-0.59-0.13c-0.1-0.08-0.15-0.27-0.15-0.54V37.48c0-0.28,0.05-0.46,0.15-0.54c0.1-0.08,0.3-0.13,0.59-0.13h1.34
		c0.29,0,0.49,0.04,0.59,0.13c0.1,0.08,0.15,0.26,0.15,0.54v5.91h6.23v-5.91c0-0.28,0.05-0.46,0.15-0.54
		c0.1-0.08,0.3-0.13,0.59-0.13h1.34c0.29,0,0.49,0.04,0.59,0.13c0.1,0.08,0.15,0.26,0.15,0.54V52.57z"/>
		<path d="M93.05,36.81c0.26,0,0.44,0.03,0.54,0.1s0.2,0.21,0.31,0.43l3.35,6.81l3.3-6.81c0.11-0.21,0.21-0.36,0.31-0.43
		c0.1-0.07,0.28-0.1,0.54-0.1H103c0.38,0,0.58,0.12,0.58,0.37c0,0.11-0.02,0.21-0.07,0.3l-4.94,9.53v5.56
		c0,0.28-0.05,0.46-0.15,0.54c-0.1,0.08-0.3,0.13-0.59,0.13h-1.34c-0.29,0-0.49-0.04-0.59-0.13c-0.1-0.08-0.15-0.27-0.15-0.54v-5.56
		l-4.94-9.53c-0.05-0.09-0.07-0.19-0.07-0.3c0-0.25,0.19-0.37,0.58-0.37H93.05z"/>
</g>
	<g class="st1">
	<path d="M104.47,43.45c0-1.58,0.18-2.8,0.53-3.65c0.45-1.11,1.17-1.95,2.16-2.52c0.99-0.57,2.18-0.85,3.57-0.85
		c0.78,0,1.53,0.1,2.23,0.29s1.31,0.49,1.83,0.89s0.94,0.91,1.25,1.53c0.31,0.62,0.46,1.37,0.46,2.23c0,0.22-0.05,0.36-0.16,0.44
		c-0.11,0.08-0.3,0.12-0.58,0.12h-1.43c-0.28,0-0.47-0.04-0.57-0.12c-0.1-0.08-0.16-0.23-0.17-0.46c-0.06-0.88-0.34-1.51-0.83-1.89
		c-0.49-0.38-1.23-0.58-2.22-0.58c-0.57,0-1.05,0.07-1.45,0.2c-0.4,0.13-0.73,0.36-0.98,0.68s-0.44,0.75-0.57,1.29
		c-0.12,0.54-0.18,1.22-0.18,2.03v3.88c0,1.55,0.26,2.65,0.77,3.28s1.32,0.95,2.41,0.95c1.02,0,1.78-0.26,2.31-0.79
		c0.52-0.52,0.78-1.42,0.78-2.68v-0.44h-1.78c-0.28,0-0.46-0.05-0.54-0.15s-0.13-0.3-0.13-0.59v-1.02c0-0.29,0.04-0.49,0.13-0.59
		c0.08-0.1,0.27-0.15,0.54-0.15h3.9c0.29,0,0.49,0.04,0.59,0.13c0.1,0.08,0.15,0.27,0.15,0.54v2.61c0,0.75-0.12,1.47-0.36,2.13
		c-0.24,0.67-0.6,1.26-1.1,1.77c-0.49,0.51-1.12,0.91-1.87,1.2s-1.64,0.44-2.65,0.44c-1.49,0-2.67-0.27-3.54-0.82
		c-0.87-0.55-1.53-1.32-1.97-2.32c-0.2-0.45-0.34-0.94-0.42-1.49c-0.08-0.55-0.12-1.27-0.12-2.16V43.45z"/>
		<path d="M122.21,52.57c0,0.28-0.05,0.46-0.15,0.54c-0.1,0.08-0.3,0.13-0.59,0.13h-1.34c-0.29,0-0.49-0.04-0.59-0.13
		c-0.1-0.08-0.15-0.27-0.15-0.54V37.48c0-0.28,0.05-0.46,0.15-0.54c0.1-0.08,0.3-0.13,0.59-0.13h1.34c0.29,0,0.49,0.04,0.59,0.13
		c0.1,0.08,0.15,0.26,0.15,0.54V52.57z"/>
		<path d="M135.65,52.5c0,0.29-0.04,0.49-0.13,0.59c-0.08,0.1-0.27,0.15-0.54,0.15h-8.7c-0.29,0-0.49-0.04-0.59-0.13
		c-0.1-0.08-0.15-0.27-0.15-0.54V37.48c0-0.28,0.05-0.46,0.15-0.54c0.1-0.08,0.3-0.13,0.59-0.13h8.61c0.28,0,0.46,0.05,0.54,0.15
		c0.08,0.1,0.13,0.3,0.13,0.59v1.02c0,0.29-0.04,0.49-0.13,0.59c-0.08,0.1-0.27,0.15-0.54,0.15h-6.53v4.25h5.93
		c0.28,0,0.46,0.05,0.54,0.15c0.08,0.1,0.13,0.3,0.13,0.59v1.02c0,0.29-0.04,0.49-0.13,0.59c-0.08,0.1-0.27,0.15-0.54,0.15h-5.93
		v4.71h6.62c0.28,0,0.46,0.05,0.54,0.15c0.08,0.1,0.13,0.3,0.13,0.59V52.5z"/>
		<path d="M141.3,42.14v10.43c0,0.28-0.05,0.46-0.15,0.54c-0.1,0.08-0.3,0.13-0.59,0.13h-1.27c-0.29,0-0.49-0.04-0.59-0.13
		c-0.1-0.08-0.15-0.27-0.15-0.54V37.48c0-0.28,0.05-0.46,0.15-0.54c0.1-0.08,0.3-0.13,0.59-0.13h1.34c0.29,0,0.5,0.03,0.63,0.1
		s0.27,0.25,0.43,0.54l5.52,10.46V37.48c0-0.28,0.05-0.46,0.15-0.54c0.1-0.08,0.3-0.13,0.59-0.13h1.27c0.29,0,0.49,0.04,0.59,0.13
		c0.1,0.08,0.15,0.26,0.15,0.54v15.09c0,0.28-0.05,0.46-0.15,0.54c-0.1,0.08-0.3,0.13-0.59,0.13h-1.34c-0.29,0-0.5-0.03-0.63-0.1
		c-0.13-0.07-0.27-0.25-0.43-0.54L141.3,42.14z"/>
		<path d="M163.39,52.5c0,0.29-0.04,0.49-0.13,0.59c-0.08,0.1-0.27,0.15-0.54,0.15h-8.7c-0.29,0-0.49-0.04-0.59-0.13
		c-0.1-0.08-0.15-0.27-0.15-0.54V37.48c0-0.28,0.05-0.46,0.15-0.54c0.1-0.08,0.3-0.13,0.59-0.13h8.61c0.28,0,0.46,0.05,0.54,0.15
		c0.08,0.1,0.13,0.3,0.13,0.59v1.02c0,0.29-0.04,0.49-0.13,0.59c-0.08,0.1-0.27,0.15-0.54,0.15h-6.53v4.25h5.93
		c0.28,0,0.46,0.05,0.54,0.15c0.08,0.1,0.13,0.3,0.13,0.59v1.02c0,0.29-0.04,0.49-0.13,0.59c-0.08,0.1-0.27,0.15-0.54,0.15h-5.93
		v4.71h6.62c0.28,0,0.46,0.05,0.54,0.15c0.08,0.1,0.13,0.3,0.13,0.59V52.5z"/>
		<path d="M173.68,46.82v5.75c0,0.26-0.05,0.44-0.14,0.53c-0.09,0.09-0.29,0.14-0.6,0.14h-1.29c-0.31,0-0.51-0.05-0.6-0.14
		c-0.09-0.09-0.14-0.27-0.14-0.53V37.48c0-0.26,0.05-0.44,0.14-0.53c0.09-0.09,0.29-0.14,0.6-0.14h4.94c1.83,0,3.17,0.38,4.02,1.14
		c0.85,0.76,1.27,1.98,1.27,3.66v0.44c0,2.34-0.93,3.82-2.79,4.43l3.44,6.09c0.06,0.12,0.09,0.22,0.09,0.3c0,0.25-0.2,0.37-0.6,0.37
		h-1.73c-0.26,0-0.45-0.04-0.57-0.13c-0.12-0.08-0.25-0.27-0.4-0.54l-3.12-5.75H173.68z M173.68,44.42h2.89
		c0.89,0,1.52-0.18,1.89-0.54c0.37-0.36,0.55-0.98,0.55-1.86V41.7c0-0.92-0.18-1.57-0.54-1.94c-0.36-0.37-1-0.55-1.9-0.55h-2.89
		V44.42z"/>
		<path d="M197.55,52.57c0.03,0.12,0.05,0.21,0.05,0.25c0,0.28-0.17,0.42-0.51,0.42h-1.62c-0.29,0-0.48-0.04-0.57-0.13
		c-0.08-0.08-0.17-0.27-0.27-0.54l-1.06-3.25h-6.05l-1.04,3.28c-0.09,0.28-0.18,0.45-0.27,0.53c-0.08,0.08-0.27,0.12-0.57,0.12
		h-1.52c-0.34,0-0.51-0.14-0.51-0.42c0-0.05,0.01-0.13,0.05-0.25l5.19-15.35c0.06-0.18,0.15-0.3,0.25-0.35
		c0.11-0.05,0.27-0.07,0.49-0.07h2.08c0.21,0,0.38,0.02,0.48,0.07c0.11,0.05,0.19,0.16,0.25,0.35L197.55,52.57z M188.29,46.92h4.5
		l-2.26-7.02L188.29,46.92z"/>
</g>
	<g class="st1">
	<path d="M201.37,39.3h-4.04c-0.28,0-0.46-0.05-0.54-0.15c-0.08-0.1-0.13-0.3-0.13-0.59v-1.02c0-0.29,0.04-0.49,0.13-0.59
		c0.08-0.1,0.27-0.15,0.54-0.15h10.89c0.28,0,0.46,0.05,0.54,0.15c0.08,0.1,0.13,0.3,0.13,0.59v1.02c0,0.29-0.04,0.49-0.13,0.59
		c-0.08,0.1-0.26,0.15-0.54,0.15h-4.04v13.27c0,0.28-0.05,0.46-0.15,0.54c-0.1,0.08-0.3,0.13-0.59,0.13h-1.34
		c-0.29,0-0.49-0.04-0.59-0.13c-0.1-0.08-0.15-0.27-0.15-0.54V39.3z"/>
		<path d="M213.83,52.57c0,0.28-0.05,0.46-0.15,0.54c-0.1,0.08-0.3,0.13-0.59,0.13h-1.34c-0.29,0-0.49-0.04-0.59-0.13
		c-0.1-0.08-0.15-0.27-0.15-0.54V37.48c0-0.28,0.05-0.46,0.15-0.54c0.1-0.08,0.3-0.13,0.59-0.13h1.34c0.29,0,0.49,0.04,0.59,0.13
		c0.1,0.08,0.15,0.26,0.15,0.54V52.57z"/>
		<path d="M219.9,42.14v10.43c0,0.28-0.05,0.46-0.15,0.54c-0.1,0.08-0.3,0.13-0.59,0.13h-1.27c-0.29,0-0.49-0.04-0.59-0.13
		c-0.1-0.08-0.15-0.27-0.15-0.54V37.48c0-0.28,0.05-0.46,0.15-0.54c0.1-0.08,0.3-0.13,0.59-0.13h1.34c0.29,0,0.5,0.03,0.63,0.1
		s0.27,0.25,0.43,0.54l5.52,10.46V37.48c0-0.28,0.05-0.46,0.15-0.54c0.1-0.08,0.3-0.13,0.59-0.13h1.27c0.29,0,0.49,0.04,0.59,0.13
		c0.1,0.08,0.15,0.26,0.15,0.54v15.09c0,0.28-0.05,0.46-0.15,0.54c-0.1,0.08-0.3,0.13-0.59,0.13h-1.34c-0.29,0-0.5-0.03-0.63-0.1
		s-0.27-0.25-0.43-0.54L219.9,42.14z"/>
		<path d="M231.46,43.45c0-1.58,0.18-2.8,0.53-3.65c0.45-1.11,1.17-1.95,2.16-2.52s2.18-0.85,3.57-0.85c0.79,0,1.53,0.1,2.23,0.29
		s1.31,0.49,1.83,0.89c0.52,0.4,0.94,0.91,1.25,1.53c0.31,0.62,0.46,1.37,0.46,2.23c0,0.22-0.05,0.36-0.16,0.44
		c-0.11,0.08-0.3,0.12-0.58,0.12h-1.43c-0.28,0-0.47-0.04-0.57-0.12c-0.1-0.08-0.16-0.23-0.17-0.46c-0.06-0.88-0.34-1.51-0.83-1.89
		s-1.23-0.58-2.22-0.58c-0.57,0-1.05,0.07-1.45,0.2s-0.73,0.36-0.98,0.68s-0.44,0.75-0.57,1.29c-0.12,0.54-0.18,1.22-0.18,2.03v3.88
		c0,1.55,0.26,2.65,0.77,3.28s1.32,0.95,2.41,0.95c1.02,0,1.79-0.26,2.31-0.79c0.52-0.52,0.78-1.42,0.78-2.68v-0.44h-1.78
		c-0.28,0-0.46-0.05-0.54-0.15c-0.08-0.1-0.13-0.3-0.13-0.59v-1.02c0-0.29,0.04-0.49,0.13-0.59c0.08-0.1,0.27-0.15,0.54-0.15h3.9
		c0.29,0,0.49,0.04,0.59,0.13c0.1,0.08,0.15,0.27,0.15,0.54v2.61c0,0.75-0.12,1.47-0.36,2.13c-0.24,0.67-0.6,1.26-1.1,1.77
		c-0.49,0.51-1.12,0.91-1.87,1.2s-1.64,0.44-2.65,0.44c-1.49,0-2.67-0.27-3.54-0.82c-0.87-0.55-1.53-1.32-1.97-2.32
		c-0.2-0.45-0.34-0.94-0.42-1.49c-0.08-0.55-0.12-1.27-0.12-2.16V43.45z"/>
</g>
	<g>
	<polyline points="257.85,66.53 1,66.53 1,65.06 257.85,65.06 257.85,66.53 	"/>
</g>
	<g>
	<polyline points="0.5,66.53 0.37,66.53 0.37,65.06 0.5,65.06 0.5,66.53 	"/>
</g>
	<g>
	<path d="M258.22,66.53h-0.38v-1.47h0.38V66.53 M1,66.53H0.5v-1.47H1V66.53"/>
</g>
	<g class="st1">
	<path d="M28.28,95.38c0,0.26-0.05,0.44-0.14,0.52c-0.1,0.08-0.28,0.12-0.56,0.12H26.3c-0.28,0-0.47-0.04-0.56-0.12
		c-0.1-0.08-0.14-0.25-0.14-0.52V80.99c0-0.26,0.05-0.44,0.14-0.52c0.1-0.08,0.28-0.12,0.56-0.12h1.28c0.28,0,0.47,0.04,0.56,0.12
		c0.1,0.08,0.14,0.25,0.14,0.52V95.38z"/>
		<path d="M32.77,80.09c0.54,0,0.98,0.14,1.3,0.43c0.32,0.29,0.48,0.68,0.48,1.18v0.53c0,0.29-0.06,0.6-0.18,0.93
		c-0.12,0.33-0.33,0.8-0.64,1.4l-0.99,1.87c-0.07,0.15-0.14,0.26-0.21,0.35s-0.14,0.15-0.21,0.2s-0.16,0.07-0.25,0.09
		c-0.1,0.01-0.21,0.02-0.34,0.02h-0.81c-0.26,0-0.4-0.09-0.4-0.26c0-0.06,0.01-0.12,0.04-0.2c0.03-0.07,0.06-0.15,0.09-0.22
		l1.3-2.82c-0.29-0.09-0.53-0.27-0.7-0.54c-0.18-0.27-0.26-0.61-0.26-1V81.7c0-0.5,0.16-0.89,0.48-1.18
		C31.79,80.23,32.22,80.09,32.77,80.09z"/>
		<path d="M38.22,80.36c0.26,0,0.45,0.04,0.55,0.11s0.18,0.25,0.24,0.53l2.09,10.8l2.29-10.49c0.03-0.16,0.1-0.27,0.21-0.32
		c0.11-0.05,0.27-0.08,0.5-0.08h1.32c0.22,0,0.39,0.03,0.5,0.08c0.11,0.05,0.18,0.16,0.21,0.32l2.07,10.6l2.33-10.91
		c0.06-0.28,0.14-0.45,0.24-0.53c0.1-0.07,0.29-0.11,0.55-0.11h1.43c0.31,0,0.46,0.13,0.46,0.4c0,0.12-0.02,0.26-0.07,0.44
		l-3.26,14.43c-0.03,0.16-0.1,0.27-0.22,0.32c-0.12,0.05-0.28,0.08-0.48,0.08h-1.69c-0.22,0-0.38-0.03-0.49-0.08
		c-0.11-0.05-0.18-0.16-0.21-0.32l-2.16-10.34l-2.13,10.34c-0.03,0.16-0.1,0.27-0.21,0.32c-0.11,0.05-0.28,0.08-0.5,0.08h-1.65
		c-0.21,0-0.37-0.03-0.48-0.08c-0.12-0.05-0.19-0.16-0.22-0.32l-3.08-14.43c-0.04-0.18-0.07-0.32-0.07-0.44
		c0-0.26,0.15-0.4,0.46-0.4H38.22z"/>
</g>
	<g class="st1">
	<path d="M59.1,86.69c0-1.51,0.17-2.67,0.51-3.48c0.43-1.06,1.11-1.86,2.06-2.4c0.95-0.54,2.08-0.81,3.4-0.81
		c0.75,0,1.46,0.09,2.12,0.27c0.67,0.18,1.25,0.47,1.75,0.85c0.5,0.38,0.89,0.87,1.19,1.46c0.29,0.59,0.44,1.3,0.44,2.12
		c0,0.21-0.05,0.34-0.15,0.42c-0.1,0.07-0.29,0.11-0.55,0.11h-1.36c-0.26,0-0.44-0.04-0.54-0.11c-0.1-0.07-0.15-0.22-0.17-0.44
		c-0.06-0.84-0.32-1.44-0.79-1.8c-0.47-0.37-1.17-0.55-2.11-0.55c-0.54,0-1,0.06-1.39,0.19c-0.38,0.12-0.69,0.34-0.94,0.65
		c-0.24,0.31-0.42,0.72-0.54,1.23c-0.12,0.51-0.18,1.16-0.18,1.94v3.7c0,1.48,0.25,2.52,0.74,3.12c0.49,0.6,1.26,0.9,2.3,0.9
		c0.97,0,1.7-0.25,2.2-0.75c0.5-0.5,0.75-1.35,0.75-2.55v-0.42h-1.69c-0.26,0-0.44-0.05-0.52-0.14c-0.08-0.09-0.12-0.28-0.12-0.56
		v-0.97c0-0.28,0.04-0.47,0.12-0.56c0.08-0.09,0.25-0.14,0.52-0.14h3.72c0.28,0,0.47,0.04,0.56,0.12c0.1,0.08,0.14,0.25,0.14,0.52
		v2.49c0,0.72-0.11,1.4-0.34,2.04c-0.23,0.64-0.58,1.2-1.04,1.68c-0.47,0.48-1.06,0.87-1.78,1.14c-0.72,0.28-1.56,0.42-2.53,0.42
		c-1.42,0-2.55-0.26-3.38-0.78c-0.83-0.52-1.46-1.26-1.88-2.21c-0.19-0.43-0.32-0.9-0.4-1.42s-0.11-1.21-0.11-2.06V86.69z"/>
		<path d="M73.4,80.36c0.25,0,0.42,0.03,0.52,0.1c0.1,0.07,0.19,0.2,0.3,0.41l3.19,6.49l3.15-6.49c0.1-0.21,0.2-0.34,0.3-0.41
		c0.1-0.07,0.27-0.1,0.52-0.1h1.52c0.37,0,0.55,0.12,0.55,0.35c0,0.1-0.02,0.2-0.07,0.29l-4.71,9.09v5.3c0,0.26-0.05,0.44-0.14,0.52
		c-0.1,0.08-0.28,0.12-0.56,0.12h-1.28c-0.28,0-0.47-0.04-0.56-0.12c-0.1-0.08-0.14-0.25-0.14-0.52v-5.3l-4.71-9.09
		c-0.04-0.09-0.07-0.18-0.07-0.29c0-0.24,0.18-0.35,0.55-0.35H73.4z"/>
</g>
	<g class="st1">
	<path d="M96.98,95.38c0,0.26-0.05,0.44-0.14,0.52c-0.1,0.08-0.28,0.12-0.56,0.12H95c-0.28,0-0.47-0.04-0.56-0.12
		c-0.1-0.08-0.14-0.25-0.14-0.52V89h-5.94v6.38c0,0.26-0.05,0.44-0.14,0.52c-0.1,0.08-0.28,0.12-0.56,0.12h-1.28
		c-0.28,0-0.47-0.04-0.56-0.12c-0.1-0.08-0.14-0.25-0.14-0.52V80.99c0-0.26,0.05-0.44,0.14-0.52c0.1-0.08,0.28-0.12,0.56-0.12h1.28
		c0.28,0,0.47,0.04,0.56,0.12c0.1,0.08,0.14,0.25,0.14,0.52v5.63h5.94v-5.63c0-0.26,0.05-0.44,0.14-0.52
		c0.1-0.08,0.28-0.12,0.56-0.12h1.28c0.28,0,0.47,0.04,0.56,0.12c0.1,0.08,0.14,0.25,0.14,0.52V95.38z"/>
		<path d="M105.52,80c1.31,0,2.4,0.25,3.29,0.76c0.89,0.51,1.54,1.25,1.97,2.23c0.19,0.43,0.32,0.9,0.4,1.43
		c0.07,0.53,0.11,1.21,0.11,2.05v3.21c0,0.76-0.04,1.42-0.12,1.97c-0.08,0.55-0.21,1.05-0.39,1.51c-0.43,1.06-1.08,1.86-1.97,2.4
		c-0.89,0.54-1.98,0.81-3.29,0.81c-1.31,0-2.4-0.25-3.29-0.76c-0.89-0.51-1.54-1.25-1.97-2.23c-0.19-0.43-0.32-0.9-0.4-1.43
		c-0.07-0.53-0.11-1.21-0.11-2.05v-3.21c0-0.76,0.04-1.42,0.12-1.97c0.08-0.55,0.21-1.05,0.38-1.51c0.43-1.06,1.08-1.86,1.97-2.4
		C103.12,80.28,104.21,80,105.52,80z M105.52,82.36c-1.09,0-1.86,0.31-2.32,0.92c-0.46,0.62-0.69,1.64-0.69,3.06v3.7
		c0,1.42,0.23,2.44,0.69,3.06s1.24,0.92,2.32,0.92c1.08,0,1.86-0.31,2.32-0.92s0.69-1.64,0.69-3.06v-3.7c0-1.42-0.23-2.44-0.69-3.06
		C107.38,82.67,106.6,82.36,105.52,82.36z"/>
		<path d="M123.69,95.32c0,0.28-0.04,0.47-0.12,0.56c-0.08,0.09-0.25,0.14-0.52,0.14h-8.29c-0.28,0-0.47-0.04-0.56-0.12
		c-0.1-0.08-0.14-0.25-0.14-0.52V80.99c0-0.26,0.05-0.44,0.14-0.52c0.1-0.08,0.28-0.12,0.56-0.12h8.21c0.26,0,0.44,0.05,0.52,0.14
		c0.08,0.1,0.12,0.28,0.12,0.56v0.97c0,0.28-0.04,0.47-0.12,0.56c-0.08,0.1-0.25,0.14-0.52,0.14h-6.23v4.05h5.65
		c0.26,0,0.44,0.05,0.52,0.14s0.12,0.28,0.12,0.56v0.97c0,0.28-0.04,0.47-0.12,0.56s-0.25,0.14-0.52,0.14h-5.65v4.49h6.31
		c0.26,0,0.44,0.05,0.52,0.14c0.08,0.1,0.12,0.28,0.12,0.56V95.32z"/>
		<path d="M131.65,80.36c0.72,0,1.36,0.08,1.93,0.24c0.56,0.16,1.06,0.38,1.5,0.65c0.43,0.27,0.8,0.59,1.09,0.95
		c0.29,0.36,0.53,0.75,0.7,1.16c0.16,0.4,0.29,0.84,0.38,1.33c0.09,0.49,0.14,1.16,0.14,1.99v3.15c0,0.82-0.05,1.47-0.14,1.96
		c-0.1,0.48-0.22,0.92-0.38,1.3c-0.16,0.4-0.38,0.77-0.66,1.13c-0.28,0.36-0.62,0.67-1.01,0.95c-0.4,0.27-0.86,0.48-1.4,0.64
		c-0.54,0.15-1.14,0.23-1.82,0.23h-4.82c-0.28,0-0.47-0.04-0.56-0.12c-0.1-0.08-0.14-0.25-0.14-0.52V80.99
		c0-0.26,0.05-0.44,0.14-0.52c0.1-0.08,0.28-0.12,0.56-0.12H131.65z M129.15,93.64h2.46c0.5,0,0.94-0.06,1.31-0.19
		c0.37-0.12,0.69-0.33,0.95-0.63c0.26-0.29,0.45-0.68,0.58-1.18c0.13-0.49,0.2-1.1,0.2-1.84v-3.26c0-0.72-0.07-1.32-0.21-1.82
		c-0.14-0.49-0.34-0.88-0.59-1.18c-0.26-0.29-0.57-0.51-0.95-0.64s-0.8-0.2-1.29-0.2h-2.46V93.64z"/>
		<path d="M145.36,80.36c0.72,0,1.36,0.08,1.92,0.24s1.06,0.38,1.5,0.65c0.43,0.27,0.8,0.59,1.09,0.95s0.53,0.75,0.7,1.16
		c0.16,0.4,0.29,0.84,0.38,1.33s0.14,1.16,0.14,1.99v3.15c0,0.82-0.05,1.47-0.14,1.96s-0.22,0.92-0.38,1.3
		c-0.16,0.4-0.38,0.77-0.66,1.13c-0.28,0.36-0.62,0.67-1.01,0.95c-0.4,0.27-0.86,0.48-1.4,0.64c-0.54,0.15-1.14,0.23-1.81,0.23
		h-4.82c-0.28,0-0.47-0.04-0.56-0.12c-0.1-0.08-0.14-0.25-0.14-0.52V80.99c0-0.26,0.05-0.44,0.14-0.52
		c0.09-0.08,0.28-0.12,0.56-0.12H145.36z M142.85,93.64h2.46c0.5,0,0.93-0.06,1.31-0.19c0.37-0.12,0.69-0.33,0.95-0.63
		c0.26-0.29,0.45-0.68,0.58-1.18c0.13-0.49,0.2-1.1,0.2-1.84v-3.26c0-0.72-0.07-1.32-0.21-1.82c-0.14-0.49-0.34-0.88-0.59-1.18
		c-0.26-0.29-0.57-0.51-0.95-0.64s-0.8-0.2-1.29-0.2h-2.46V93.64z"/>
		<path d="M156.56,95.38c0,0.26-0.05,0.44-0.14,0.52c-0.1,0.08-0.28,0.12-0.56,0.12h-1.28c-0.28,0-0.47-0.04-0.56-0.12
		c-0.1-0.08-0.14-0.25-0.14-0.52V80.99c0-0.26,0.05-0.44,0.14-0.52c0.1-0.08,0.28-0.12,0.56-0.12h1.28c0.28,0,0.47,0.04,0.56,0.12
		c0.09,0.08,0.14,0.25,0.14,0.52V95.38z"/>
		<path d="M161.04,80.09c0.54,0,0.98,0.14,1.3,0.43s0.48,0.68,0.48,1.18v0.53c0,0.29-0.06,0.6-0.18,0.93
		c-0.12,0.33-0.33,0.8-0.64,1.4l-0.99,1.87c-0.07,0.15-0.14,0.26-0.21,0.35c-0.07,0.09-0.14,0.15-0.21,0.2s-0.16,0.07-0.25,0.09
		s-0.21,0.02-0.34,0.02h-0.81c-0.26,0-0.4-0.09-0.4-0.26c0-0.06,0.01-0.12,0.04-0.2s0.06-0.15,0.09-0.22l1.3-2.82
		c-0.29-0.09-0.53-0.27-0.7-0.54c-0.18-0.27-0.26-0.61-0.26-1V81.7c0-0.5,0.16-0.89,0.48-1.18
		C160.07,80.23,160.5,80.09,161.04,80.09z"/>
</g>
	<g class="st1">
	<path d="M167.79,85.44v9.94c0,0.26-0.05,0.44-0.14,0.52c-0.1,0.08-0.28,0.12-0.56,0.12h-1.21c-0.28,0-0.47-0.04-0.56-0.12
		c-0.1-0.08-0.14-0.25-0.14-0.52V80.99c0-0.26,0.05-0.44,0.14-0.52c0.09-0.08,0.28-0.12,0.56-0.12h1.28c0.28,0,0.48,0.03,0.6,0.1
		c0.12,0.07,0.26,0.24,0.41,0.52l5.26,9.97v-9.94c0-0.26,0.05-0.44,0.14-0.52c0.09-0.08,0.28-0.12,0.56-0.12h1.21
		c0.28,0,0.47,0.04,0.56,0.12c0.09,0.08,0.14,0.25,0.14,0.52v14.39c0,0.26-0.05,0.44-0.14,0.52c-0.1,0.08-0.28,0.12-0.56,0.12h-1.28
		c-0.28,0-0.48-0.03-0.61-0.1c-0.12-0.07-0.26-0.24-0.41-0.52L167.79,85.44z"/>
		<path d="M186.29,88.98v6.4c0,0.26-0.05,0.44-0.14,0.52c-0.1,0.08-0.28,0.12-0.56,0.12h-1.28c-0.28,0-0.47-0.04-0.56-0.12
		c-0.1-0.08-0.14-0.25-0.14-0.52V80.99c0-0.26,0.05-0.44,0.14-0.52c0.09-0.08,0.28-0.12,0.56-0.12h8.16c0.26,0,0.44,0.05,0.52,0.14
		c0.08,0.1,0.12,0.28,0.12,0.56v0.97c0,0.28-0.04,0.47-0.12,0.56c-0.08,0.1-0.25,0.14-0.52,0.14h-6.18v3.87h5.61
		c0.26,0,0.44,0.05,0.52,0.14c0.08,0.1,0.12,0.28,0.12,0.56v0.97c0,0.28-0.04,0.47-0.12,0.56c-0.08,0.09-0.25,0.14-0.52,0.14H186.29
		z"/>
		<path d="M206.47,90.56c0,1.92-0.46,3.37-1.39,4.34c-0.92,0.98-2.27,1.46-4.05,1.46h-0.18c-1.77,0-3.12-0.49-4.05-1.46
		c-0.92-0.97-1.39-2.42-1.39-4.34v-9.57c0-0.25,0.04-0.42,0.13-0.51s0.28-0.13,0.57-0.13h1.28c0.29,0,0.48,0.04,0.57,0.13
		s0.13,0.26,0.13,0.51v9.55c0,2.26,0.9,3.39,2.71,3.39h0.26c1.8,0,2.71-1.13,2.71-3.39v-9.55c0-0.25,0.04-0.42,0.13-0.51
		s0.28-0.13,0.57-0.13h1.28c0.29,0,0.48,0.04,0.57,0.13c0.09,0.09,0.13,0.26,0.13,0.51V90.56z"/>
</g>
	<g class="st1">
	<path d="M221.07,95.38c0.03,0.12,0.04,0.2,0.04,0.24c0,0.26-0.16,0.4-0.48,0.4h-1.54c-0.28,0-0.46-0.04-0.54-0.12
		c-0.08-0.08-0.17-0.25-0.25-0.52l-1.01-3.1h-5.76l-0.99,3.12c-0.09,0.26-0.17,0.43-0.25,0.51c-0.08,0.07-0.26,0.11-0.54,0.11h-1.45
		c-0.32,0-0.48-0.13-0.48-0.4c0-0.04,0.01-0.12,0.04-0.24l4.95-14.63c0.06-0.18,0.14-0.29,0.24-0.33c0.1-0.04,0.26-0.07,0.46-0.07
		h1.98c0.21,0,0.36,0.02,0.46,0.07s0.18,0.15,0.24,0.33L221.07,95.38z M212.24,89.99h4.29l-2.16-6.69L212.24,89.99z"/>
		<path d="M225.53,85.44v9.94c0,0.26-0.05,0.44-0.14,0.52c-0.1,0.08-0.28,0.12-0.56,0.12h-1.21c-0.28,0-0.47-0.04-0.56-0.12
		c-0.1-0.08-0.14-0.25-0.14-0.52V80.99c0-0.26,0.05-0.44,0.14-0.52c0.1-0.08,0.28-0.12,0.56-0.12h1.28c0.28,0,0.48,0.03,0.61,0.1
		c0.12,0.07,0.26,0.24,0.41,0.52l5.26,9.97v-9.94c0-0.26,0.05-0.44,0.14-0.52c0.1-0.08,0.28-0.12,0.56-0.12h1.21
		c0.28,0,0.46,0.04,0.56,0.12c0.1,0.08,0.14,0.25,0.14,0.52v14.39c0,0.26-0.05,0.44-0.14,0.52c-0.1,0.08-0.28,0.12-0.56,0.12h-1.28
		c-0.28,0-0.48-0.03-0.6-0.1c-0.12-0.07-0.26-0.24-0.41-0.52L225.53,85.44z"/>
</g>
	<g class="st1">
	<path d="M29.08,119.37c0.03,0.12,0.04,0.2,0.04,0.24c0,0.26-0.16,0.4-0.48,0.4H27.1c-0.28,0-0.46-0.04-0.54-0.12
		c-0.08-0.08-0.17-0.25-0.25-0.52l-1.01-3.1h-5.76l-0.99,3.12c-0.09,0.26-0.17,0.43-0.25,0.51c-0.08,0.07-0.26,0.11-0.54,0.11h-1.45
		c-0.32,0-0.48-0.13-0.48-0.4c0-0.04,0.01-0.12,0.04-0.24l4.95-14.63c0.06-0.18,0.14-0.29,0.24-0.33c0.1-0.04,0.26-0.07,0.46-0.07
		h1.98c0.21,0,0.36,0.02,0.46,0.07s0.18,0.15,0.24,0.33L29.08,119.37z M20.25,113.98h4.29l-2.16-6.69L20.25,113.98z"/>
		<path d="M29.38,104.35c0.26,0,0.45,0.04,0.55,0.11s0.18,0.25,0.24,0.53l2.09,10.8l2.29-10.49c0.03-0.16,0.1-0.27,0.21-0.32
		c0.11-0.05,0.27-0.08,0.5-0.08h1.32c0.22,0,0.39,0.03,0.5,0.08c0.11,0.05,0.18,0.16,0.21,0.32l2.07,10.6l2.33-10.91
		c0.06-0.28,0.14-0.45,0.24-0.53c0.1-0.07,0.29-0.11,0.55-0.11h1.43c0.31,0,0.46,0.13,0.46,0.4c0,0.12-0.02,0.26-0.07,0.44
		l-3.26,14.43c-0.03,0.16-0.1,0.27-0.22,0.32c-0.12,0.05-0.28,0.08-0.48,0.08h-1.69c-0.22,0-0.38-0.03-0.49-0.08
		c-0.11-0.05-0.18-0.16-0.21-0.32l-2.16-10.34l-2.13,10.34c-0.03,0.16-0.1,0.27-0.21,0.32c-0.11,0.05-0.28,0.08-0.5,0.08H31.3
		c-0.21,0-0.37-0.03-0.48-0.08c-0.12-0.05-0.19-0.16-0.22-0.32l-3.08-14.43c-0.04-0.18-0.07-0.32-0.07-0.44
		c0-0.26,0.15-0.4,0.46-0.4H29.38z"/>
</g>
	<g class="st1">
	<path d="M58.17,119.37c0.03,0.12,0.04,0.2,0.04,0.24c0,0.26-0.16,0.4-0.48,0.4h-1.54c-0.28,0-0.46-0.04-0.54-0.12
		c-0.08-0.08-0.17-0.25-0.25-0.52l-1.01-3.1h-5.76l-0.99,3.12c-0.09,0.26-0.17,0.43-0.25,0.51c-0.08,0.07-0.26,0.11-0.54,0.11h-1.45
		c-0.32,0-0.48-0.13-0.48-0.4c0-0.04,0.01-0.12,0.04-0.24l4.95-14.63c0.06-0.18,0.14-0.29,0.24-0.33c0.1-0.04,0.26-0.07,0.46-0.07
		h1.98c0.21,0,0.36,0.02,0.46,0.07s0.18,0.15,0.24,0.33L58.17,119.37z M49.34,113.98h4.29l-2.16-6.69L49.34,113.98z"/>
		<path d="M62.7,119.37c0,0.26-0.05,0.44-0.14,0.52c-0.1,0.08-0.28,0.12-0.56,0.12h-1.28c-0.28,0-0.47-0.04-0.56-0.12
		c-0.1-0.08-0.14-0.25-0.14-0.52v-14.39c0-0.26,0.05-0.44,0.14-0.52c0.1-0.08,0.28-0.12,0.56-0.12h1.28c0.28,0,0.47,0.04,0.56,0.12
		c0.1,0.08,0.14,0.25,0.14,0.52V119.37z"/>
		<path d="M69.21,106.72h-3.85c-0.26,0-0.44-0.05-0.52-0.14c-0.08-0.1-0.12-0.28-0.12-0.56v-0.97c0-0.28,0.04-0.47,0.12-0.56
		c0.08-0.09,0.25-0.14,0.52-0.14h10.38c0.26,0,0.44,0.05,0.52,0.14c0.08,0.1,0.12,0.28,0.12,0.56v0.97c0,0.28-0.04,0.47-0.12,0.56
		s-0.25,0.14-0.52,0.14h-3.85v12.65c0,0.26-0.05,0.44-0.14,0.52c-0.1,0.08-0.28,0.12-0.56,0.12h-1.28c-0.28,0-0.47-0.04-0.56-0.12
		c-0.1-0.08-0.14-0.25-0.14-0.52V106.72z"/>
		<path d="M81.09,119.37c0,0.26-0.05,0.44-0.14,0.52c-0.1,0.08-0.28,0.12-0.56,0.12h-1.28c-0.28,0-0.47-0.04-0.56-0.12
		c-0.1-0.08-0.14-0.25-0.14-0.52v-14.39c0-0.26,0.05-0.44,0.14-0.52c0.1-0.08,0.28-0.12,0.56-0.12h1.28c0.28,0,0.47,0.04,0.56,0.12
		c0.1,0.08,0.14,0.25,0.14,0.52V119.37z"/>
		<path d="M86.88,109.43v9.94c0,0.26-0.05,0.44-0.14,0.52c-0.1,0.08-0.28,0.12-0.56,0.12h-1.21c-0.28,0-0.47-0.04-0.56-0.12
		c-0.1-0.08-0.14-0.25-0.14-0.52v-14.39c0-0.26,0.05-0.44,0.14-0.52c0.1-0.08,0.28-0.12,0.56-0.12h1.28c0.28,0,0.48,0.03,0.6,0.1
		c0.12,0.07,0.26,0.24,0.41,0.52l5.26,9.97v-9.94c0-0.26,0.05-0.44,0.14-0.52c0.1-0.08,0.28-0.12,0.56-0.12h1.21
		c0.28,0,0.47,0.04,0.56,0.12c0.1,0.08,0.14,0.25,0.14,0.52v14.39c0,0.26-0.05,0.44-0.14,0.52c-0.1,0.08-0.28,0.12-0.56,0.12h-1.28
		c-0.28,0-0.48-0.03-0.6-0.1c-0.12-0.07-0.26-0.24-0.41-0.52L86.88,109.43z"/>
		<path d="M97.9,110.68c0-1.51,0.17-2.67,0.51-3.48c0.43-1.06,1.11-1.86,2.06-2.4c0.95-0.54,2.08-0.81,3.4-0.81
		c0.75,0,1.46,0.09,2.12,0.27c0.67,0.18,1.25,0.47,1.75,0.85c0.5,0.38,0.89,0.87,1.19,1.46c0.29,0.59,0.44,1.3,0.44,2.12
		c0,0.21-0.05,0.34-0.15,0.42c-0.1,0.07-0.29,0.11-0.55,0.11h-1.36c-0.26,0-0.44-0.04-0.54-0.11c-0.1-0.07-0.15-0.22-0.17-0.44
		c-0.06-0.84-0.32-1.44-0.79-1.8c-0.47-0.37-1.17-0.55-2.11-0.55c-0.54,0-1,0.06-1.39,0.19c-0.38,0.12-0.69,0.34-0.94,0.65
		c-0.24,0.31-0.42,0.72-0.54,1.23c-0.12,0.51-0.18,1.16-0.18,1.94v3.7c0,1.48,0.25,2.52,0.74,3.12c0.49,0.6,1.26,0.9,2.3,0.9
		c0.97,0,1.7-0.25,2.2-0.75c0.5-0.5,0.75-1.35,0.75-2.55v-0.42h-1.69c-0.26,0-0.44-0.05-0.52-0.14c-0.08-0.09-0.12-0.28-0.12-0.56
		v-0.97c0-0.28,0.04-0.47,0.12-0.56c0.08-0.09,0.25-0.14,0.52-0.14h3.72c0.28,0,0.47,0.04,0.56,0.12c0.1,0.08,0.14,0.25,0.14,0.52
		v2.49c0,0.72-0.11,1.4-0.34,2.04c-0.23,0.64-0.58,1.2-1.04,1.68c-0.47,0.48-1.06,0.87-1.78,1.14c-0.72,0.28-1.56,0.42-2.53,0.42
		c-1.42,0-2.55-0.26-3.38-0.78c-0.83-0.52-1.46-1.26-1.88-2.21c-0.19-0.43-0.32-0.9-0.4-1.42s-0.11-1.21-0.11-2.06V110.68z"/>
		<path d="M119.17,114.2v5.17c0,0.26-0.05,0.44-0.14,0.52c-0.1,0.08-0.28,0.12-0.56,0.12h-1.23c-0.28,0-0.47-0.04-0.56-0.12
		c-0.1-0.08-0.14-0.25-0.14-0.52v-14.39c0-0.26,0.05-0.44,0.14-0.52c0.1-0.08,0.28-0.12,0.56-0.12h4.38c0.87,0,1.63,0.08,2.29,0.25
		c0.66,0.17,1.21,0.44,1.65,0.83c0.44,0.38,0.77,0.87,0.99,1.47c0.22,0.6,0.33,1.34,0.33,2.22v0.44c0,1.6-0.44,2.77-1.33,3.52
		s-2.2,1.12-3.93,1.12H119.17z M119.17,111.91h2.44c0.56,0,1-0.06,1.33-0.19c0.33-0.12,0.58-0.3,0.76-0.52
		c0.18-0.22,0.29-0.48,0.35-0.77c0.06-0.29,0.09-0.6,0.09-0.92v-0.31c0-0.37-0.03-0.7-0.09-1.01c-0.06-0.31-0.18-0.58-0.35-0.81
		c-0.18-0.23-0.43-0.42-0.76-0.55s-0.77-0.2-1.33-0.2h-2.44V111.91z"/>
		<path d="M139.98,114.55c0,1.92-0.46,3.37-1.39,4.34c-0.92,0.98-2.27,1.46-4.05,1.46h-0.18c-1.77,0-3.12-0.49-4.05-1.46
		c-0.92-0.97-1.39-2.42-1.39-4.34v-9.57c0-0.25,0.04-0.42,0.13-0.51s0.28-0.13,0.57-0.13h1.28c0.29,0,0.48,0.04,0.57,0.13
		s0.13,0.26,0.13,0.51v9.55c0,2.26,0.9,3.39,2.71,3.39h0.26c1.8,0,2.71-1.13,2.71-3.39v-9.55c0-0.25,0.04-0.42,0.13-0.51
		s0.28-0.13,0.57-0.13h1.28c0.29,0,0.48,0.04,0.57,0.13c0.09,0.09,0.13,0.26,0.13,0.51V114.55z"/>
		<path d="M143.7,120.01c-0.28,0-0.47-0.04-0.56-0.12c-0.1-0.08-0.14-0.25-0.14-0.52v-14.39c0-0.26,0.05-0.44,0.14-0.52
		c0.1-0.08,0.28-0.12,0.56-0.12h5.06c1.57,0,2.76,0.33,3.56,1c0.81,0.67,1.21,1.65,1.21,2.96v0.29c0,0.81-0.2,1.5-0.61,2.07
		c-0.4,0.57-0.91,0.94-1.53,1.1c0.69,0.18,1.25,0.58,1.69,1.2c0.44,0.62,0.66,1.37,0.66,2.23v0.35c0,1.63-0.47,2.78-1.4,3.45
		c-0.93,0.67-2.28,1.01-4.04,1.01H143.7z M145.64,110.7h2.95c0.75,0,1.3-0.15,1.66-0.44c0.36-0.29,0.54-0.77,0.54-1.43v-0.29
		c0-0.66-0.19-1.14-0.57-1.45c-0.38-0.31-0.98-0.46-1.8-0.46h-2.77V110.7z M145.64,117.72h2.77c0.81,0,1.43-0.17,1.88-0.51
		c0.45-0.34,0.67-0.9,0.67-1.69v-0.44c0-0.67-0.19-1.21-0.57-1.6c-0.38-0.39-0.93-0.58-1.65-0.58h-3.1V117.72z"/>
		<path d="M165.57,119.31c0,0.28-0.04,0.47-0.12,0.56c-0.08,0.09-0.25,0.14-0.52,0.14h-7.83c-0.28,0-0.47-0.04-0.56-0.12
		c-0.1-0.08-0.14-0.25-0.14-0.52v-14.39c0-0.26,0.05-0.44,0.14-0.52c0.1-0.08,0.28-0.12,0.56-0.12h1.28c0.28,0,0.47,0.04,0.56,0.12
		c0.09,0.08,0.14,0.25,0.14,0.52v12.65h5.85c0.26,0,0.44,0.05,0.52,0.14c0.08,0.1,0.12,0.28,0.12,0.56V119.31z"/>
		<path d="M170.39,119.37c0,0.26-0.05,0.44-0.14,0.52c-0.1,0.08-0.28,0.12-0.56,0.12h-1.28c-0.28,0-0.47-0.04-0.56-0.12
		c-0.1-0.08-0.14-0.25-0.14-0.52v-14.39c0-0.26,0.05-0.44,0.14-0.52c0.09-0.08,0.28-0.12,0.56-0.12h1.28c0.28,0,0.46,0.04,0.56,0.12
		c0.1,0.08,0.14,0.25,0.14,0.52V119.37z"/>
		<path d="M181.58,115.39c0.01-0.22,0.07-0.37,0.17-0.44c0.09-0.07,0.28-0.11,0.54-0.11h1.32c0.28,0,0.46,0.04,0.56,0.12
		s0.14,0.24,0.14,0.47c0,0.79-0.09,1.45-0.29,1.97c-0.19,0.52-0.51,1.01-0.95,1.46c-0.97,1-2.43,1.5-4.4,1.5
		c-1.2,0-2.23-0.25-3.08-0.76s-1.5-1.25-1.94-2.23c-0.19-0.43-0.32-0.89-0.4-1.41s-0.11-1.2-0.11-2.07v-3.21
		c0-0.79,0.04-1.45,0.12-1.98c0.08-0.53,0.21-1.03,0.38-1.5c0.4-1.04,1.04-1.84,1.95-2.39c0.9-0.55,2.02-0.82,3.35-0.82
		c1.88,0,3.27,0.49,4.18,1.47c0.43,0.46,0.73,0.95,0.9,1.47c0.18,0.53,0.26,1.17,0.26,1.91c0,0.24-0.05,0.39-0.14,0.47
		c-0.1,0.08-0.28,0.12-0.56,0.12h-1.36c-0.26,0-0.44-0.04-0.54-0.11c-0.1-0.07-0.15-0.22-0.17-0.44c-0.03-0.92-0.25-1.58-0.66-1.98
		c-0.41-0.4-1.09-0.59-2.05-0.59c-1.07,0-1.83,0.3-2.27,0.91c-0.44,0.61-0.66,1.64-0.66,3.09v3.7c0,1.41,0.22,2.42,0.67,3.05
		c0.45,0.62,1.19,0.93,2.23,0.93c0.92,0,1.61-0.21,2.06-0.64C181.32,116.94,181.55,116.28,181.58,115.39z"/>
		<path d="M198.72,119.37c0.03,0.12,0.04,0.2,0.04,0.24c0,0.26-0.16,0.4-0.48,0.4h-1.54c-0.28,0-0.46-0.04-0.54-0.12
		c-0.08-0.08-0.17-0.25-0.25-0.52l-1.01-3.1h-5.76l-0.99,3.12c-0.09,0.26-0.17,0.43-0.25,0.51c-0.08,0.07-0.26,0.11-0.54,0.11h-1.45
		c-0.32,0-0.48-0.13-0.48-0.4c0-0.04,0.01-0.12,0.04-0.24l4.95-14.63c0.06-0.18,0.14-0.29,0.24-0.33c0.1-0.04,0.26-0.07,0.46-0.07
		h1.98c0.21,0,0.36,0.02,0.46,0.07s0.18,0.15,0.24,0.33L198.72,119.37z M189.9,113.98h4.29l-2.16-6.69L189.9,113.98z"/>
</g>
	<g class="st1">
	<path d="M202.38,106.72h-3.85c-0.26,0-0.44-0.05-0.52-0.14s-0.12-0.28-0.12-0.56v-0.97c0-0.28,0.04-0.47,0.12-0.56
		c0.08-0.09,0.25-0.14,0.52-0.14h10.38c0.26,0,0.44,0.05,0.52,0.14c0.08,0.1,0.12,0.28,0.12,0.56v0.97c0,0.28-0.04,0.47-0.12,0.56
		c-0.08,0.1-0.25,0.14-0.52,0.14h-3.85v12.65c0,0.26-0.05,0.44-0.14,0.52c-0.1,0.08-0.28,0.12-0.56,0.12h-1.28
		c-0.28,0-0.47-0.04-0.56-0.12c-0.09-0.08-0.14-0.25-0.14-0.52V106.72z"/>
		<path d="M214.26,119.37c0,0.26-0.05,0.44-0.14,0.52c-0.1,0.08-0.28,0.12-0.56,0.12h-1.28c-0.28,0-0.47-0.04-0.56-0.12
		c-0.1-0.08-0.14-0.25-0.14-0.52v-14.39c0-0.26,0.05-0.44,0.14-0.52c0.1-0.08,0.28-0.12,0.56-0.12h1.28c0.28,0,0.47,0.04,0.56,0.12
		c0.09,0.08,0.14,0.25,0.14,0.52V119.37z"/>
		<path d="M222.79,103.99c1.3,0,2.4,0.25,3.29,0.76c0.89,0.51,1.54,1.25,1.97,2.23c0.19,0.43,0.32,0.9,0.4,1.43
		c0.07,0.53,0.11,1.21,0.11,2.05v3.21c0,0.76-0.04,1.42-0.12,1.97c-0.08,0.55-0.21,1.05-0.38,1.51c-0.43,1.06-1.08,1.86-1.97,2.4
		c-0.89,0.54-1.98,0.81-3.29,0.81c-1.31,0-2.4-0.25-3.29-0.76c-0.89-0.51-1.54-1.25-1.97-2.23c-0.19-0.43-0.32-0.9-0.4-1.43
		c-0.07-0.53-0.11-1.21-0.11-2.05v-3.21c0-0.76,0.04-1.42,0.12-1.97s0.21-1.05,0.38-1.51c0.43-1.06,1.08-1.86,1.97-2.4
		C220.39,104.27,221.49,103.99,222.79,103.99z M222.79,106.35c-1.09,0-1.86,0.31-2.32,0.92c-0.46,0.62-0.69,1.64-0.69,3.06v3.7
		c0,1.42,0.23,2.44,0.69,3.06s1.24,0.92,2.32,0.92c1.08,0,1.86-0.31,2.32-0.92s0.69-1.64,0.69-3.06v-3.7c0-1.42-0.23-2.44-0.69-3.06
		C224.65,106.66,223.88,106.35,222.79,106.35z"/>
		<path d="M233.95,109.43v9.94c0,0.26-0.05,0.44-0.14,0.52c-0.1,0.08-0.28,0.12-0.56,0.12h-1.21c-0.28,0-0.47-0.04-0.56-0.12
		c-0.1-0.08-0.14-0.25-0.14-0.52v-14.39c0-0.26,0.05-0.44,0.14-0.52c0.09-0.08,0.28-0.12,0.56-0.12h1.28c0.28,0,0.48,0.03,0.6,0.1
		c0.12,0.07,0.26,0.24,0.41,0.52l5.26,9.97v-9.94c0-0.26,0.05-0.44,0.14-0.52c0.09-0.08,0.28-0.12,0.56-0.12h1.21
		c0.28,0,0.47,0.04,0.56,0.12c0.09,0.08,0.14,0.25,0.14,0.52v14.39c0,0.26-0.05,0.44-0.14,0.52c-0.1,0.08-0.28,0.12-0.56,0.12h-1.28
		c-0.28,0-0.48-0.03-0.61-0.1c-0.12-0.07-0.26-0.24-0.41-0.52L233.95,109.43z"/>
</g>
</svg>
