<?xml version="1.0" encoding="utf-8"?>
<!-- Generator: Adobe Illustrator 26.0.1, SVG Export Plug-In . SVG Version: 6.00 Build 0)  -->
<svg version="1.1" id="Layer_1" xmlns="http://www.w3.org/2000/svg" xmlns:xlink="http://www.w3.org/1999/xlink" x="0px" y="0px"
	 viewBox="0 0 258.74 92.25" style="enable-background:new 0 0 258.74 92.25;" xml:space="preserve">
<style type="text/css">
	.st0{fill:#84BD00;}
	.st1{enable-background:new    ;}
</style>
	<g>
	<g>
		<path class="st0" d="M11.33,0.5C5.35,0.5,0.5,5.35,0.5,11.33v69.93c0,5.8,4.7,10.5,10.5,10.5h236.75c5.8,0,10.5-4.7,10.5-10.5V11
			c0-5.8-4.7-10.5-10.5-10.5H11.33"/>
	</g>
		<g>
		<path d="M11.33,0.5V0C5.07,0,0,5.07,0,11.33v69.93c0,6.07,4.92,10.99,11,10.99h236.75c6.07,0,11-4.92,11-10.99V11
			c0-6.07-4.92-11-11-11H11.33V0.5V1h236.42c2.76,0,5.26,1.12,7.07,2.93c1.81,1.81,2.93,4.3,2.93,7.07v70.27
			c0,2.76-1.12,5.26-2.93,7.07s-4.31,2.93-7.07,2.93H11c-2.76,0-5.26-1.12-7.07-2.93C2.12,86.52,1,84.02,1,81.26V11.33
			c0-2.86,1.16-5.43,3.03-7.3C5.89,2.15,8.47,1,11.33,1V0.5"/>
	</g>
		<g class="st1">
		<path d="M18.7,23.9v6.72c0,0.28-0.05,0.46-0.15,0.54c-0.1,0.08-0.3,0.13-0.59,0.13h-1.34c-0.29,0-0.49-0.04-0.59-0.13
			c-0.1-0.08-0.15-0.27-0.15-0.54V15.52c0-0.28,0.05-0.46,0.15-0.54s0.3-0.13,0.59-0.13h8.56c0.28,0,0.46,0.05,0.54,0.15
			c0.08,0.1,0.13,0.3,0.13,0.59v1.02c0,0.29-0.04,0.49-0.13,0.59c-0.08,0.1-0.27,0.15-0.54,0.15H18.7v4.06h5.89
			c0.28,0,0.46,0.05,0.54,0.15c0.08,0.1,0.13,0.3,0.13,0.59v1.01c0,0.29-0.04,0.49-0.13,0.59c-0.08,0.1-0.27,0.15-0.54,0.15H18.7z"
		/>
			<path d="M34.07,14.48c1.37,0,2.52,0.26,3.45,0.8c0.93,0.53,1.62,1.31,2.07,2.34c0.2,0.45,0.34,0.95,0.42,1.5
			c0.08,0.55,0.12,1.27,0.12,2.15v3.37c0,0.8-0.04,1.49-0.13,2.07c-0.08,0.58-0.22,1.1-0.4,1.58c-0.45,1.11-1.13,1.95-2.07,2.52
			c-0.93,0.57-2.08,0.85-3.45,0.85c-1.37,0-2.52-0.27-3.45-0.8c-0.93-0.53-1.62-1.31-2.07-2.34c-0.2-0.45-0.34-0.95-0.42-1.5
			c-0.08-0.55-0.12-1.27-0.12-2.15V21.5c0-0.8,0.04-1.49,0.13-2.07s0.22-1.1,0.4-1.58c0.45-1.11,1.13-1.95,2.07-2.52
			C31.55,14.77,32.7,14.48,34.07,14.48z M34.07,16.95c-1.14,0-1.95,0.32-2.44,0.97c-0.48,0.65-0.73,1.72-0.73,3.21v3.88
			c0,1.49,0.24,2.56,0.73,3.21c0.48,0.65,1.3,0.97,2.44,0.97c1.14,0,1.95-0.32,2.43-0.97s0.73-1.72,0.73-3.21v-3.88
			c0-1.49-0.24-2.56-0.73-3.21S35.21,16.95,34.07,16.95z"/>
			<path d="M48.66,14.48c1.37,0,2.52,0.26,3.45,0.8c0.93,0.53,1.62,1.31,2.07,2.34c0.2,0.45,0.34,0.95,0.42,1.5
			c0.08,0.55,0.12,1.27,0.12,2.15v3.37c0,0.8-0.04,1.49-0.13,2.07c-0.08,0.58-0.22,1.1-0.4,1.58c-0.45,1.11-1.13,1.95-2.07,2.52
			c-0.93,0.57-2.08,0.85-3.45,0.85c-1.37,0-2.52-0.27-3.45-0.8c-0.93-0.53-1.62-1.31-2.07-2.34c-0.2-0.45-0.34-0.95-0.42-1.5
			c-0.08-0.55-0.12-1.27-0.12-2.15V21.5c0-0.8,0.04-1.49,0.13-2.07s0.22-1.1,0.4-1.58c0.45-1.11,1.13-1.95,2.07-2.52
			C46.14,14.77,47.29,14.48,48.66,14.48z M48.66,16.95c-1.14,0-1.95,0.32-2.44,0.97c-0.48,0.65-0.73,1.72-0.73,3.21v3.88
			c0,1.49,0.24,2.56,0.73,3.21c0.48,0.65,1.3,0.97,2.44,0.97c1.14,0,1.95-0.32,2.43-0.97s0.73-1.72,0.73-3.21v-3.88
			c0-1.49-0.24-2.56-0.73-3.21S49.8,16.95,48.66,16.95z"/>
			<path d="M63.06,14.85c0.75,0,1.43,0.08,2.02,0.25s1.12,0.4,1.57,0.68c0.45,0.29,0.83,0.62,1.14,0.99
			c0.31,0.38,0.55,0.78,0.74,1.21c0.17,0.42,0.3,0.88,0.4,1.4s0.15,1.21,0.15,2.09v3.3c0,0.86-0.05,1.55-0.15,2.05
			s-0.23,0.96-0.4,1.36c-0.17,0.42-0.4,0.81-0.69,1.19c-0.29,0.38-0.65,0.71-1.06,0.99c-0.42,0.28-0.9,0.51-1.47,0.67
			c-0.56,0.16-1.2,0.24-1.9,0.24h-5.05c-0.29,0-0.49-0.04-0.59-0.13c-0.1-0.08-0.15-0.27-0.15-0.54V15.52
			c0-0.28,0.05-0.46,0.15-0.54s0.3-0.13,0.59-0.13H63.06z M60.43,28.79h2.58c0.52,0,0.98-0.07,1.37-0.2
			c0.39-0.13,0.72-0.35,0.99-0.66c0.27-0.31,0.47-0.72,0.61-1.23s0.21-1.16,0.21-1.93v-3.42c0-0.75-0.07-1.39-0.22-1.9
			c-0.15-0.51-0.35-0.93-0.62-1.23s-0.6-0.53-0.99-0.67c-0.39-0.14-0.84-0.21-1.35-0.21h-2.58V28.79z"/>
			<path d="M88.47,30.62c0,0.28-0.05,0.46-0.15,0.54c-0.1,0.08-0.3,0.13-0.59,0.13h-1.34c-0.29,0-0.49-0.04-0.59-0.13
			c-0.1-0.08-0.15-0.27-0.15-0.54v-6.69h-6.23v6.69c0,0.28-0.05,0.46-0.15,0.54c-0.1,0.08-0.3,0.13-0.59,0.13h-1.34
			c-0.29,0-0.49-0.04-0.59-0.13c-0.1-0.08-0.15-0.27-0.15-0.54V15.52c0-0.28,0.05-0.46,0.15-0.54s0.3-0.13,0.59-0.13h1.34
			c0.29,0,0.49,0.04,0.59,0.13s0.15,0.27,0.15,0.54v5.91h6.23v-5.91c0-0.28,0.05-0.46,0.15-0.54s0.3-0.13,0.59-0.13h1.34
			c0.29,0,0.49,0.04,0.59,0.13c0.1,0.08,0.15,0.27,0.15,0.54V30.62z"/>
			<path d="M92.67,14.85c0.26,0,0.44,0.03,0.54,0.1c0.1,0.07,0.2,0.21,0.31,0.43l3.35,6.81l3.3-6.81c0.11-0.21,0.21-0.36,0.31-0.43
			s0.28-0.1,0.54-0.1h1.59c0.38,0,0.58,0.12,0.58,0.37c0,0.11-0.02,0.21-0.07,0.3l-4.94,9.53v5.56c0,0.28-0.05,0.46-0.15,0.54
			c-0.1,0.08-0.3,0.13-0.59,0.13h-1.34c-0.29,0-0.49-0.04-0.59-0.13c-0.1-0.08-0.15-0.27-0.15-0.54v-5.56l-4.94-9.53
			c-0.05-0.09-0.07-0.19-0.07-0.3c0-0.25,0.19-0.37,0.58-0.37H92.67z"/>
	</g>
		<g class="st1">
		<path d="M104.1,21.5c0-1.58,0.18-2.8,0.53-3.65c0.45-1.11,1.17-1.95,2.16-2.52c0.99-0.57,2.18-0.85,3.57-0.85
			c0.78,0,1.53,0.1,2.23,0.29c0.7,0.19,1.31,0.49,1.83,0.89c0.52,0.4,0.94,0.91,1.25,1.53c0.31,0.62,0.46,1.37,0.46,2.23
			c0,0.22-0.05,0.36-0.16,0.44c-0.11,0.08-0.3,0.12-0.58,0.12h-1.43c-0.28,0-0.47-0.04-0.57-0.12s-0.16-0.23-0.17-0.46
			c-0.06-0.88-0.34-1.51-0.83-1.89c-0.49-0.38-1.23-0.58-2.22-0.58c-0.57,0-1.05,0.07-1.45,0.2c-0.4,0.13-0.73,0.36-0.98,0.68
			c-0.25,0.32-0.44,0.75-0.57,1.29c-0.12,0.54-0.18,1.22-0.18,2.03v3.88c0,1.55,0.26,2.65,0.77,3.28c0.52,0.63,1.32,0.95,2.41,0.95
			c1.02,0,1.78-0.26,2.31-0.79c0.52-0.52,0.78-1.42,0.78-2.68v-0.44h-1.78c-0.28,0-0.46-0.05-0.54-0.15
			c-0.08-0.1-0.13-0.3-0.13-0.59v-1.02c0-0.29,0.04-0.49,0.13-0.59c0.08-0.1,0.27-0.15,0.54-0.15h3.9c0.29,0,0.49,0.04,0.59,0.13
			c0.1,0.08,0.15,0.26,0.15,0.54v2.61c0,0.75-0.12,1.47-0.36,2.13c-0.24,0.67-0.6,1.26-1.1,1.77c-0.49,0.51-1.12,0.91-1.87,1.2
			s-1.64,0.44-2.65,0.44c-1.49,0-2.67-0.27-3.54-0.82s-1.53-1.32-1.97-2.32c-0.2-0.45-0.34-0.94-0.42-1.49
			c-0.08-0.55-0.12-1.27-0.12-2.16V21.5z"/>
			<path d="M121.84,30.62c0,0.28-0.05,0.46-0.15,0.54c-0.1,0.08-0.3,0.13-0.59,0.13h-1.34c-0.29,0-0.49-0.04-0.59-0.13
			c-0.1-0.08-0.15-0.27-0.15-0.54V15.52c0-0.28,0.05-0.46,0.15-0.54s0.3-0.13,0.59-0.13h1.34c0.29,0,0.49,0.04,0.59,0.13
			s0.15,0.27,0.15,0.54V30.62z"/>
			<path d="M135.28,30.55c0,0.29-0.04,0.49-0.13,0.59c-0.08,0.1-0.27,0.15-0.54,0.15h-8.7c-0.29,0-0.49-0.04-0.59-0.13
			c-0.1-0.08-0.15-0.27-0.15-0.54V15.52c0-0.28,0.05-0.46,0.15-0.54s0.3-0.13,0.59-0.13h8.61c0.28,0,0.46,0.05,0.54,0.15
			c0.08,0.1,0.13,0.3,0.13,0.59v1.02c0,0.29-0.04,0.49-0.13,0.59c-0.08,0.1-0.27,0.15-0.54,0.15h-6.53v4.25h5.93
			c0.28,0,0.46,0.05,0.54,0.15c0.08,0.1,0.13,0.3,0.13,0.59v1.01c0,0.29-0.04,0.49-0.13,0.59c-0.08,0.1-0.27,0.15-0.54,0.15h-5.93
			v4.71h6.62c0.28,0,0.46,0.05,0.54,0.15c0.08,0.1,0.13,0.3,0.13,0.59V30.55z"/>
			<path d="M140.93,20.18v10.43c0,0.28-0.05,0.46-0.15,0.54c-0.1,0.08-0.3,0.13-0.59,0.13h-1.27c-0.29,0-0.49-0.04-0.59-0.13
			c-0.1-0.08-0.15-0.27-0.15-0.54V15.52c0-0.28,0.05-0.46,0.15-0.54c0.1-0.08,0.3-0.13,0.59-0.13h1.34c0.29,0,0.5,0.03,0.63,0.1
			c0.13,0.07,0.27,0.25,0.43,0.54l5.52,10.45V15.52c0-0.28,0.05-0.46,0.15-0.54c0.1-0.08,0.3-0.13,0.59-0.13h1.27
			c0.29,0,0.49,0.04,0.59,0.13c0.1,0.08,0.15,0.27,0.15,0.54v15.09c0,0.28-0.05,0.46-0.15,0.54c-0.1,0.08-0.3,0.13-0.59,0.13h-1.34
			c-0.29,0-0.5-0.03-0.63-0.1s-0.27-0.25-0.43-0.54L140.93,20.18z"/>
			<path d="M163.02,30.55c0,0.29-0.04,0.49-0.13,0.59c-0.08,0.1-0.27,0.15-0.54,0.15h-8.7c-0.29,0-0.49-0.04-0.59-0.13
			c-0.1-0.08-0.15-0.27-0.15-0.54V15.52c0-0.28,0.05-0.46,0.15-0.54c0.1-0.08,0.3-0.13,0.59-0.13h8.61c0.28,0,0.46,0.05,0.54,0.15
			c0.08,0.1,0.13,0.3,0.13,0.59v1.02c0,0.29-0.04,0.49-0.13,0.59c-0.08,0.1-0.27,0.15-0.54,0.15h-6.53v4.25h5.93
			c0.28,0,0.46,0.05,0.54,0.15c0.08,0.1,0.13,0.3,0.13,0.59v1.01c0,0.29-0.04,0.49-0.13,0.59c-0.08,0.1-0.27,0.15-0.54,0.15h-5.93
			v4.71h6.62c0.28,0,0.46,0.05,0.54,0.15c0.08,0.1,0.13,0.3,0.13,0.59V30.55z"/>
			<path d="M173.31,24.87v5.75c0,0.26-0.05,0.44-0.14,0.53c-0.09,0.09-0.29,0.14-0.6,0.14h-1.29c-0.31,0-0.51-0.05-0.6-0.14
			c-0.09-0.09-0.14-0.27-0.14-0.53V15.52c0-0.26,0.05-0.44,0.14-0.53c0.09-0.09,0.29-0.14,0.6-0.14h4.94c1.83,0,3.17,0.38,4.02,1.14
			c0.85,0.76,1.27,1.98,1.27,3.66v0.44c0,2.34-0.93,3.82-2.79,4.43l3.44,6.09c0.06,0.12,0.09,0.22,0.09,0.3
			c0,0.25-0.2,0.37-0.6,0.37h-1.73c-0.26,0-0.45-0.04-0.57-0.13c-0.12-0.08-0.25-0.27-0.4-0.54l-3.12-5.75H173.31z M173.31,22.47
			h2.88c0.89,0,1.52-0.18,1.89-0.54c0.37-0.36,0.55-0.98,0.55-1.86v-0.32c0-0.92-0.18-1.57-0.54-1.94s-1-0.55-1.9-0.55h-2.88V22.47z
			"/>
			<path d="M197.17,30.62c0.03,0.12,0.05,0.21,0.05,0.25c0,0.28-0.17,0.42-0.51,0.42h-1.62c-0.29,0-0.48-0.04-0.57-0.13
			c-0.08-0.08-0.17-0.27-0.26-0.54l-1.06-3.25h-6.05l-1.04,3.28c-0.09,0.28-0.18,0.45-0.26,0.53c-0.08,0.08-0.27,0.12-0.57,0.12
			h-1.52c-0.34,0-0.51-0.14-0.51-0.42c0-0.05,0.02-0.13,0.05-0.25l5.19-15.35c0.06-0.18,0.15-0.3,0.25-0.35
			c0.11-0.05,0.27-0.07,0.48-0.07h2.08c0.21,0,0.38,0.02,0.48,0.07c0.11,0.05,0.19,0.16,0.25,0.35L197.17,30.62z M187.92,24.96h4.5
			l-2.26-7.02L187.92,24.96z"/>
	</g>
		<g class="st1">
		<path d="M201,17.35h-4.04c-0.28,0-0.46-0.05-0.54-0.15c-0.08-0.1-0.13-0.3-0.13-0.59v-1.02c0-0.29,0.04-0.49,0.13-0.59
			c0.08-0.1,0.27-0.15,0.54-0.15h10.89c0.28,0,0.46,0.05,0.54,0.15c0.08,0.1,0.13,0.3,0.13,0.59v1.02c0,0.29-0.04,0.49-0.13,0.59
			c-0.08,0.1-0.27,0.15-0.54,0.15h-4.04v13.27c0,0.28-0.05,0.46-0.15,0.54c-0.1,0.08-0.3,0.13-0.59,0.13h-1.34
			c-0.29,0-0.49-0.04-0.59-0.13c-0.1-0.08-0.15-0.27-0.15-0.54V17.35z"/>
			<path d="M213.46,30.62c0,0.28-0.05,0.46-0.15,0.54c-0.1,0.08-0.3,0.13-0.59,0.13h-1.34c-0.29,0-0.49-0.04-0.59-0.13
			c-0.1-0.08-0.15-0.27-0.15-0.54V15.52c0-0.28,0.05-0.46,0.15-0.54c0.1-0.08,0.3-0.13,0.59-0.13h1.34c0.29,0,0.49,0.04,0.59,0.13
			c0.1,0.08,0.15,0.27,0.15,0.54V30.62z"/>
			<path d="M219.53,20.18v10.43c0,0.28-0.05,0.46-0.15,0.54c-0.1,0.08-0.3,0.13-0.59,0.13h-1.27c-0.29,0-0.49-0.04-0.59-0.13
			c-0.1-0.08-0.15-0.27-0.15-0.54V15.52c0-0.28,0.05-0.46,0.15-0.54c0.1-0.08,0.3-0.13,0.59-0.13h1.34c0.29,0,0.5,0.03,0.63,0.1
			c0.13,0.07,0.27,0.25,0.43,0.54l5.52,10.45V15.52c0-0.28,0.05-0.46,0.15-0.54c0.1-0.08,0.3-0.13,0.59-0.13h1.27
			c0.29,0,0.49,0.04,0.59,0.13c0.1,0.08,0.15,0.27,0.15,0.54v15.09c0,0.28-0.05,0.46-0.15,0.54c-0.1,0.08-0.3,0.13-0.59,0.13h-1.34
			c-0.29,0-0.5-0.03-0.63-0.1s-0.27-0.25-0.43-0.54L219.53,20.18z"/>
			<path d="M231.09,21.5c0-1.58,0.18-2.8,0.53-3.65c0.45-1.11,1.17-1.95,2.16-2.52c0.99-0.57,2.18-0.85,3.57-0.85
			c0.78,0,1.53,0.1,2.23,0.29s1.31,0.49,1.83,0.89c0.52,0.4,0.94,0.91,1.25,1.53c0.31,0.62,0.46,1.37,0.46,2.23
			c0,0.22-0.05,0.36-0.16,0.44s-0.3,0.12-0.58,0.12h-1.43c-0.28,0-0.46-0.04-0.57-0.12c-0.1-0.08-0.16-0.23-0.17-0.46
			c-0.06-0.88-0.34-1.51-0.83-1.89s-1.23-0.58-2.21-0.58c-0.57,0-1.05,0.07-1.45,0.2c-0.4,0.13-0.73,0.36-0.98,0.68
			c-0.25,0.32-0.44,0.75-0.57,1.29c-0.12,0.54-0.18,1.22-0.18,2.03v3.88c0,1.55,0.26,2.65,0.77,3.28s1.32,0.95,2.41,0.95
			c1.02,0,1.78-0.26,2.31-0.79c0.52-0.52,0.78-1.42,0.78-2.68v-0.44h-1.78c-0.28,0-0.46-0.05-0.54-0.15
			c-0.08-0.1-0.13-0.3-0.13-0.59v-1.02c0-0.29,0.04-0.49,0.13-0.59c0.08-0.1,0.27-0.15,0.54-0.15h3.9c0.29,0,0.49,0.04,0.59,0.13
			c0.1,0.08,0.15,0.26,0.15,0.54v2.61c0,0.75-0.12,1.47-0.36,2.13c-0.24,0.67-0.6,1.26-1.1,1.77s-1.12,0.91-1.87,1.2
			s-1.64,0.44-2.65,0.44c-1.49,0-2.67-0.27-3.54-0.82s-1.53-1.32-1.97-2.32c-0.2-0.45-0.34-0.94-0.42-1.49
			c-0.08-0.55-0.12-1.27-0.12-2.16V21.5z"/>
	</g>
		<g>
		<polyline points="257.75,46.87 1,46.87 1,45.39 257.75,45.39 257.75,46.87 		"/>
	</g>
		<g>
		<polyline points="258.34,46.87 258.24,46.87 258.24,45.39 258.34,45.39 258.34,46.87 		"/>
	</g>
		<g>
		<path d="M258.24,46.87h-0.5V45.4h0.5V46.87 M1,46.87H0.6V45.4H1V46.87"/>
	</g>
		<g class="st1">
		<path d="M35.37,76.72c0.03,0.12,0.04,0.2,0.04,0.24c0,0.26-0.16,0.39-0.48,0.39H33.4c-0.28,0-0.46-0.04-0.54-0.12
			c-0.08-0.08-0.16-0.25-0.25-0.51l-1.01-3.09h-5.73l-0.98,3.11c-0.09,0.26-0.17,0.43-0.25,0.5s-0.26,0.11-0.54,0.11h-1.44
			c-0.32,0-0.48-0.13-0.48-0.39c0-0.04,0.01-0.12,0.04-0.24l4.92-14.56c0.06-0.18,0.14-0.29,0.24-0.33c0.1-0.04,0.26-0.07,0.46-0.07
			h1.97c0.2,0,0.36,0.02,0.46,0.07c0.1,0.04,0.18,0.15,0.24,0.33L35.37,76.72z M26.59,71.36h4.27l-2.15-6.65L26.59,71.36z"/>
			<path d="M35.79,61.77c0.26,0,0.45,0.04,0.55,0.11c0.1,0.07,0.18,0.25,0.24,0.53l2.08,10.75l2.28-10.44
			c0.03-0.16,0.1-0.27,0.21-0.32s0.27-0.08,0.49-0.08h1.31c0.22,0,0.38,0.03,0.49,0.08s0.18,0.16,0.21,0.32l2.06,10.55l2.32-10.86
			c0.06-0.28,0.14-0.45,0.24-0.53c0.1-0.07,0.28-0.11,0.55-0.11h1.42c0.31,0,0.46,0.13,0.46,0.39c0,0.12-0.02,0.26-0.07,0.44
			l-3.24,14.36c-0.03,0.16-0.1,0.27-0.22,0.32c-0.12,0.05-0.28,0.08-0.48,0.08H45c-0.22,0-0.38-0.03-0.49-0.08
			c-0.11-0.05-0.18-0.16-0.21-0.32l-2.15-10.29l-2.12,10.29c-0.03,0.16-0.1,0.27-0.21,0.32c-0.11,0.05-0.27,0.08-0.49,0.08h-1.64
			c-0.2,0-0.37-0.03-0.48-0.08c-0.12-0.05-0.19-0.16-0.22-0.32L33.93,62.6c-0.04-0.17-0.07-0.32-0.07-0.44
			c0-0.26,0.15-0.39,0.46-0.39H35.79z"/>
	</g>
		<g class="st1">
		<path d="M64.3,76.72c0.03,0.12,0.04,0.2,0.04,0.24c0,0.26-0.16,0.39-0.48,0.39h-1.53c-0.28,0-0.46-0.04-0.54-0.12
			c-0.08-0.08-0.16-0.25-0.25-0.51l-1.01-3.09H54.8l-0.98,3.11c-0.09,0.26-0.17,0.43-0.25,0.5s-0.26,0.11-0.54,0.11h-1.44
			c-0.32,0-0.48-0.13-0.48-0.39c0-0.04,0.01-0.12,0.04-0.24l4.92-14.56c0.06-0.18,0.14-0.29,0.24-0.33c0.1-0.04,0.26-0.07,0.46-0.07
			h1.97c0.2,0,0.36,0.02,0.46,0.07c0.1,0.04,0.18,0.15,0.24,0.33L64.3,76.72z M55.52,71.36h4.27l-2.15-6.65L55.52,71.36z"/>
			<path d="M68.81,76.72c0,0.26-0.05,0.43-0.14,0.51s-0.28,0.12-0.56,0.12h-1.27c-0.28,0-0.46-0.04-0.56-0.12
			c-0.1-0.08-0.14-0.25-0.14-0.51V62.4c0-0.26,0.05-0.43,0.14-0.51c0.09-0.08,0.28-0.12,0.56-0.12h1.27c0.28,0,0.46,0.04,0.56,0.12
			c0.09,0.08,0.14,0.25,0.14,0.51V76.72z"/>
			<path d="M75.29,64.13h-3.83c-0.26,0-0.43-0.05-0.51-0.14c-0.08-0.09-0.12-0.28-0.12-0.56v-0.96c0-0.28,0.04-0.46,0.12-0.56
			s0.25-0.14,0.51-0.14h10.33c0.26,0,0.43,0.05,0.51,0.14c0.08,0.09,0.12,0.28,0.12,0.56v0.96c0,0.28-0.04,0.46-0.12,0.56
			c-0.08,0.1-0.25,0.14-0.51,0.14h-3.83v12.59c0,0.26-0.05,0.43-0.14,0.51c-0.1,0.08-0.28,0.12-0.56,0.12h-1.27
			c-0.28,0-0.46-0.04-0.56-0.12c-0.1-0.08-0.14-0.25-0.14-0.51V64.13z"/>
			<path d="M87.11,76.72c0,0.26-0.05,0.43-0.14,0.51s-0.28,0.12-0.56,0.12h-1.27c-0.28,0-0.46-0.04-0.56-0.12
			c-0.1-0.08-0.14-0.25-0.14-0.51V62.4c0-0.26,0.05-0.43,0.14-0.51c0.09-0.08,0.28-0.12,0.56-0.12h1.27c0.28,0,0.46,0.04,0.56,0.12
			c0.09,0.08,0.14,0.25,0.14,0.51V76.72z"/>
			<path d="M92.86,66.83v9.89c0,0.26-0.05,0.43-0.14,0.51c-0.1,0.08-0.28,0.12-0.56,0.12h-1.2c-0.28,0-0.46-0.04-0.56-0.12
			c-0.1-0.08-0.14-0.25-0.14-0.51V62.4c0-0.26,0.05-0.43,0.14-0.51c0.09-0.08,0.28-0.12,0.56-0.12h1.27c0.28,0,0.48,0.03,0.6,0.1
			s0.26,0.24,0.4,0.51l5.23,9.92V62.4c0-0.26,0.05-0.43,0.14-0.51c0.09-0.08,0.28-0.12,0.56-0.12h1.2c0.28,0,0.46,0.04,0.56,0.12
			c0.09,0.08,0.14,0.25,0.14,0.51v14.32c0,0.26-0.05,0.43-0.14,0.51s-0.28,0.12-0.56,0.12H99.1c-0.28,0-0.48-0.03-0.6-0.1
			s-0.26-0.24-0.4-0.51L92.86,66.83z"/>
			<path d="M103.83,68.07c0-1.5,0.17-2.66,0.5-3.46c0.42-1.05,1.11-1.85,2.05-2.39c0.94-0.54,2.07-0.81,3.38-0.81
			c0.74,0,1.45,0.09,2.11,0.27s1.24,0.46,1.74,0.84c0.5,0.38,0.89,0.86,1.18,1.46c0.29,0.59,0.44,1.29,0.44,2.11
			c0,0.21-0.05,0.34-0.15,0.42s-0.28,0.11-0.55,0.11h-1.36c-0.26,0-0.44-0.04-0.54-0.11c-0.1-0.07-0.15-0.22-0.16-0.44
			c-0.06-0.83-0.32-1.43-0.79-1.79c-0.47-0.37-1.17-0.55-2.1-0.55c-0.54,0-1,0.06-1.38,0.19s-0.69,0.34-0.93,0.65
			s-0.42,0.71-0.54,1.23c-0.12,0.51-0.18,1.15-0.18,1.93v3.68c0,1.47,0.24,2.51,0.73,3.11c0.49,0.6,1.25,0.9,2.29,0.9
			c0.96,0,1.69-0.25,2.19-0.74s0.74-1.34,0.74-2.54v-0.42h-1.69c-0.26,0-0.43-0.05-0.51-0.14c-0.08-0.09-0.12-0.28-0.12-0.56v-0.96
			c0-0.28,0.04-0.46,0.12-0.56s0.25-0.14,0.51-0.14h3.7c0.28,0,0.46,0.04,0.56,0.12c0.09,0.08,0.14,0.25,0.14,0.51v2.47
			c0,0.72-0.11,1.39-0.34,2.03s-0.57,1.19-1.04,1.67c-0.47,0.48-1.06,0.86-1.77,1.14c-0.72,0.28-1.55,0.42-2.52,0.42
			c-1.42,0-2.54-0.26-3.36-0.78c-0.82-0.52-1.45-1.25-1.87-2.2c-0.19-0.42-0.32-0.89-0.39-1.41c-0.07-0.52-0.11-1.2-0.11-2.05V68.07
			z"/>
			<path d="M125.04,76.72c0,0.26-0.05,0.43-0.14,0.51s-0.28,0.12-0.56,0.12h-1.27c-0.28,0-0.46-0.04-0.56-0.12
			c-0.1-0.08-0.14-0.25-0.14-0.51V62.4c0-0.26,0.05-0.43,0.14-0.51c0.09-0.08,0.28-0.12,0.56-0.12h1.27c0.28,0,0.46,0.04,0.56,0.12
			c0.09,0.08,0.14,0.25,0.14,0.51V76.72z"/>
			<path d="M130.8,66.83v9.89c0,0.26-0.05,0.43-0.14,0.51s-0.28,0.12-0.56,0.12h-1.2c-0.28,0-0.46-0.04-0.56-0.12
			c-0.1-0.08-0.14-0.25-0.14-0.51V62.4c0-0.26,0.05-0.43,0.14-0.51c0.09-0.08,0.28-0.12,0.56-0.12h1.27c0.28,0,0.48,0.03,0.6,0.1
			s0.26,0.24,0.41,0.51l5.23,9.92V62.4c0-0.26,0.05-0.43,0.14-0.51c0.09-0.08,0.28-0.12,0.56-0.12h1.2c0.28,0,0.46,0.04,0.56,0.12
			c0.09,0.08,0.14,0.25,0.14,0.51v14.32c0,0.26-0.05,0.43-0.14,0.51s-0.28,0.12-0.56,0.12h-1.27c-0.28,0-0.48-0.03-0.6-0.1
			s-0.26-0.24-0.4-0.51L130.8,66.83z"/>
			<path d="M144.13,73.55c0.13,0.63,0.42,1.1,0.85,1.41s1.06,0.47,1.86,0.47c0.92,0,1.58-0.17,1.99-0.49
			c0.41-0.33,0.61-0.86,0.61-1.61c0-0.58-0.17-1.06-0.5-1.43s-0.88-0.67-1.62-0.91L145,70.26c-1.08-0.34-1.91-0.85-2.48-1.55
			c-0.58-0.7-0.86-1.53-0.86-2.5v-0.2c0-1.46,0.46-2.59,1.39-3.39c0.93-0.8,2.24-1.2,3.95-1.2c1.84,0,3.2,0.49,4.09,1.47
			c0.61,0.7,0.92,1.55,0.92,2.54c0,0.23-0.05,0.39-0.14,0.47c-0.09,0.08-0.28,0.12-0.56,0.12h-1.25c-0.28,0-0.46-0.04-0.55-0.11
			c-0.09-0.07-0.15-0.22-0.18-0.44c-0.13-1.2-0.98-1.79-2.56-1.79c-1.61,0-2.41,0.72-2.41,2.17c0,0.29,0.04,0.55,0.11,0.77
			c0.07,0.22,0.2,0.41,0.37,0.58c0.17,0.17,0.4,0.32,0.69,0.46c0.28,0.14,0.64,0.27,1.06,0.41l2.32,0.72
			c1.11,0.34,1.94,0.86,2.48,1.59c0.55,0.72,0.82,1.6,0.82,2.64v0.28c0,1.42-0.46,2.51-1.38,3.27c-0.92,0.77-2.22,1.15-3.9,1.15
			c-1.98,0-3.44-0.46-4.36-1.38c-0.37-0.38-0.65-0.8-0.84-1.27c-0.2-0.47-0.3-0.96-0.3-1.47c0-0.23,0.05-0.39,0.14-0.47
			s0.28-0.12,0.56-0.12h1.23c0.26,0,0.44,0.04,0.54,0.11S144.08,73.33,144.13,73.55z"/>
			<path d="M157.28,71.58v5.14c0,0.26-0.05,0.43-0.14,0.51s-0.28,0.12-0.56,0.12h-1.23c-0.28,0-0.46-0.04-0.56-0.12
			c-0.1-0.08-0.14-0.25-0.14-0.51V62.4c0-0.26,0.05-0.43,0.14-0.51c0.09-0.08,0.28-0.12,0.56-0.12h4.36c0.86,0,1.62,0.08,2.28,0.25
			c0.66,0.17,1.2,0.44,1.64,0.82c0.44,0.38,0.77,0.87,0.98,1.47c0.22,0.6,0.33,1.33,0.33,2.21v0.44c0,1.59-0.44,2.76-1.32,3.5
			c-0.88,0.74-2.19,1.12-3.91,1.12H157.28z M157.28,69.3h2.43c0.55,0,1-0.06,1.32-0.19s0.58-0.3,0.75-0.51s0.29-0.47,0.35-0.77
			c0.06-0.29,0.09-0.6,0.09-0.92v-0.31c0-0.37-0.03-0.7-0.09-1.01c-0.06-0.31-0.18-0.58-0.35-0.81s-0.43-0.42-0.75-0.55
			c-0.33-0.13-0.77-0.2-1.32-0.2h-2.43V69.3z"/>
			<path d="M176.74,76.65c0,0.28-0.04,0.46-0.12,0.56c-0.08,0.1-0.25,0.14-0.51,0.14h-8.25c-0.28,0-0.46-0.04-0.56-0.12
			s-0.14-0.25-0.14-0.51V62.4c0-0.26,0.05-0.43,0.14-0.51c0.09-0.08,0.28-0.12,0.56-0.12h8.16c0.26,0,0.43,0.05,0.51,0.14
			s0.12,0.28,0.12,0.56v0.96c0,0.28-0.04,0.46-0.12,0.56c-0.08,0.1-0.25,0.14-0.51,0.14h-6.19v4.03h5.63c0.26,0,0.43,0.05,0.51,0.14
			s0.12,0.28,0.12,0.56v0.96c0,0.28-0.04,0.46-0.12,0.56s-0.25,0.14-0.51,0.14h-5.63v4.46h6.28c0.26,0,0.43,0.05,0.51,0.14
			c0.08,0.09,0.12,0.28,0.12,0.56V76.65z"/>
			<path d="M187.49,72.76c0.01-0.22,0.07-0.36,0.16-0.44s0.27-0.11,0.54-0.11h1.31c0.28,0,0.46,0.04,0.56,0.12s0.14,0.24,0.14,0.47
			c0,0.79-0.1,1.44-0.29,1.96c-0.19,0.52-0.5,1-0.94,1.46c-0.96,0.99-2.42,1.49-4.38,1.49c-1.2,0-2.22-0.25-3.06-0.76
			c-0.85-0.5-1.49-1.24-1.93-2.22c-0.19-0.42-0.32-0.89-0.39-1.4c-0.07-0.51-0.11-1.2-0.11-2.06v-3.2c0-0.79,0.04-1.44,0.12-1.97
			s0.21-1.02,0.38-1.49c0.39-1.04,1.04-1.83,1.94-2.38s2.01-0.82,3.34-0.82c1.87,0,3.25,0.49,4.16,1.47
			c0.42,0.45,0.72,0.94,0.9,1.47c0.17,0.53,0.26,1.16,0.26,1.9c0,0.23-0.05,0.39-0.14,0.47s-0.28,0.12-0.56,0.12h-1.36
			c-0.26,0-0.44-0.04-0.54-0.11c-0.1-0.07-0.15-0.22-0.17-0.44c-0.03-0.92-0.25-1.58-0.66-1.97c-0.41-0.39-1.09-0.59-2.04-0.59
			c-1.06,0-1.82,0.3-2.25,0.91s-0.66,1.63-0.66,3.08v3.68c0,1.4,0.22,2.41,0.67,3.03s1.19,0.93,2.22,0.93c0.92,0,1.6-0.21,2.05-0.63
			C187.22,74.3,187.46,73.65,187.49,72.76z"/>
			<path d="M196.03,64.13h-3.83c-0.26,0-0.43-0.05-0.51-0.14c-0.08-0.09-0.12-0.28-0.12-0.56v-0.96c0-0.28,0.04-0.46,0.12-0.56
			s0.25-0.14,0.51-0.14h10.33c0.26,0,0.43,0.05,0.51,0.14s0.12,0.28,0.12,0.56v0.96c0,0.28-0.04,0.46-0.12,0.56
			c-0.08,0.1-0.25,0.14-0.51,0.14h-3.83v12.59c0,0.26-0.05,0.43-0.14,0.51s-0.28,0.12-0.56,0.12h-1.27c-0.28,0-0.46-0.04-0.56-0.12
			s-0.14-0.25-0.14-0.51V64.13z"/>
			<path d="M207.84,76.72c0,0.26-0.05,0.43-0.14,0.51s-0.28,0.12-0.56,0.12h-1.27c-0.28,0-0.46-0.04-0.56-0.12s-0.14-0.25-0.14-0.51
			V62.4c0-0.26,0.05-0.43,0.14-0.51c0.09-0.08,0.28-0.12,0.56-0.12h1.27c0.28,0,0.46,0.04,0.56,0.12c0.09,0.08,0.14,0.25,0.14,0.51
			V76.72z"/>
			<path d="M216.34,61.42c1.3,0,2.39,0.25,3.27,0.75c0.88,0.5,1.54,1.24,1.96,2.22c0.19,0.42,0.32,0.9,0.39,1.42
			c0.07,0.53,0.11,1.2,0.11,2.04v3.2c0,0.76-0.04,1.41-0.12,1.96c-0.08,0.55-0.21,1.05-0.38,1.5c-0.42,1.05-1.08,1.85-1.96,2.39
			c-0.88,0.54-1.97,0.81-3.27,0.81s-2.39-0.25-3.27-0.76c-0.88-0.5-1.54-1.24-1.96-2.22c-0.19-0.42-0.32-0.9-0.39-1.42
			c-0.07-0.53-0.11-1.2-0.11-2.04v-3.2c0-0.76,0.04-1.41,0.12-1.96c0.08-0.55,0.21-1.05,0.38-1.5c0.42-1.05,1.08-1.85,1.96-2.39
			S215.04,61.42,216.34,61.42z M216.34,63.76c-1.08,0-1.85,0.31-2.31,0.92c-0.46,0.61-0.69,1.63-0.69,3.04v3.68
			c0,1.42,0.23,2.43,0.69,3.04c0.46,0.61,1.23,0.92,2.31,0.92s1.85-0.31,2.31-0.92s0.69-1.63,0.69-3.04v-3.68
			c0-1.42-0.23-2.43-0.69-3.04C218.19,64.07,217.42,63.76,216.34,63.76z"/>
			<path d="M227.43,66.83v9.89c0,0.26-0.05,0.43-0.14,0.51s-0.28,0.12-0.56,0.12h-1.2c-0.28,0-0.46-0.04-0.56-0.12
			s-0.14-0.25-0.14-0.51V62.4c0-0.26,0.05-0.43,0.14-0.51c0.09-0.08,0.28-0.12,0.56-0.12h1.27c0.28,0,0.48,0.03,0.6,0.1
			s0.26,0.24,0.41,0.51l5.23,9.92V62.4c0-0.26,0.05-0.43,0.14-0.51c0.09-0.08,0.28-0.12,0.56-0.12h1.2c0.28,0,0.46,0.04,0.56,0.12
			c0.09,0.08,0.14,0.25,0.14,0.51v14.32c0,0.26-0.05,0.43-0.14,0.51s-0.28,0.12-0.56,0.12h-1.27c-0.28,0-0.48-0.03-0.6-0.1
			s-0.26-0.24-0.4-0.51L227.43,66.83z"/>
	</g>
</g>
</svg>
