<?xml version="1.0" encoding="utf-8"?>
<!-- Generator: Adobe Illustrator 26.0.1, SVG Export Plug-In . SVG Version: 6.00 Build 0)  -->
<svg version="1.1" id="Layer_1" xmlns="http://www.w3.org/2000/svg" xmlns:xlink="http://www.w3.org/1999/xlink" x="0px" y="0px"
	 viewBox="0 0 258.74 145.16" style="enable-background:new 0 0 258.74 145.16;" xml:space="preserve">
<style type="text/css">
	.st0{fill:#84BD00;}
	.st1{enable-background:new    ;}
	.st2{fill:#84BD41;}
	.st3{clip-path:url(#SVGID_00000023252781553634110820000012701184364954842777_);}
	.st4{clip-path:url(#SVGID_00000007410816400621558310000008438923626240658361_);}
	.st5{clip-path:url(#SVGID_00000007417901169863222210000002987280890740911782_);}
	.st6{clip-path:url(#SVGID_00000115513613773095751540000016450740399761014169_);}
	.st7{clip-path:url(#SVGID_00000178906391427759658220000011176255212407515525_);}
	.st8{fill:#FFFFFF;}
</style>
<g>
	<path class="st0" d="M11.33,0.5C5.35,0.5,0.5,5.35,0.5,11.33l0,0v121.79c0,5.8,4.7,10.5,10.5,10.5l0,0h236.75
		c5.8-0.01,10.49-4.7,10.49-10.5V11c0-5.8-4.69-10.49-10.49-10.5H11.33"/>
</g>
<g>
	<path d="M11.33,0.5V0C5.07,0,0,5.07,0,11.33l0,0v121.79c0,6.08,4.92,11,11,11l0,0h236.75c6.08,0,11-4.92,11-11l0,0V11
		c0-6.08-4.92-11-11-11l0,0H11.33v1h236.42c5.52,0,10,4.48,10,10v122.12c0,5.52-4.48,10-10,10H11c-5.52,0-10-4.48-10-10V11.33
		C0.99,5.64,5.6,1.01,11.29,1c0.01,0,0.03,0,0.04,0V0.5"/>
</g>
<g class="st1">
	<path d="M19.04,21.29v6.72c0,0.28-0.05,0.46-0.15,0.54c-0.1,0.08-0.3,0.13-0.59,0.13h-1.34c-0.29,0-0.49-0.04-0.59-0.13
		c-0.1-0.08-0.15-0.27-0.15-0.54V12.92c0-0.28,0.05-0.46,0.15-0.54c0.1-0.08,0.3-0.13,0.59-0.13h8.56c0.28,0,0.46,0.05,0.54,0.15
		c0.08,0.1,0.13,0.3,0.13,0.59V14c0,0.29-0.04,0.49-0.13,0.59c-0.08,0.1-0.27,0.15-0.54,0.15h-6.49v4.06h5.89
		c0.28,0,0.46,0.05,0.54,0.15c0.08,0.1,0.13,0.3,0.13,0.59v1.02c0,0.29-0.04,0.49-0.13,0.59c-0.08,0.1-0.27,0.15-0.54,0.15H19.04z"
		/>
	<path d="M34.41,11.88c1.37,0,2.52,0.26,3.45,0.8c0.93,0.53,1.62,1.31,2.07,2.34c0.2,0.45,0.34,0.95,0.42,1.5s0.12,1.27,0.12,2.15
		v3.37c0,0.8-0.04,1.49-0.13,2.07c-0.08,0.58-0.22,1.1-0.4,1.58c-0.45,1.11-1.14,1.95-2.07,2.52c-0.93,0.57-2.08,0.85-3.45,0.85
		c-1.37,0-2.52-0.27-3.45-0.8c-0.93-0.53-1.62-1.31-2.07-2.34c-0.2-0.45-0.34-0.95-0.42-1.5c-0.08-0.55-0.12-1.27-0.12-2.15v-3.37
		c0-0.8,0.04-1.49,0.13-2.07s0.22-1.1,0.4-1.58c0.45-1.11,1.13-1.95,2.07-2.52C31.89,12.16,33.04,11.88,34.41,11.88z M34.41,14.35
		c-1.14,0-1.95,0.32-2.44,0.97s-0.73,1.72-0.73,3.21v3.88c0,1.49,0.24,2.56,0.73,3.21c0.48,0.65,1.3,0.97,2.44,0.97
		c1.14,0,1.95-0.32,2.43-0.97c0.48-0.65,0.73-1.72,0.73-3.21v-3.88c0-1.49-0.24-2.56-0.73-3.21C36.36,14.67,35.55,14.35,34.41,14.35
		z"/>
	<path d="M49,11.88c1.37,0,2.52,0.26,3.45,0.8c0.93,0.53,1.62,1.31,2.07,2.34c0.2,0.45,0.34,0.95,0.42,1.5s0.12,1.27,0.12,2.15v3.37
		c0,0.8-0.04,1.49-0.13,2.07c-0.08,0.58-0.22,1.1-0.4,1.58c-0.45,1.11-1.14,1.95-2.07,2.52c-0.93,0.57-2.08,0.85-3.45,0.85
		c-1.37,0-2.52-0.27-3.45-0.8c-0.93-0.53-1.62-1.31-2.07-2.34c-0.2-0.45-0.34-0.95-0.42-1.5c-0.08-0.55-0.12-1.27-0.12-2.15v-3.37
		c0-0.8,0.04-1.49,0.13-2.07s0.22-1.1,0.4-1.58c0.45-1.11,1.13-1.95,2.07-2.52C46.48,12.16,47.63,11.88,49,11.88z M49,14.35
		c-1.14,0-1.95,0.32-2.44,0.97s-0.73,1.72-0.73,3.21v3.88c0,1.49,0.24,2.56,0.73,3.21c0.48,0.65,1.3,0.97,2.44,0.97
		c1.14,0,1.95-0.32,2.43-0.97c0.48-0.65,0.73-1.72,0.73-3.21v-3.88c0-1.49-0.24-2.56-0.73-3.21C50.95,14.67,50.13,14.35,49,14.35z"
		/>
	<path d="M63.4,12.25c0.75,0,1.43,0.08,2.02,0.25c0.59,0.17,1.12,0.4,1.57,0.68c0.45,0.29,0.83,0.62,1.14,0.99s0.55,0.78,0.74,1.21
		c0.17,0.42,0.3,0.88,0.4,1.4s0.15,1.21,0.15,2.09v3.3c0,0.86-0.05,1.55-0.15,2.05s-0.23,0.96-0.4,1.36
		c-0.17,0.42-0.4,0.81-0.69,1.19c-0.29,0.38-0.65,0.71-1.06,0.99c-0.42,0.29-0.9,0.51-1.47,0.67c-0.56,0.16-1.2,0.24-1.9,0.24h-5.05
		c-0.29,0-0.49-0.04-0.59-0.13c-0.1-0.08-0.15-0.27-0.15-0.54V12.92c0-0.28,0.05-0.46,0.15-0.54c0.1-0.08,0.3-0.13,0.59-0.13H63.4z
		 M60.77,26.19h2.58c0.52,0,0.98-0.07,1.37-0.2c0.39-0.13,0.72-0.35,0.99-0.66c0.27-0.31,0.47-0.72,0.61-1.23
		c0.14-0.52,0.21-1.16,0.21-1.93v-3.42c0-0.75-0.07-1.39-0.22-1.9c-0.15-0.52-0.35-0.93-0.62-1.24c-0.27-0.31-0.6-0.53-0.99-0.67
		c-0.39-0.14-0.84-0.21-1.35-0.21h-2.58V26.19z"/>
	<path d="M88.81,28.01c0,0.28-0.05,0.46-0.15,0.54c-0.1,0.08-0.3,0.13-0.59,0.13h-1.34c-0.29,0-0.49-0.04-0.59-0.13
		c-0.1-0.08-0.15-0.27-0.15-0.54v-6.69h-6.23v6.69c0,0.28-0.05,0.46-0.15,0.54c-0.1,0.08-0.3,0.13-0.59,0.13h-1.34
		c-0.29,0-0.49-0.04-0.59-0.13c-0.1-0.08-0.15-0.27-0.15-0.54V12.92c0-0.28,0.05-0.46,0.15-0.54c0.1-0.08,0.3-0.13,0.59-0.13h1.34
		c0.29,0,0.49,0.04,0.59,0.13c0.1,0.08,0.15,0.26,0.15,0.54v5.91h6.23v-5.91c0-0.28,0.05-0.46,0.15-0.54
		c0.1-0.08,0.3-0.13,0.59-0.13h1.34c0.29,0,0.49,0.04,0.59,0.13c0.1,0.08,0.15,0.26,0.15,0.54V28.01z"/>
	<path d="M93.01,12.25c0.26,0,0.44,0.03,0.54,0.1s0.2,0.21,0.31,0.43l3.35,6.81l3.3-6.81c0.11-0.21,0.21-0.36,0.31-0.43
		c0.1-0.07,0.28-0.1,0.54-0.1h1.59c0.38,0,0.58,0.12,0.58,0.37c0,0.11-0.02,0.21-0.07,0.3l-4.94,9.53v5.56
		c0,0.28-0.05,0.46-0.15,0.54c-0.1,0.08-0.3,0.13-0.59,0.13h-1.34c-0.29,0-0.49-0.04-0.59-0.13c-0.1-0.08-0.15-0.27-0.15-0.54v-5.56
		l-4.94-9.53c-0.05-0.09-0.07-0.19-0.07-0.3c0-0.25,0.19-0.37,0.58-0.37H93.01z"/>
</g>
<g class="st1">
	<path d="M104.43,18.89c0-1.58,0.18-2.8,0.53-3.65c0.45-1.11,1.17-1.95,2.16-2.52c0.99-0.57,2.18-0.85,3.57-0.85
		c0.78,0,1.53,0.1,2.23,0.29s1.31,0.49,1.83,0.89s0.94,0.91,1.25,1.53c0.31,0.62,0.46,1.37,0.46,2.23c0,0.22-0.05,0.36-0.16,0.44
		c-0.11,0.08-0.3,0.12-0.58,0.12h-1.43c-0.28,0-0.47-0.04-0.57-0.12c-0.1-0.08-0.16-0.23-0.17-0.46c-0.06-0.88-0.34-1.51-0.83-1.89
		c-0.49-0.38-1.23-0.58-2.22-0.58c-0.57,0-1.05,0.07-1.45,0.2c-0.4,0.13-0.73,0.36-0.98,0.68s-0.44,0.75-0.57,1.29
		c-0.12,0.54-0.18,1.22-0.18,2.03v3.88c0,1.55,0.26,2.65,0.77,3.28s1.32,0.95,2.41,0.95c1.02,0,1.78-0.26,2.31-0.79
		c0.52-0.52,0.78-1.42,0.78-2.68v-0.44h-1.78c-0.28,0-0.46-0.05-0.54-0.15s-0.13-0.3-0.13-0.59v-1.02c0-0.29,0.04-0.49,0.13-0.59
		c0.08-0.1,0.27-0.15,0.54-0.15h3.9c0.29,0,0.49,0.04,0.59,0.13c0.1,0.08,0.15,0.27,0.15,0.54v2.61c0,0.75-0.12,1.47-0.36,2.13
		c-0.24,0.67-0.6,1.26-1.1,1.77c-0.49,0.51-1.12,0.91-1.87,1.2s-1.64,0.44-2.65,0.44c-1.49,0-2.67-0.27-3.54-0.82
		c-0.87-0.55-1.53-1.32-1.97-2.32c-0.2-0.45-0.34-0.94-0.42-1.49c-0.08-0.55-0.12-1.27-0.12-2.16V18.89z"/>
	<path d="M122.17,28.01c0,0.28-0.05,0.46-0.15,0.54c-0.1,0.08-0.3,0.13-0.59,0.13h-1.34c-0.29,0-0.49-0.04-0.59-0.13
		c-0.1-0.08-0.15-0.27-0.15-0.54V12.92c0-0.28,0.05-0.46,0.15-0.54c0.1-0.08,0.3-0.13,0.59-0.13h1.34c0.29,0,0.49,0.04,0.59,0.13
		c0.1,0.08,0.15,0.26,0.15,0.54V28.01z"/>
	<path d="M135.61,27.94c0,0.29-0.04,0.49-0.13,0.59c-0.08,0.1-0.27,0.15-0.54,0.15h-8.7c-0.29,0-0.49-0.04-0.59-0.13
		c-0.1-0.08-0.15-0.27-0.15-0.54V12.92c0-0.28,0.05-0.46,0.15-0.54c0.1-0.08,0.3-0.13,0.59-0.13h8.61c0.28,0,0.46,0.05,0.54,0.15
		c0.08,0.1,0.13,0.3,0.13,0.59V14c0,0.29-0.04,0.49-0.13,0.59c-0.08,0.1-0.27,0.15-0.54,0.15h-6.53v4.25h5.93
		c0.28,0,0.46,0.05,0.54,0.15c0.08,0.1,0.13,0.3,0.13,0.59v1.02c0,0.29-0.04,0.49-0.13,0.59c-0.08,0.1-0.27,0.15-0.54,0.15h-5.93
		v4.71h6.62c0.28,0,0.46,0.05,0.54,0.15c0.08,0.1,0.13,0.3,0.13,0.59V27.94z"/>
	<path d="M141.26,17.58v10.43c0,0.28-0.05,0.46-0.15,0.54c-0.1,0.08-0.3,0.13-0.59,0.13h-1.27c-0.29,0-0.49-0.04-0.59-0.13
		c-0.1-0.08-0.15-0.27-0.15-0.54V12.92c0-0.28,0.05-0.46,0.15-0.54c0.1-0.08,0.3-0.13,0.59-0.13h1.34c0.29,0,0.5,0.03,0.63,0.1
		s0.27,0.25,0.43,0.54l5.52,10.46V12.92c0-0.28,0.05-0.46,0.15-0.54c0.1-0.08,0.3-0.13,0.59-0.13h1.27c0.29,0,0.49,0.04,0.59,0.13
		c0.1,0.08,0.15,0.26,0.15,0.54v15.09c0,0.28-0.05,0.46-0.15,0.54c-0.1,0.08-0.3,0.13-0.59,0.13h-1.34c-0.29,0-0.5-0.03-0.63-0.1
		c-0.13-0.07-0.27-0.25-0.43-0.54L141.26,17.58z"/>
	<path d="M163.35,27.94c0,0.29-0.04,0.49-0.13,0.59c-0.08,0.1-0.27,0.15-0.54,0.15h-8.7c-0.29,0-0.49-0.04-0.59-0.13
		c-0.1-0.08-0.15-0.27-0.15-0.54V12.92c0-0.28,0.05-0.46,0.15-0.54c0.1-0.08,0.3-0.13,0.59-0.13h8.61c0.28,0,0.46,0.05,0.54,0.15
		c0.08,0.1,0.13,0.3,0.13,0.59V14c0,0.29-0.04,0.49-0.13,0.59c-0.08,0.1-0.27,0.15-0.54,0.15h-6.53v4.25h5.93
		c0.28,0,0.46,0.05,0.54,0.15c0.08,0.1,0.13,0.3,0.13,0.59v1.02c0,0.29-0.04,0.49-0.13,0.59c-0.08,0.1-0.27,0.15-0.54,0.15h-5.93
		v4.71h6.62c0.28,0,0.46,0.05,0.54,0.15c0.08,0.1,0.13,0.3,0.13,0.59V27.94z"/>
	<path d="M173.64,22.26v5.75c0,0.26-0.05,0.44-0.14,0.53c-0.09,0.09-0.29,0.14-0.6,0.14h-1.29c-0.31,0-0.51-0.05-0.6-0.14
		c-0.09-0.09-0.14-0.27-0.14-0.53V12.92c0-0.26,0.05-0.44,0.14-0.53c0.09-0.09,0.29-0.14,0.6-0.14h4.94c1.83,0,3.17,0.38,4.02,1.14
		c0.85,0.76,1.27,1.98,1.27,3.66v0.44c0,2.34-0.93,3.82-2.79,4.43l3.44,6.09c0.06,0.12,0.09,0.22,0.09,0.3c0,0.25-0.2,0.37-0.6,0.37
		h-1.73c-0.26,0-0.45-0.04-0.57-0.13c-0.12-0.08-0.25-0.27-0.4-0.54l-3.12-5.75H173.64z M173.64,19.86h2.89
		c0.89,0,1.52-0.18,1.89-0.54c0.37-0.36,0.55-0.98,0.55-1.86v-0.32c0-0.92-0.18-1.57-0.54-1.94c-0.36-0.37-1-0.55-1.9-0.55h-2.89
		V19.86z"/>
	<path d="M197.51,28.01c0.03,0.12,0.05,0.21,0.05,0.25c0,0.28-0.17,0.42-0.51,0.42h-1.62c-0.29,0-0.48-0.04-0.57-0.13
		c-0.08-0.08-0.17-0.27-0.27-0.54l-1.06-3.25h-6.05l-1.04,3.28c-0.09,0.28-0.18,0.45-0.27,0.53c-0.08,0.08-0.27,0.12-0.57,0.12
		h-1.52c-0.34,0-0.51-0.14-0.51-0.42c0-0.05,0.01-0.13,0.05-0.25l5.19-15.35c0.06-0.18,0.15-0.3,0.25-0.35
		c0.11-0.05,0.27-0.07,0.49-0.07h2.08c0.21,0,0.38,0.02,0.48,0.07c0.11,0.05,0.19,0.16,0.25,0.35L197.51,28.01z M188.25,22.36h4.5
		l-2.26-7.02L188.25,22.36z"/>
</g>
<g class="st1">
	<path d="M201.32,14.74h-4.04c-0.28,0-0.46-0.05-0.54-0.15c-0.08-0.1-0.13-0.3-0.13-0.59v-1.02c0-0.29,0.04-0.49,0.13-0.59
		c0.08-0.1,0.27-0.15,0.54-0.15h10.89c0.28,0,0.46,0.05,0.54,0.15c0.08,0.1,0.13,0.3,0.13,0.59V14c0,0.29-0.04,0.49-0.13,0.59
		c-0.08,0.1-0.26,0.15-0.54,0.15h-4.04v13.27c0,0.28-0.05,0.46-0.15,0.54c-0.1,0.08-0.3,0.13-0.59,0.13h-1.34
		c-0.29,0-0.49-0.04-0.59-0.13c-0.1-0.08-0.15-0.27-0.15-0.54V14.74z"/>
	<path d="M213.78,28.01c0,0.28-0.05,0.46-0.15,0.54c-0.1,0.08-0.3,0.13-0.59,0.13h-1.34c-0.29,0-0.49-0.04-0.59-0.13
		c-0.1-0.08-0.15-0.27-0.15-0.54V12.92c0-0.28,0.05-0.46,0.15-0.54c0.1-0.08,0.3-0.13,0.59-0.13h1.34c0.29,0,0.49,0.04,0.59,0.13
		c0.1,0.08,0.15,0.26,0.15,0.54V28.01z"/>
	<path d="M219.85,17.58v10.43c0,0.28-0.05,0.46-0.15,0.54c-0.1,0.08-0.3,0.13-0.59,0.13h-1.27c-0.29,0-0.49-0.04-0.59-0.13
		c-0.1-0.08-0.15-0.27-0.15-0.54V12.92c0-0.28,0.05-0.46,0.15-0.54c0.1-0.08,0.3-0.13,0.59-0.13h1.34c0.29,0,0.5,0.03,0.63,0.1
		s0.27,0.25,0.43,0.54l5.52,10.46V12.92c0-0.28,0.05-0.46,0.15-0.54c0.1-0.08,0.3-0.13,0.59-0.13h1.27c0.29,0,0.49,0.04,0.59,0.13
		c0.1,0.08,0.15,0.26,0.15,0.54v15.09c0,0.28-0.05,0.46-0.15,0.54c-0.1,0.08-0.3,0.13-0.59,0.13h-1.34c-0.29,0-0.5-0.03-0.63-0.1
		s-0.27-0.25-0.43-0.54L219.85,17.58z"/>
	<path d="M231.42,18.89c0-1.58,0.18-2.8,0.53-3.65c0.45-1.11,1.17-1.95,2.16-2.52s2.18-0.85,3.57-0.85c0.79,0,1.53,0.1,2.23,0.29
		s1.31,0.49,1.83,0.89c0.52,0.4,0.94,0.91,1.25,1.53c0.31,0.62,0.46,1.37,0.46,2.23c0,0.22-0.05,0.36-0.16,0.44
		c-0.11,0.08-0.3,0.12-0.58,0.12h-1.43c-0.28,0-0.47-0.04-0.57-0.12c-0.1-0.08-0.16-0.23-0.17-0.46c-0.06-0.88-0.34-1.51-0.83-1.89
		s-1.23-0.58-2.22-0.58c-0.57,0-1.05,0.07-1.45,0.2s-0.73,0.36-0.98,0.68s-0.44,0.75-0.57,1.29c-0.12,0.54-0.18,1.22-0.18,2.03v3.88
		c0,1.55,0.26,2.65,0.77,3.28s1.32,0.95,2.41,0.95c1.02,0,1.79-0.26,2.31-0.79c0.52-0.52,0.78-1.42,0.78-2.68v-0.44h-1.78
		c-0.28,0-0.46-0.05-0.54-0.15c-0.08-0.1-0.13-0.3-0.13-0.59v-1.02c0-0.29,0.04-0.49,0.13-0.59c0.08-0.1,0.27-0.15,0.54-0.15h3.9
		c0.29,0,0.49,0.04,0.59,0.13c0.1,0.08,0.15,0.27,0.15,0.54v2.61c0,0.75-0.12,1.47-0.36,2.13c-0.24,0.67-0.6,1.26-1.1,1.77
		c-0.49,0.51-1.12,0.91-1.87,1.2s-1.64,0.44-2.65,0.44c-1.49,0-2.67-0.27-3.54-0.82c-0.87-0.55-1.53-1.32-1.97-2.32
		c-0.2-0.45-0.34-0.94-0.42-1.49c-0.08-0.55-0.12-1.27-0.12-2.16V18.89z"/>
</g>
<g>
	<polyline points="257.75,41.26 1,41.26 1,39.78 257.75,39.78 257.75,41.26 	"/>
</g>
<g>
	<path d="M258.34,41.26h-0.1v-1.48h0.1V41.26 M0.5,41.26H0v-1.48h0.5V41.26"/>
</g>
<g>
	<path d="M258.24,41.26h-0.49v-1.48h0.49V41.26 M1,41.26H0.5v-1.48H1V41.26"/>
</g>
<g>
	<path d="M248,144.12h-0.24c3.42,0,6.65-1.6,8.73-4.32C254.52,142.52,251.36,144.12,248,144.12"/>
</g>
<g>
	<path d="M247.75,143.12H11c-5.52,0-10-4.48-10-10V101h256.75v32.13c0,5.52-4.48,10-10,10"/>
</g>
<g>
	<path d="M247.75,144.12H11.08c-4.02-0.06-7.65-2.42-9.35-6.06c1.83,3.42,5.39,5.56,9.27,5.56h236.75c5.8-0.01,10.49-4.7,10.49-10.5
		V101h0.25v32.63c0.01,2.22-0.69,4.39-2,6.18c-2.08,2.72-5.31,4.32-8.73,4.32"/>
</g>
<g>
	<path d="M247.75,143.62H11c-5.44,0.22-10.02-4.01-10.24-9.44c-0.01-0.19-0.01-0.37-0.01-0.56V101H1v32.13c0,5.52,4.48,10,10,10
		h236.75c5.52,0,10-4.48,10-10V101h0.49v32.13c0,5.8-4.69,10.49-10.49,10.5"/>
</g>
<g>
	<rect x="79.75" y="65.83" class="st2" width="4.14" height="11.12"/>
</g>
<g>
	<defs>
		<polyline id="SVGID_1_" points="83.89,76.95 79.75,76.95 79.75,65.83 83.89,65.83 83.89,76.95 		"/>
	</defs>
	<clipPath id="SVGID_00000087382120913366189220000015597593077032796083_">
		<use xlink:href="#SVGID_1_"  style="overflow:visible;"/>
	</clipPath>
	<g style="clip-path:url(#SVGID_00000087382120913366189220000015597593077032796083_);">
		<g class="st1">
			<path d="M83.88,76.47c0,0.2-0.04,0.33-0.11,0.39s-0.21,0.09-0.42,0.09h-0.91c-0.21,0-0.35-0.03-0.42-0.09s-0.11-0.19-0.11-0.39
				v-8.85h-1.69c-0.2,0-0.33-0.04-0.39-0.11c-0.06-0.07-0.09-0.21-0.09-0.42v-0.73c0-0.21,0.03-0.35,0.09-0.42
				c0.06-0.07,0.19-0.11,0.39-0.11h3.13c0.21,0,0.35,0.03,0.42,0.09s0.11,0.19,0.11,0.39V76.47z"/>
		</g>
	</g>
</g>
<g>
	<path d="M82.91,87.45L82.91,87.45 M82.91,87.45c-9.05,0-16.39-7.34-16.39-16.39c0-9.05,7.34-16.39,16.39-16.39
		S99.3,62.01,99.3,71.06S91.96,87.45,82.91,87.45L82.91,87.45v-1.37c8.28-0.01,14.99-6.73,14.98-15.02s-6.73-14.99-15.02-14.98
		c-8.28,0.01-14.99,6.73-14.98,15.02c0,3.97,1.58,7.77,4.39,10.58c2.82,2.82,6.64,4.4,10.63,4.4V87.45L82.91,87.45"/>
</g>
<g>
	<rect x="115.06" y="65.6" class="st2" width="7.41" height="11.35"/>
</g>
<g>
	<defs>
		<polyline id="SVGID_00000168796514584325912530000015478695381015577505_" points="122.47,76.95 115.06,76.95 115.06,65.6 
			122.47,65.6 122.47,76.95 		"/>
	</defs>
	<clipPath id="SVGID_00000047020456738707552930000010998185817416021947_">
		<use xlink:href="#SVGID_00000168796514584325912530000015478695381015577505_"  style="overflow:visible;"/>
	</clipPath>
	<g style="clip-path:url(#SVGID_00000047020456738707552930000010998185817416021947_);">
		<g class="st1">
			<path d="M118.91,65.6c1.15,0,2.03,0.26,2.64,0.79s0.92,1.27,0.92,2.24v0.5c0,0.4-0.07,0.76-0.22,1.1
				c-0.15,0.34-0.35,0.65-0.6,0.93s-0.53,0.54-0.85,0.77s-0.65,0.45-0.98,0.65l-1.32,0.79c-0.3,0.18-0.53,0.34-0.7,0.49
				c-0.17,0.15-0.3,0.29-0.39,0.42c-0.09,0.13-0.14,0.26-0.17,0.4c-0.02,0.13-0.03,0.26-0.03,0.4v0.07h4.78
				c0.2,0,0.33,0.04,0.39,0.11c0.06,0.07,0.09,0.21,0.09,0.42v0.76c0,0.21-0.03,0.35-0.09,0.42c-0.06,0.07-0.19,0.11-0.39,0.11h-6.4
				c-0.21,0-0.35-0.03-0.42-0.09c-0.07-0.06-0.11-0.19-0.11-0.39v-0.81c0-0.5,0.06-0.94,0.18-1.33c0.12-0.39,0.28-0.74,0.49-1.04
				c0.2-0.3,0.44-0.57,0.72-0.79c0.28-0.23,0.57-0.43,0.88-0.6l1.41-0.81c0.22-0.13,0.43-0.27,0.64-0.41
				c0.2-0.14,0.38-0.29,0.54-0.47c0.15-0.18,0.28-0.37,0.37-0.59c0.09-0.21,0.14-0.45,0.14-0.72v-0.17c0-0.97-0.53-1.46-1.59-1.46
				c-0.53,0-0.92,0.1-1.17,0.31c-0.25,0.21-0.41,0.58-0.49,1.11c-0.02,0.13-0.07,0.22-0.14,0.27c-0.07,0.05-0.2,0.07-0.37,0.07
				h-0.94c-0.21,0-0.35-0.03-0.42-0.1c-0.07-0.07-0.11-0.2-0.11-0.41c0-0.34,0.07-0.69,0.2-1.03c0.13-0.35,0.31-0.63,0.53-0.85
				C116.61,65.95,117.61,65.6,118.91,65.6z"/>
		</g>
	</g>
</g>
<g>
	<path d="M119.35,87.45L119.35,87.45 M119.35,87.45c-9.05,0-16.39-7.34-16.39-16.39c0-9.05,7.34-16.39,16.39-16.39
		s16.39,7.34,16.39,16.39S128.4,87.45,119.35,87.45L119.35,87.45v-1.37c8.28,0,15-6.72,14.99-15.01c0-8.28-6.72-15-15.01-14.99
		c-8.28,0-15,6.72-14.99,15.01c0,3.97,1.58,7.78,4.39,10.59c2.82,2.82,6.64,4.4,10.62,4.4V87.45L119.35,87.45"/>
</g>
<g>
	<rect x="151.48" y="65.6" class="st2" width="7.66" height="11.58"/>
</g>
<g>
	<defs>
		<polyline id="SVGID_00000004532907556391648540000006983949032198633106_" points="159.14,77.18 151.48,77.18 151.48,65.6 
			159.14,65.6 159.14,77.18 		"/>
	</defs>
	<clipPath id="SVGID_00000167397898575695622470000003666972190091842470_">
		<use xlink:href="#SVGID_00000004532907556391648540000006983949032198633106_"  style="overflow:visible;"/>
	</clipPath>
	<g style="clip-path:url(#SVGID_00000167397898575695622470000003666972190091842470_);">
		<g class="st1">
			<path d="M155.49,65.6c1.13,0,2,0.24,2.6,0.73c0.6,0.49,0.9,1.2,0.9,2.13v0.33c0,0.53-0.15,0.99-0.45,1.38
				c-0.3,0.39-0.71,0.7-1.24,0.92c0.59,0.16,1.05,0.44,1.36,0.84s0.47,0.93,0.47,1.55v0.61c0,0.97-0.34,1.73-1.02,2.27
				c-0.68,0.54-1.6,0.81-2.77,0.81c-0.71,0-1.33-0.08-1.86-0.26c-0.54-0.17-0.96-0.42-1.28-0.74c-0.22-0.22-0.4-0.5-0.53-0.83
				c-0.13-0.34-0.2-0.67-0.2-1c0-0.21,0.04-0.35,0.11-0.41c0.07-0.07,0.21-0.1,0.42-0.1h0.94c0.19,0,0.32,0.02,0.39,0.07
				c0.07,0.05,0.11,0.14,0.12,0.27c0.08,0.87,0.68,1.31,1.8,1.31c0.57,0,1.01-0.13,1.32-0.38s0.46-0.63,0.46-1.12v-0.4
				c0-1.04-0.57-1.55-1.7-1.55h-0.5c-0.2,0-0.33-0.04-0.39-0.11c-0.06-0.07-0.09-0.21-0.09-0.42v-0.73c0-0.21,0.03-0.35,0.09-0.42
				c0.06-0.07,0.19-0.11,0.39-0.11h0.3c1.19,0,1.79-0.5,1.79-1.49v-0.2c0-0.9-0.54-1.36-1.62-1.36c-0.54,0-0.95,0.11-1.23,0.32
				c-0.28,0.22-0.46,0.57-0.54,1.07c-0.02,0.13-0.07,0.22-0.14,0.27c-0.07,0.05-0.2,0.08-0.37,0.08h-0.88
				c-0.21,0-0.35-0.03-0.42-0.1c-0.07-0.07-0.11-0.2-0.11-0.41c0-0.33,0.06-0.65,0.19-0.97c0.13-0.31,0.31-0.59,0.54-0.82
				c0.35-0.36,0.77-0.63,1.26-0.79C154.12,65.69,154.74,65.6,155.49,65.6z"/>
		</g>
	</g>
</g>
<g>
	<path d="M155.8,87.45L155.8,87.45 M155.8,87.45c-9.05,0-16.39-7.34-16.39-16.39c0-9.05,7.34-16.39,16.39-16.39
		s16.39,7.34,16.39,16.39S164.85,87.45,155.8,87.45L155.8,87.45v-1.37c8.28,0,15-6.72,14.99-15.01c0-8.28-6.72-15-15.01-14.99
		c-8.28,0-15,6.72-14.99,15.01c0,3.97,1.58,7.78,4.39,10.59c2.82,2.82,6.64,4.4,10.62,4.4V87.45L155.8,87.45"/>
</g>
<g>
	<rect x="187.82" y="65.83" class="st2" width="7.94" height="11.12"/>
</g>
<g>
	<defs>
		<polyline id="SVGID_00000064312672018960038100000013709281494258192283_" points="195.76,76.95 187.82,76.95 187.82,65.83 
			195.76,65.83 195.76,76.95 		"/>
	</defs>
	<clipPath id="SVGID_00000098218293463279554980000018110353012348121524_">
		<use xlink:href="#SVGID_00000064312672018960038100000013709281494258192283_"  style="overflow:visible;"/>
	</clipPath>
	<g style="clip-path:url(#SVGID_00000098218293463279554980000018110353012348121524_);">
		<g class="st1">
			<path d="M194.09,65.83c0.21,0,0.35,0.03,0.42,0.09c0.07,0.06,0.11,0.19,0.11,0.39v6.71h0.66c0.2,0,0.33,0.04,0.39,0.11
				c0.06,0.07,0.09,0.21,0.09,0.42v0.68c0,0.21-0.03,0.35-0.09,0.42c-0.06,0.07-0.19,0.11-0.39,0.11h-0.66v1.7
				c0,0.2-0.04,0.33-0.11,0.39c-0.07,0.06-0.21,0.09-0.42,0.09h-0.84c-0.21,0-0.35-0.03-0.42-0.09c-0.07-0.06-0.11-0.19-0.11-0.39
				v-1.7h-4.42c-0.2,0-0.33-0.04-0.39-0.11c-0.06-0.07-0.09-0.21-0.09-0.42v-1.16c0-0.13,0.01-0.26,0.03-0.37
				c0.02-0.12,0.08-0.23,0.17-0.36l4.17-6.05c0.13-0.19,0.23-0.31,0.31-0.37c0.07-0.06,0.18-0.09,0.34-0.09H194.09z M192.71,73.03
				v-4.65l-3.23,4.65H192.71z"/>
		</g>
	</g>
</g>
<g>
	<path d="M192.25,87.45L192.25,87.45 M192.25,87.45c-9.05,0-16.39-7.34-16.39-16.39c0-9.05,7.34-16.39,16.39-16.39
		s16.39,7.34,16.39,16.39S201.3,87.45,192.25,87.45L192.25,87.45v-1.37c8.28-0.01,14.99-6.73,14.98-15.02s-6.73-14.99-15.02-14.98
		c-8.28,0.01-14.99,6.73-14.98,15.02c0,3.97,1.58,7.77,4.39,10.58c2.82,2.82,6.64,4.4,10.63,4.4V87.45L192.25,87.45"/>
</g>
<g>
	<rect x="224.41" y="65.83" class="st2" width="7.36" height="11.35"/>
</g>
<g>
	<defs>
		<polyline id="SVGID_00000085252339112018955750000013376214599077488062_" points="231.77,77.18 224.41,77.18 224.41,65.83 
			231.77,65.83 231.77,77.18 		"/>
	</defs>
	<clipPath id="SVGID_00000112592980037269286130000014859473370726526876_">
		<use xlink:href="#SVGID_00000085252339112018955750000013376214599077488062_"  style="overflow:visible;"/>
	</clipPath>
	<g style="clip-path:url(#SVGID_00000112592980037269286130000014859473370726526876_);">
		<g class="st1">
			<path d="M231.77,73.91c0,1.04-0.32,1.84-0.97,2.41c-0.65,0.57-1.54,0.86-2.67,0.86c-1.38,0-2.38-0.32-3.01-0.96
				c-0.22-0.22-0.39-0.49-0.52-0.79c-0.13-0.31-0.19-0.62-0.19-0.94c0-0.21,0.04-0.35,0.11-0.41c0.07-0.07,0.21-0.1,0.42-0.1h0.94
				c0.18,0,0.3,0.03,0.37,0.08c0.07,0.05,0.12,0.14,0.14,0.27c0.07,0.42,0.23,0.72,0.49,0.9c0.26,0.18,0.65,0.27,1.18,0.27
				c1.14,0,1.7-0.56,1.7-1.69v-0.63c0-1.19-0.53-1.79-1.6-1.79c-0.19,0-0.39,0.02-0.61,0.07s-0.41,0.1-0.56,0.18
				c-0.21,0.1-0.36,0.16-0.46,0.19s-0.21,0.04-0.36,0.04h-0.89c-0.22,0-0.36-0.03-0.43-0.1c-0.07-0.07-0.1-0.19-0.1-0.38v-5.08
				c0-0.19,0.03-0.31,0.1-0.38s0.21-0.1,0.43-0.1h5.67c0.19,0,0.31,0.03,0.38,0.1c0.07,0.07,0.1,0.21,0.1,0.43v0.73
				c0,0.22-0.03,0.36-0.1,0.43c-0.07,0.07-0.19,0.1-0.38,0.1h-4.4v2.58c0.35-0.17,0.69-0.29,1.02-0.36s0.67-0.12,1.03-0.12
				c2.11,0,3.16,1.15,3.16,3.44V73.91z"/>
		</g>
	</g>
</g>
<g>
	<path d="M228.69,87.45L228.69,87.45 M228.69,87.45c-9.05-0.01-16.39-7.35-16.38-16.4c0.01-9.05,7.35-16.39,16.4-16.38
		c9.05,0.01,16.38,7.34,16.38,16.39c0,9.05-7.34,16.39-16.39,16.39C228.7,87.45,228.69,87.45,228.69,87.45v-1.37
		c8.28,0,15-6.72,14.99-15.01c0-8.28-6.72-15-15.01-14.99c-8.28,0-15,6.72-14.99,15.01c0,3.97,1.58,7.78,4.39,10.59
		c2.82,2.82,6.64,4.4,10.62,4.4V87.45L228.69,87.45"/>
</g>
<g>
	<path d="M38.5,95.4c13.45,0,24.35-10.9,24.35-24.35c0-13.45-10.9-24.35-24.35-24.35c-13.45,0-24.35,10.9-24.35,24.35
		c0,0,0,0.01,0,0.01C14.16,84.5,25.06,95.4,38.5,95.4z"/>
</g>
<g class="st1">
	<path class="st8" d="M38.17,84.38c-3.99,0-6.65-1.61-8-4.83c-0.29-0.67-0.49-1.41-0.61-2.2c-0.12-0.79-0.18-1.81-0.18-3.06v-4.68
		c0-1.3,0.06-2.35,0.18-3.17s0.32-1.57,0.61-2.27c1.34-3.34,4.01-5.01,8-5.01c3.99,0,6.65,1.61,8,4.83c0.29,0.67,0.49,1.4,0.61,2.2
		c0.12,0.79,0.18,1.81,0.18,3.06v4.68c0,1.3-0.06,2.35-0.18,3.17c-0.12,0.82-0.32,1.57-0.61,2.27
		C44.82,82.72,42.15,84.38,38.17,84.38z M38.17,63.17c-0.79,0-1.46,0.11-2,0.32c-0.54,0.22-0.98,0.56-1.31,1.03
		c-0.34,0.47-0.58,1.08-0.72,1.84c-0.14,0.76-0.22,1.67-0.22,2.75v5.33c0,1.11,0.07,2.04,0.22,2.79c0.14,0.76,0.38,1.37,0.72,1.84
		c0.34,0.47,0.77,0.8,1.31,1.01c0.54,0.2,1.21,0.31,2,0.31s1.46-0.1,2-0.31c0.54-0.2,0.98-0.54,1.31-1.01
		c0.34-0.47,0.58-1.08,0.72-1.84c0.14-0.76,0.22-1.69,0.22-2.79v-5.33c0-1.08-0.07-2-0.22-2.75c-0.14-0.76-0.38-1.37-0.72-1.84
		c-0.34-0.47-0.77-0.81-1.31-1.03C39.62,63.28,38.96,63.17,38.17,63.17z"/>
</g>
<g class="st1">
	<path class="st8" d="M28.85,115.04c0,1.91-0.46,3.35-1.38,4.32s-2.26,1.46-4.03,1.46h-0.18c-1.77,0-3.11-0.49-4.03-1.46
		s-1.38-2.41-1.38-4.32v-9.52c0-0.25,0.04-0.42,0.13-0.5c0.09-0.09,0.28-0.13,0.57-0.13h1.27c0.29,0,0.48,0.04,0.57,0.13
		c0.09,0.09,0.13,0.25,0.13,0.5v9.5c0,2.25,0.9,3.37,2.69,3.37h0.26c1.8,0,2.69-1.12,2.69-3.37v-9.5c0-0.25,0.04-0.42,0.13-0.5
		c0.09-0.09,0.28-0.13,0.57-0.13h1.27c0.29,0,0.48,0.04,0.57,0.13c0.09,0.09,0.13,0.25,0.13,0.5V115.04z"/>
	<path class="st8" d="M34.48,114.38v5.45c0,0.25-0.04,0.42-0.13,0.5c-0.09,0.09-0.28,0.13-0.57,0.13h-1.23
		c-0.29,0-0.48-0.04-0.57-0.13c-0.09-0.09-0.13-0.26-0.13-0.5v-14.32c0-0.25,0.04-0.42,0.13-0.5c0.09-0.09,0.28-0.13,0.57-0.13h4.68
		c1.74,0,3.01,0.36,3.81,1.08c0.8,0.72,1.2,1.88,1.2,3.47v0.42c0,2.22-0.88,3.62-2.65,4.2l3.26,5.78c0.06,0.12,0.09,0.21,0.09,0.28
		c0,0.23-0.19,0.35-0.57,0.35h-1.64c-0.25,0-0.43-0.04-0.54-0.12s-0.24-0.25-0.38-0.51l-2.96-5.45H34.48z M34.48,112.11h2.74
		c0.85,0,1.44-0.17,1.79-0.51c0.35-0.34,0.53-0.93,0.53-1.76v-0.31c0-0.88-0.17-1.49-0.51-1.84c-0.34-0.35-0.95-0.53-1.81-0.53
		h-2.74V112.11z"/>
	<path class="st8" d="M44.66,111.19c0-1.5,0.17-2.66,0.5-3.46c0.42-1.05,1.11-1.85,2.05-2.39c0.94-0.54,2.07-0.81,3.38-0.81
		c0.74,0,1.45,0.09,2.11,0.27s1.24,0.46,1.74,0.84s0.89,0.86,1.18,1.46c0.29,0.59,0.44,1.3,0.44,2.11c0,0.2-0.05,0.34-0.15,0.42
		c-0.1,0.07-0.28,0.11-0.55,0.11H54c-0.26,0-0.44-0.04-0.54-0.11c-0.1-0.07-0.15-0.22-0.16-0.44c-0.06-0.83-0.32-1.43-0.79-1.79
		c-0.47-0.36-1.17-0.55-2.1-0.55c-0.54,0-1,0.06-1.38,0.19c-0.38,0.12-0.69,0.34-0.93,0.65c-0.24,0.31-0.42,0.72-0.54,1.23
		s-0.17,1.15-0.17,1.93v3.68c0,1.47,0.24,2.51,0.73,3.11c0.49,0.6,1.25,0.9,2.29,0.9c0.96,0,1.69-0.25,2.19-0.74
		s0.74-1.34,0.74-2.54v-0.42h-1.69c-0.26,0-0.43-0.05-0.51-0.14c-0.08-0.09-0.12-0.28-0.12-0.56v-0.96c0-0.28,0.04-0.46,0.12-0.56
		s0.25-0.14,0.51-0.14h3.7c0.28,0,0.46,0.04,0.56,0.12c0.09,0.08,0.14,0.25,0.14,0.51v2.47c0,0.71-0.11,1.39-0.34,2.02
		c-0.23,0.63-0.57,1.19-1.04,1.67c-0.47,0.48-1.06,0.86-1.77,1.14c-0.72,0.28-1.55,0.42-2.52,0.42c-1.42,0-2.54-0.26-3.36-0.78
		c-0.82-0.52-1.45-1.25-1.87-2.2c-0.19-0.42-0.32-0.89-0.39-1.41c-0.07-0.52-0.11-1.2-0.11-2.05V111.19z"/>
	<path class="st8" d="M68.41,119.77c0,0.28-0.04,0.46-0.12,0.56c-0.08,0.1-0.25,0.14-0.51,0.14h-8.25c-0.28,0-0.46-0.04-0.56-0.12
		c-0.1-0.08-0.14-0.25-0.14-0.51v-14.32c0-0.26,0.05-0.43,0.14-0.51c0.09-0.08,0.28-0.12,0.56-0.12h8.17c0.26,0,0.43,0.05,0.51,0.14
		c0.08,0.09,0.12,0.28,0.12,0.56v0.96c0,0.28-0.04,0.46-0.12,0.56c-0.08,0.1-0.25,0.14-0.51,0.14h-6.19v4.03h5.63
		c0.26,0,0.43,0.05,0.51,0.14c0.08,0.1,0.12,0.28,0.12,0.56v0.96c0,0.28-0.04,0.46-0.12,0.56s-0.25,0.14-0.51,0.14h-5.63v4.47h6.28
		c0.26,0,0.43,0.05,0.51,0.14c0.08,0.09,0.12,0.28,0.12,0.56V119.77z"/>
	<path class="st8" d="M73.77,109.94v9.89c0,0.26-0.05,0.43-0.14,0.51s-0.28,0.12-0.56,0.12h-1.2c-0.28,0-0.46-0.04-0.56-0.12
		c-0.1-0.08-0.14-0.25-0.14-0.51v-14.32c0-0.26,0.05-0.43,0.14-0.51c0.09-0.08,0.28-0.12,0.56-0.12h1.27c0.28,0,0.48,0.03,0.6,0.1
		s0.26,0.24,0.41,0.51l5.23,9.92v-9.89c0-0.26,0.05-0.43,0.14-0.51c0.09-0.08,0.28-0.12,0.56-0.12h1.2c0.28,0,0.46,0.04,0.56,0.12
		c0.09,0.08,0.14,0.25,0.14,0.51v14.32c0,0.26-0.05,0.43-0.14,0.51c-0.1,0.08-0.28,0.12-0.56,0.12h-1.27c-0.28,0-0.48-0.03-0.6-0.1
		c-0.12-0.07-0.26-0.24-0.41-0.51L73.77,109.94z"/>
	<path class="st8" d="M88.46,107.25h-3.83c-0.26,0-0.43-0.05-0.51-0.14c-0.08-0.09-0.12-0.28-0.12-0.56v-0.96
		c0-0.28,0.04-0.46,0.12-0.56s0.25-0.14,0.51-0.14h10.33c0.26,0,0.43,0.05,0.51,0.14s0.12,0.28,0.12,0.56v0.96
		c0,0.28-0.04,0.46-0.12,0.56c-0.08,0.1-0.25,0.14-0.51,0.14h-3.83v12.59c0,0.26-0.05,0.43-0.14,0.51c-0.1,0.08-0.28,0.12-0.56,0.12
		h-1.27c-0.28,0-0.46-0.04-0.56-0.12c-0.09-0.08-0.14-0.25-0.14-0.51V107.25z"/>
	<path class="st8" d="M104.66,119.84c0,0.26-0.05,0.43-0.14,0.51c-0.1,0.08-0.28,0.12-0.56,0.12h-1.27c-0.28,0-0.46-0.04-0.56-0.12
		c-0.1-0.08-0.14-0.25-0.14-0.51v-14.32c0-0.26,0.05-0.43,0.14-0.51c0.09-0.08,0.28-0.12,0.56-0.12h1.27c0.28,0,0.46,0.04,0.56,0.12
		c0.09,0.08,0.14,0.25,0.14,0.51V119.84z"/>
	<path class="st8" d="M113.72,115.92c-0.29,0-0.49-0.04-0.58-0.12c-0.1-0.08-0.2-0.25-0.32-0.51l-2.41-5.23v9.79
		c0,0.26-0.05,0.43-0.14,0.51s-0.28,0.12-0.56,0.12h-1.2c-0.28,0-0.46-0.04-0.56-0.12c-0.1-0.08-0.14-0.25-0.14-0.51v-14.32
		c0-0.26,0.05-0.43,0.14-0.51c0.09-0.08,0.28-0.12,0.56-0.12h1.27c0.29,0,0.5,0.04,0.61,0.11c0.12,0.07,0.24,0.25,0.37,0.53
		l3.57,7.68l3.59-7.68c0.13-0.28,0.25-0.45,0.37-0.53c0.12-0.07,0.32-0.11,0.61-0.11h1.27c0.28,0,0.46,0.04,0.56,0.12
		s0.14,0.25,0.14,0.51v14.32c0,0.26-0.05,0.43-0.14,0.51s-0.28,0.12-0.56,0.12h-1.2c-0.28,0-0.46-0.04-0.56-0.12
		s-0.14-0.25-0.14-0.51v-9.79l-2.41,5.23c-0.12,0.26-0.22,0.43-0.32,0.51c-0.09,0.08-0.29,0.12-0.58,0.12H113.72z"/>
	<path class="st8" d="M126.65,114.69v5.14c0,0.26-0.05,0.43-0.14,0.51c-0.1,0.08-0.28,0.12-0.56,0.12h-1.23
		c-0.28,0-0.46-0.04-0.56-0.12c-0.1-0.08-0.14-0.25-0.14-0.51v-14.32c0-0.26,0.05-0.43,0.14-0.51c0.09-0.08,0.28-0.12,0.56-0.12
		h4.36c0.86,0,1.62,0.08,2.28,0.25c0.66,0.17,1.2,0.44,1.64,0.82c0.44,0.38,0.77,0.87,0.99,1.47c0.22,0.6,0.33,1.34,0.33,2.21v0.44
		c0,1.59-0.44,2.76-1.32,3.5c-0.88,0.74-2.19,1.12-3.91,1.12H126.65z M126.65,112.41h2.43c0.55,0,1-0.06,1.32-0.19
		s0.58-0.3,0.75-0.51s0.29-0.47,0.35-0.77c0.06-0.29,0.09-0.6,0.09-0.92v-0.31c0-0.36-0.03-0.7-0.09-1.01
		c-0.06-0.31-0.18-0.58-0.35-0.81s-0.43-0.42-0.75-0.55c-0.33-0.13-0.77-0.2-1.32-0.2h-2.43V112.41z"/>
	<path class="st8" d="M139.15,114.38v5.45c0,0.25-0.04,0.42-0.13,0.5c-0.09,0.09-0.28,0.13-0.57,0.13h-1.23
		c-0.29,0-0.48-0.04-0.57-0.13c-0.09-0.09-0.13-0.26-0.13-0.5v-14.32c0-0.25,0.04-0.42,0.13-0.5c0.09-0.09,0.28-0.13,0.57-0.13h4.68
		c1.74,0,3.01,0.36,3.81,1.08c0.8,0.72,1.2,1.88,1.2,3.47v0.42c0,2.22-0.88,3.62-2.65,4.2l3.26,5.78c0.06,0.12,0.09,0.21,0.09,0.28
		c0,0.23-0.19,0.35-0.57,0.35h-1.64c-0.25,0-0.43-0.04-0.54-0.12s-0.24-0.25-0.38-0.51l-2.96-5.45H139.15z M139.15,112.11h2.74
		c0.85,0,1.44-0.17,1.79-0.51s0.53-0.93,0.53-1.76v-0.31c0-0.88-0.17-1.49-0.51-1.84c-0.34-0.35-0.95-0.53-1.81-0.53h-2.74V112.11z"
		/>
	<path class="st8" d="M155.07,104.53c1.3,0,2.39,0.25,3.27,0.75s1.54,1.24,1.96,2.22c0.19,0.42,0.32,0.9,0.39,1.42
		c0.07,0.53,0.11,1.2,0.11,2.04v3.2c0,0.76-0.04,1.41-0.12,1.96c-0.08,0.55-0.21,1.05-0.38,1.5c-0.42,1.05-1.08,1.85-1.96,2.39
		c-0.88,0.54-1.97,0.81-3.27,0.81s-2.39-0.25-3.27-0.76c-0.88-0.5-1.54-1.24-1.96-2.22c-0.19-0.42-0.32-0.9-0.39-1.42
		s-0.11-1.2-0.11-2.04v-3.2c0-0.76,0.04-1.41,0.12-1.96c0.08-0.55,0.21-1.05,0.38-1.5c0.42-1.05,1.08-1.85,1.96-2.39
		S153.77,104.53,155.07,104.53z M155.07,106.88c-1.08,0-1.85,0.31-2.31,0.92c-0.46,0.61-0.69,1.63-0.69,3.04v3.68
		c0,1.42,0.23,2.43,0.69,3.04c0.46,0.61,1.23,0.92,2.31,0.92s1.85-0.31,2.31-0.92c0.46-0.61,0.69-1.63,0.69-3.04v-3.68
		c0-1.42-0.23-2.43-0.69-3.04C156.92,107.18,156.15,106.88,155.07,106.88z"/>
</g>
<g class="st1">
	<path class="st8" d="M162,105.52c-0.03-0.12-0.04-0.2-0.04-0.24c0-0.26,0.16-0.39,0.48-0.39h1.58c0.28,0,0.46,0.04,0.55,0.12
		s0.17,0.25,0.24,0.51l3.35,11.65l3.35-11.65c0.07-0.26,0.15-0.43,0.24-0.51c0.09-0.08,0.27-0.12,0.55-0.12h1.51
		c0.32,0,0.48,0.13,0.48,0.39c0,0.04-0.01,0.12-0.04,0.24l-4.44,14.56c-0.06,0.17-0.14,0.28-0.24,0.33
		c-0.1,0.04-0.26,0.07-0.46,0.07h-1.95c-0.2,0-0.36-0.02-0.46-0.07c-0.1-0.04-0.18-0.15-0.24-0.33L162,105.52z"/>
	<path class="st8" d="M185.75,119.77c0,0.28-0.04,0.46-0.12,0.56c-0.08,0.1-0.25,0.14-0.51,0.14h-8.25c-0.28,0-0.46-0.04-0.56-0.12
		s-0.14-0.25-0.14-0.51v-14.32c0-0.26,0.05-0.43,0.14-0.51s0.28-0.12,0.56-0.12h8.17c0.26,0,0.43,0.05,0.51,0.14
		c0.08,0.09,0.12,0.28,0.12,0.56v0.96c0,0.28-0.04,0.46-0.12,0.56c-0.08,0.1-0.25,0.14-0.51,0.14h-6.2v4.03h5.63
		c0.26,0,0.43,0.05,0.51,0.14c0.08,0.1,0.12,0.28,0.12,0.56v0.96c0,0.28-0.04,0.46-0.12,0.56s-0.25,0.14-0.51,0.14h-5.63v4.47h6.28
		c0.26,0,0.43,0.05,0.51,0.14s0.12,0.28,0.12,0.56V119.77z"/>
	<path class="st8" d="M194.42,115.92c-0.29,0-0.49-0.04-0.58-0.12c-0.09-0.08-0.2-0.25-0.32-0.51l-2.41-5.23v9.79
		c0,0.26-0.05,0.43-0.14,0.51s-0.28,0.12-0.56,0.12h-1.2c-0.28,0-0.46-0.04-0.56-0.12c-0.1-0.08-0.14-0.25-0.14-0.51v-14.32
		c0-0.26,0.05-0.43,0.14-0.51c0.09-0.08,0.28-0.12,0.56-0.12h1.27c0.29,0,0.5,0.04,0.61,0.11c0.12,0.07,0.24,0.25,0.37,0.53
		l3.57,7.68l3.59-7.68c0.13-0.28,0.25-0.45,0.37-0.53c0.12-0.07,0.32-0.11,0.61-0.11h1.27c0.28,0,0.46,0.04,0.56,0.12
		s0.14,0.25,0.14,0.51v14.32c0,0.26-0.05,0.43-0.14,0.51s-0.28,0.12-0.56,0.12h-1.2c-0.28,0-0.46-0.04-0.56-0.12
		s-0.14-0.25-0.14-0.51v-9.79l-2.41,5.23c-0.12,0.26-0.22,0.43-0.32,0.51c-0.09,0.08-0.29,0.12-0.58,0.12H194.42z"/>
	<path class="st8" d="M214.32,119.77c0,0.28-0.04,0.46-0.12,0.56c-0.08,0.1-0.25,0.14-0.51,0.14h-8.25c-0.28,0-0.46-0.04-0.56-0.12
		s-0.14-0.25-0.14-0.51v-14.32c0-0.26,0.05-0.43,0.14-0.51s0.28-0.12,0.56-0.12h8.17c0.26,0,0.43,0.05,0.51,0.14
		c0.08,0.09,0.12,0.28,0.12,0.56v0.96c0,0.28-0.04,0.46-0.12,0.56c-0.08,0.1-0.25,0.14-0.51,0.14h-6.2v4.03h5.63
		c0.26,0,0.43,0.05,0.51,0.14c0.08,0.1,0.12,0.28,0.12,0.56v0.96c0,0.28-0.04,0.46-0.12,0.56s-0.25,0.14-0.51,0.14h-5.63v4.47h6.28
		c0.26,0,0.43,0.05,0.51,0.14s0.12,0.28,0.12,0.56V119.77z"/>
	<path class="st8" d="M219.68,109.94v9.89c0,0.26-0.05,0.43-0.14,0.51s-0.28,0.12-0.56,0.12h-1.2c-0.28,0-0.46-0.04-0.56-0.12
		s-0.14-0.25-0.14-0.51v-14.32c0-0.26,0.05-0.43,0.14-0.51s0.28-0.12,0.56-0.12h1.27c0.28,0,0.48,0.03,0.6,0.1s0.26,0.24,0.41,0.51
		l5.23,9.92v-9.89c0-0.26,0.05-0.43,0.14-0.51s0.28-0.12,0.56-0.12h1.2c0.28,0,0.46,0.04,0.56,0.12s0.14,0.25,0.14,0.51v14.32
		c0,0.26-0.05,0.43-0.14,0.51s-0.28,0.12-0.56,0.12h-1.27c-0.28,0-0.48-0.03-0.6-0.1s-0.26-0.24-0.41-0.51L219.68,109.94z"/>
	<path class="st8" d="M234.37,107.25h-3.83c-0.26,0-0.43-0.05-0.51-0.14c-0.08-0.09-0.12-0.28-0.12-0.56v-0.96
		c0-0.28,0.04-0.46,0.12-0.56s0.25-0.14,0.51-0.14h10.33c0.26,0,0.43,0.05,0.51,0.14s0.12,0.28,0.12,0.56v0.96
		c0,0.28-0.04,0.46-0.12,0.56c-0.08,0.1-0.25,0.14-0.51,0.14h-3.83v12.59c0,0.26-0.05,0.43-0.14,0.51c-0.1,0.08-0.28,0.12-0.56,0.12
		h-1.27c-0.28,0-0.46-0.04-0.56-0.12c-0.09-0.08-0.14-0.25-0.14-0.51V107.25z"/>
</g>
<g class="st1">
	<path class="st8" d="M75.53,129.94v9.89c0,0.26-0.05,0.43-0.14,0.51s-0.28,0.12-0.56,0.12h-1.2c-0.28,0-0.46-0.04-0.56-0.12
		c-0.1-0.08-0.14-0.25-0.14-0.51v-14.32c0-0.26,0.05-0.43,0.14-0.51c0.09-0.08,0.28-0.12,0.56-0.12h1.27c0.28,0,0.48,0.03,0.6,0.1
		s0.26,0.24,0.41,0.51l5.23,9.92v-9.89c0-0.26,0.05-0.43,0.14-0.51c0.09-0.08,0.28-0.12,0.56-0.12h1.2c0.28,0,0.46,0.04,0.56,0.12
		c0.09,0.08,0.14,0.25,0.14,0.51v14.32c0,0.26-0.05,0.43-0.14,0.51c-0.1,0.08-0.28,0.12-0.56,0.12h-1.27c-0.28,0-0.48-0.03-0.6-0.1
		c-0.12-0.07-0.26-0.24-0.41-0.51L75.53,129.94z"/>
	<path class="st8" d="M96.48,139.77c0,0.28-0.04,0.46-0.12,0.56c-0.08,0.1-0.25,0.14-0.51,0.14h-8.25c-0.28,0-0.46-0.04-0.56-0.12
		c-0.1-0.08-0.14-0.25-0.14-0.51v-14.32c0-0.26,0.05-0.43,0.14-0.51c0.09-0.08,0.28-0.12,0.56-0.12h8.17c0.26,0,0.43,0.05,0.51,0.14
		c0.08,0.09,0.12,0.28,0.12,0.56v0.96c0,0.28-0.04,0.46-0.12,0.56c-0.08,0.1-0.25,0.14-0.51,0.14h-6.19v4.03h5.63
		c0.26,0,0.43,0.05,0.51,0.14c0.08,0.1,0.12,0.28,0.12,0.56v0.96c0,0.28-0.04,0.46-0.12,0.56s-0.25,0.14-0.51,0.14h-5.63v4.47h6.28
		c0.26,0,0.43,0.05,0.51,0.14c0.08,0.09,0.12,0.28,0.12,0.56V139.77z"/>
	<path class="st8" d="M107.23,135.87c0.01-0.22,0.07-0.37,0.16-0.44c0.09-0.07,0.27-0.11,0.54-0.11h1.31c0.28,0,0.46,0.04,0.56,0.12
		c0.09,0.08,0.14,0.24,0.14,0.47c0,0.79-0.1,1.44-0.28,1.96c-0.19,0.52-0.5,1-0.94,1.46c-0.96,0.99-2.42,1.49-4.38,1.49
		c-1.2,0-2.22-0.25-3.06-0.76c-0.85-0.5-1.49-1.24-1.93-2.22c-0.19-0.42-0.32-0.89-0.39-1.4c-0.07-0.51-0.11-1.2-0.11-2.06v-3.2
		c0-0.79,0.04-1.45,0.12-1.97c0.08-0.53,0.21-1.02,0.38-1.49c0.39-1.04,1.04-1.83,1.94-2.38c0.9-0.55,2.01-0.82,3.34-0.82
		c1.87,0,3.25,0.49,4.16,1.47c0.42,0.45,0.72,0.94,0.9,1.47s0.26,1.16,0.26,1.9c0,0.23-0.05,0.39-0.14,0.47
		c-0.1,0.08-0.28,0.12-0.56,0.12h-1.36c-0.26,0-0.44-0.04-0.54-0.11c-0.1-0.07-0.15-0.22-0.16-0.44c-0.03-0.92-0.25-1.58-0.66-1.97
		c-0.41-0.39-1.09-0.59-2.04-0.59c-1.07,0-1.82,0.3-2.25,0.91c-0.44,0.61-0.66,1.63-0.66,3.08v3.68c0,1.4,0.22,2.41,0.67,3.03
		c0.44,0.62,1.19,0.93,2.22,0.93c0.92,0,1.6-0.21,2.05-0.63C106.96,137.42,107.2,136.76,107.23,135.87z"/>
	<path class="st8" d="M122.02,139.77c0,0.28-0.04,0.46-0.12,0.56c-0.08,0.1-0.25,0.14-0.51,0.14h-8.25c-0.28,0-0.46-0.04-0.56-0.12
		c-0.1-0.08-0.14-0.25-0.14-0.51v-14.32c0-0.26,0.05-0.43,0.14-0.51c0.09-0.08,0.28-0.12,0.56-0.12h8.17c0.26,0,0.43,0.05,0.51,0.14
		c0.08,0.09,0.12,0.28,0.12,0.56v0.96c0,0.28-0.04,0.46-0.12,0.56c-0.08,0.1-0.25,0.14-0.51,0.14h-6.19v4.03h5.63
		c0.26,0,0.43,0.05,0.51,0.14c0.08,0.1,0.12,0.28,0.12,0.56v0.96c0,0.28-0.04,0.46-0.12,0.56s-0.25,0.14-0.51,0.14h-5.63v4.47h6.28
		c0.26,0,0.43,0.05,0.51,0.14c0.08,0.09,0.12,0.28,0.12,0.56V139.77z"/>
	<path class="st8" d="M126.75,136.66c0.13,0.63,0.42,1.1,0.85,1.41c0.44,0.31,1.06,0.47,1.86,0.47c0.92,0,1.58-0.16,1.99-0.49
		c0.41-0.33,0.61-0.86,0.61-1.61c0-0.58-0.17-1.06-0.5-1.43s-0.88-0.67-1.62-0.91l-2.32-0.72c-1.08-0.33-1.91-0.85-2.48-1.55
		c-0.58-0.7-0.86-1.53-0.86-2.5v-0.2c0-1.46,0.46-2.59,1.39-3.39c0.93-0.8,2.24-1.2,3.95-1.2c1.84,0,3.2,0.49,4.09,1.47
		c0.61,0.7,0.92,1.55,0.92,2.54c0,0.23-0.05,0.39-0.14,0.47s-0.28,0.12-0.56,0.12h-1.25c-0.28,0-0.46-0.04-0.55-0.11
		c-0.09-0.07-0.15-0.22-0.17-0.44c-0.13-1.2-0.99-1.79-2.56-1.79c-1.61,0-2.41,0.72-2.41,2.17c0,0.29,0.04,0.55,0.11,0.77
		c0.07,0.22,0.2,0.41,0.37,0.58s0.4,0.32,0.69,0.46s0.64,0.27,1.06,0.4l2.32,0.72c1.11,0.34,1.94,0.87,2.48,1.59
		c0.55,0.72,0.82,1.6,0.82,2.64v0.29c0,1.42-0.46,2.51-1.38,3.27c-0.92,0.77-2.22,1.15-3.9,1.15c-1.98,0-3.44-0.46-4.36-1.38
		c-0.36-0.38-0.65-0.8-0.84-1.27c-0.2-0.47-0.3-0.96-0.3-1.47c0-0.23,0.05-0.39,0.14-0.47c0.09-0.08,0.28-0.12,0.56-0.12h1.23
		c0.26,0,0.44,0.04,0.54,0.11C126.64,136.3,126.71,136.44,126.75,136.66z"/>
	<path class="st8" d="M139.25,136.66c0.13,0.63,0.42,1.1,0.85,1.41c0.44,0.31,1.06,0.47,1.86,0.47c0.92,0,1.58-0.16,1.99-0.49
		c0.41-0.33,0.61-0.86,0.61-1.61c0-0.58-0.17-1.06-0.5-1.43s-0.88-0.67-1.62-0.91l-2.32-0.72c-1.08-0.33-1.91-0.85-2.48-1.55
		c-0.58-0.7-0.87-1.53-0.87-2.5v-0.2c0-1.46,0.46-2.59,1.39-3.39c0.93-0.8,2.24-1.2,3.95-1.2c1.84,0,3.2,0.49,4.09,1.47
		c0.61,0.7,0.92,1.55,0.92,2.54c0,0.23-0.05,0.39-0.14,0.47s-0.28,0.12-0.56,0.12h-1.25c-0.28,0-0.46-0.04-0.55-0.11
		c-0.09-0.07-0.15-0.22-0.17-0.44c-0.13-1.2-0.99-1.79-2.56-1.79c-1.61,0-2.41,0.72-2.41,2.17c0,0.29,0.04,0.55,0.11,0.77
		c0.07,0.22,0.2,0.41,0.37,0.58c0.17,0.17,0.4,0.32,0.69,0.46c0.28,0.14,0.64,0.27,1.06,0.4l2.32,0.72
		c1.11,0.34,1.94,0.87,2.48,1.59c0.55,0.72,0.82,1.6,0.82,2.64v0.29c0,1.42-0.46,2.51-1.38,3.27c-0.92,0.77-2.22,1.15-3.9,1.15
		c-1.99,0-3.44-0.46-4.36-1.38c-0.37-0.38-0.65-0.8-0.84-1.27c-0.2-0.47-0.3-0.96-0.3-1.47c0-0.23,0.05-0.39,0.14-0.47
		s0.28-0.12,0.56-0.12h1.23c0.26,0,0.44,0.04,0.54,0.11C139.14,136.3,139.21,136.44,139.25,136.66z"/>
	<path class="st8" d="M161.4,139.84c0.03,0.12,0.04,0.2,0.04,0.24c0,0.26-0.16,0.39-0.48,0.39h-1.53c-0.28,0-0.46-0.04-0.54-0.12
		s-0.16-0.25-0.25-0.51l-1.01-3.09h-5.74l-0.99,3.11c-0.09,0.26-0.17,0.43-0.25,0.5c-0.08,0.07-0.26,0.11-0.54,0.11h-1.44
		c-0.32,0-0.48-0.13-0.48-0.39c0-0.04,0.01-0.12,0.04-0.24l4.92-14.56c0.06-0.18,0.14-0.29,0.24-0.33c0.1-0.04,0.25-0.07,0.46-0.07
		h1.97c0.2,0,0.36,0.02,0.46,0.07c0.1,0.04,0.18,0.15,0.24,0.33L161.4,139.84z M152.63,134.47h4.27l-2.15-6.65L152.63,134.47z"/>
	<path class="st8" d="M165.87,134.38v5.45c0,0.25-0.04,0.42-0.13,0.5c-0.09,0.09-0.28,0.13-0.57,0.13h-1.23
		c-0.29,0-0.48-0.04-0.57-0.13c-0.09-0.09-0.13-0.26-0.13-0.5v-14.32c0-0.25,0.04-0.42,0.13-0.5c0.09-0.09,0.28-0.13,0.57-0.13h4.68
		c1.74,0,3.01,0.36,3.81,1.08c0.8,0.72,1.2,1.88,1.2,3.47v0.42c0,2.22-0.88,3.62-2.65,4.2l3.26,5.78c0.06,0.12,0.09,0.21,0.09,0.28
		c0,0.23-0.19,0.35-0.57,0.35h-1.64c-0.25,0-0.43-0.04-0.54-0.12s-0.24-0.25-0.38-0.51l-2.96-5.45H165.87z M165.87,132.11h2.74
		c0.85,0,1.44-0.17,1.79-0.51s0.53-0.93,0.53-1.76v-0.31c0-0.88-0.17-1.49-0.51-1.84c-0.34-0.35-0.95-0.53-1.81-0.53h-2.74V132.11z"
		/>
</g>
<g class="st1">
	<path class="st8" d="M176.83,124.88c0.25,0,0.42,0.03,0.51,0.1c0.09,0.07,0.19,0.2,0.29,0.41l3.17,6.46l3.13-6.46
		c0.1-0.2,0.2-0.34,0.3-0.41c0.09-0.07,0.27-0.1,0.51-0.1h1.51c0.36,0,0.55,0.12,0.55,0.35c0,0.1-0.02,0.2-0.07,0.28l-4.68,9.04
		v5.28c0,0.26-0.05,0.43-0.14,0.51c-0.1,0.08-0.28,0.12-0.56,0.12h-1.27c-0.28,0-0.46-0.04-0.56-0.12s-0.14-0.25-0.14-0.51v-5.28
		l-4.68-9.04c-0.04-0.09-0.07-0.18-0.07-0.28c0-0.23,0.18-0.35,0.55-0.35H176.83z"/>
</g>
</svg>
