<?xml version="1.0" encoding="utf-8"?>
<!-- Generator: Adobe Illustrator 26.0.1, SVG Export Plug-In . SVG Version: 6.00 Build 0)  -->
<svg version="1.1" id="Layer_1" xmlns="http://www.w3.org/2000/svg" xmlns:xlink="http://www.w3.org/1999/xlink" x="0px" y="0px"
	 viewBox="0 0 258.74 145.16" style="enable-background:new 0 0 258.74 145.16;" xml:space="preserve">
<style type="text/css">
	.st0{fill:#84BD00;}
	.st1{enable-background:new    ;}
	.st2{fill:#84BD41;}
	.st3{clip-path:url(#SVGID_00000121279767756841001600000000887779649308877227_);}
	.st4{clip-path:url(#SVGID_00000067956309805559265660000001734613653535315841_);}
	.st5{clip-path:url(#SVGID_00000003087829740428069290000005477179987183336841_);}
	.st6{clip-path:url(#SVGID_00000156582345712823493370000007664068481803307425_);}
	.st7{clip-path:url(#SVGID_00000042009127571448119120000005774341234516309408_);}
	.st8{fill:#FFFFFF;}
</style>
<g>
	<path class="st0" d="M11.33,0.5C5.35,0.5,0.5,5.35,0.5,11.33l0,0v121.79c0,5.8,4.7,10.5,10.5,10.5l0,0h236.75
		c5.8-0.01,10.49-4.7,10.49-10.5V11c0-5.8-4.69-10.49-10.49-10.5H11.33"/>
</g>
<g>
	<path d="M11.33,0.5V0C5.07,0,0,5.07,0,11.33l0,0v121.79c0,6.08,4.92,11,11,11l0,0h236.75c6.08,0,11-4.92,11-11l0,0V11
		c0-6.08-4.92-11-11-11l0,0H11.33v1h236.42c5.52,0,10,4.48,10,10v122.12c0,5.52-4.48,10-10,10H11c-5.52,0-10-4.48-10-10V11.33
		C0.99,5.64,5.6,1.01,11.29,1c0.01,0,0.03,0,0.04,0V0.5"/>
</g>
<g class="st1">
	<path d="M19.04,21.29v6.72c0,0.28-0.05,0.46-0.15,0.54c-0.1,0.08-0.3,0.13-0.59,0.13h-1.34c-0.29,0-0.49-0.04-0.59-0.13
		c-0.1-0.08-0.15-0.27-0.15-0.54V12.92c0-0.28,0.05-0.46,0.15-0.54c0.1-0.08,0.3-0.13,0.59-0.13h8.56c0.28,0,0.46,0.05,0.54,0.15
		c0.08,0.1,0.13,0.3,0.13,0.59V14c0,0.29-0.04,0.49-0.13,0.59c-0.08,0.1-0.27,0.15-0.54,0.15h-6.49v4.06h5.89
		c0.28,0,0.46,0.05,0.54,0.15c0.08,0.1,0.13,0.3,0.13,0.59v1.02c0,0.29-0.04,0.49-0.13,0.59c-0.08,0.1-0.27,0.15-0.54,0.15H19.04z"
		/>
	<path d="M34.41,11.88c1.37,0,2.52,0.26,3.45,0.8c0.93,0.53,1.62,1.31,2.07,2.34c0.2,0.45,0.34,0.95,0.42,1.5s0.12,1.27,0.12,2.15
		v3.37c0,0.8-0.04,1.49-0.13,2.07c-0.08,0.58-0.22,1.1-0.4,1.58c-0.45,1.11-1.14,1.95-2.07,2.52c-0.93,0.57-2.08,0.85-3.45,0.85
		c-1.37,0-2.52-0.27-3.45-0.8c-0.93-0.53-1.62-1.31-2.07-2.34c-0.2-0.45-0.34-0.95-0.42-1.5c-0.08-0.55-0.12-1.27-0.12-2.15v-3.37
		c0-0.8,0.04-1.49,0.13-2.07s0.22-1.1,0.4-1.58c0.45-1.11,1.13-1.95,2.07-2.52C31.89,12.16,33.04,11.88,34.41,11.88z M34.41,14.35
		c-1.14,0-1.95,0.32-2.44,0.97s-0.73,1.72-0.73,3.21v3.88c0,1.49,0.24,2.56,0.73,3.21c0.48,0.65,1.3,0.97,2.44,0.97
		c1.14,0,1.95-0.32,2.43-0.97c0.48-0.65,0.73-1.72,0.73-3.21v-3.88c0-1.49-0.24-2.56-0.73-3.21C36.36,14.67,35.55,14.35,34.41,14.35
		z"/>
	<path d="M49,11.88c1.37,0,2.52,0.26,3.45,0.8c0.93,0.53,1.62,1.31,2.07,2.34c0.2,0.45,0.34,0.95,0.42,1.5s0.12,1.27,0.12,2.15v3.37
		c0,0.8-0.04,1.49-0.13,2.07c-0.08,0.58-0.22,1.1-0.4,1.58c-0.45,1.11-1.14,1.95-2.07,2.52c-0.93,0.57-2.08,0.85-3.45,0.85
		c-1.37,0-2.52-0.27-3.45-0.8c-0.93-0.53-1.62-1.31-2.07-2.34c-0.2-0.45-0.34-0.95-0.42-1.5c-0.08-0.55-0.12-1.27-0.12-2.15v-3.37
		c0-0.8,0.04-1.49,0.13-2.07s0.22-1.1,0.4-1.58c0.45-1.11,1.13-1.95,2.07-2.52C46.48,12.16,47.63,11.88,49,11.88z M49,14.35
		c-1.14,0-1.95,0.32-2.44,0.97s-0.73,1.72-0.73,3.21v3.88c0,1.49,0.24,2.56,0.73,3.21c0.48,0.65,1.3,0.97,2.44,0.97
		c1.14,0,1.95-0.32,2.43-0.97c0.48-0.65,0.73-1.72,0.73-3.21v-3.88c0-1.49-0.24-2.56-0.73-3.21C50.95,14.67,50.13,14.35,49,14.35z"
		/>
	<path d="M63.4,12.25c0.75,0,1.43,0.08,2.02,0.25c0.59,0.17,1.12,0.4,1.57,0.68c0.45,0.29,0.83,0.62,1.14,0.99s0.55,0.78,0.74,1.21
		c0.17,0.42,0.3,0.88,0.4,1.4s0.15,1.21,0.15,2.09v3.3c0,0.86-0.05,1.55-0.15,2.05s-0.23,0.96-0.4,1.36
		c-0.17,0.42-0.4,0.81-0.69,1.19c-0.29,0.38-0.65,0.71-1.06,0.99c-0.42,0.29-0.9,0.51-1.47,0.67c-0.56,0.16-1.2,0.24-1.9,0.24h-5.05
		c-0.29,0-0.49-0.04-0.59-0.13c-0.1-0.08-0.15-0.27-0.15-0.54V12.92c0-0.28,0.05-0.46,0.15-0.54c0.1-0.08,0.3-0.13,0.59-0.13H63.4z
		 M60.77,26.19h2.58c0.52,0,0.98-0.07,1.37-0.2c0.39-0.13,0.72-0.35,0.99-0.66c0.27-0.31,0.47-0.72,0.61-1.23
		c0.14-0.52,0.21-1.16,0.21-1.93v-3.42c0-0.75-0.07-1.39-0.22-1.9c-0.15-0.52-0.35-0.93-0.62-1.24c-0.27-0.31-0.6-0.53-0.99-0.67
		c-0.39-0.14-0.84-0.21-1.35-0.21h-2.58V26.19z"/>
	<path d="M88.81,28.01c0,0.28-0.05,0.46-0.15,0.54c-0.1,0.08-0.3,0.13-0.59,0.13h-1.34c-0.29,0-0.49-0.04-0.59-0.13
		c-0.1-0.08-0.15-0.27-0.15-0.54v-6.69h-6.23v6.69c0,0.28-0.05,0.46-0.15,0.54c-0.1,0.08-0.3,0.13-0.59,0.13h-1.34
		c-0.29,0-0.49-0.04-0.59-0.13c-0.1-0.08-0.15-0.27-0.15-0.54V12.92c0-0.28,0.05-0.46,0.15-0.54c0.1-0.08,0.3-0.13,0.59-0.13h1.34
		c0.29,0,0.49,0.04,0.59,0.13c0.1,0.08,0.15,0.26,0.15,0.54v5.91h6.23v-5.91c0-0.28,0.05-0.46,0.15-0.54
		c0.1-0.08,0.3-0.13,0.59-0.13h1.34c0.29,0,0.49,0.04,0.59,0.13c0.1,0.08,0.15,0.26,0.15,0.54V28.01z"/>
	<path d="M93.01,12.25c0.26,0,0.44,0.03,0.54,0.1s0.2,0.21,0.31,0.43l3.35,6.81l3.3-6.81c0.11-0.21,0.21-0.36,0.31-0.43
		c0.1-0.07,0.28-0.1,0.54-0.1h1.59c0.38,0,0.58,0.12,0.58,0.37c0,0.11-0.02,0.21-0.07,0.3l-4.94,9.53v5.56
		c0,0.28-0.05,0.46-0.15,0.54c-0.1,0.08-0.3,0.13-0.59,0.13h-1.34c-0.29,0-0.49-0.04-0.59-0.13c-0.1-0.08-0.15-0.27-0.15-0.54v-5.56
		l-4.94-9.53c-0.05-0.09-0.07-0.19-0.07-0.3c0-0.25,0.19-0.37,0.58-0.37H93.01z"/>
</g>
<g class="st1">
	<path d="M104.43,18.89c0-1.58,0.18-2.8,0.53-3.65c0.45-1.11,1.17-1.95,2.16-2.52c0.99-0.57,2.18-0.85,3.57-0.85
		c0.78,0,1.53,0.1,2.23,0.29s1.31,0.49,1.83,0.89s0.94,0.91,1.25,1.53c0.31,0.62,0.46,1.37,0.46,2.23c0,0.22-0.05,0.36-0.16,0.44
		c-0.11,0.08-0.3,0.12-0.58,0.12h-1.43c-0.28,0-0.47-0.04-0.57-0.12c-0.1-0.08-0.16-0.23-0.17-0.46c-0.06-0.88-0.34-1.51-0.83-1.89
		c-0.49-0.38-1.23-0.58-2.22-0.58c-0.57,0-1.05,0.07-1.45,0.2c-0.4,0.13-0.73,0.36-0.98,0.68s-0.44,0.75-0.57,1.29
		c-0.12,0.54-0.18,1.22-0.18,2.03v3.88c0,1.55,0.26,2.65,0.77,3.28s1.32,0.95,2.41,0.95c1.02,0,1.78-0.26,2.31-0.79
		c0.52-0.52,0.78-1.42,0.78-2.68v-0.44h-1.78c-0.28,0-0.46-0.05-0.54-0.15s-0.13-0.3-0.13-0.59v-1.02c0-0.29,0.04-0.49,0.13-0.59
		c0.08-0.1,0.27-0.15,0.54-0.15h3.9c0.29,0,0.49,0.04,0.59,0.13c0.1,0.08,0.15,0.27,0.15,0.54v2.61c0,0.75-0.12,1.47-0.36,2.13
		c-0.24,0.67-0.6,1.26-1.1,1.77c-0.49,0.51-1.12,0.91-1.87,1.2s-1.64,0.44-2.65,0.44c-1.49,0-2.67-0.27-3.54-0.82
		c-0.87-0.55-1.53-1.32-1.97-2.32c-0.2-0.45-0.34-0.94-0.42-1.49c-0.08-0.55-0.12-1.27-0.12-2.16V18.89z"/>
	<path d="M122.17,28.01c0,0.28-0.05,0.46-0.15,0.54c-0.1,0.08-0.3,0.13-0.59,0.13h-1.34c-0.29,0-0.49-0.04-0.59-0.13
		c-0.1-0.08-0.15-0.27-0.15-0.54V12.92c0-0.28,0.05-0.46,0.15-0.54c0.1-0.08,0.3-0.13,0.59-0.13h1.34c0.29,0,0.49,0.04,0.59,0.13
		c0.1,0.08,0.15,0.26,0.15,0.54V28.01z"/>
	<path d="M135.61,27.94c0,0.29-0.04,0.49-0.13,0.59c-0.08,0.1-0.27,0.15-0.54,0.15h-8.7c-0.29,0-0.49-0.04-0.59-0.13
		c-0.1-0.08-0.15-0.27-0.15-0.54V12.92c0-0.28,0.05-0.46,0.15-0.54c0.1-0.08,0.3-0.13,0.59-0.13h8.61c0.28,0,0.46,0.05,0.54,0.15
		c0.08,0.1,0.13,0.3,0.13,0.59V14c0,0.29-0.04,0.49-0.13,0.59c-0.08,0.1-0.27,0.15-0.54,0.15h-6.53v4.25h5.93
		c0.28,0,0.46,0.05,0.54,0.15c0.08,0.1,0.13,0.3,0.13,0.59v1.02c0,0.29-0.04,0.49-0.13,0.59c-0.08,0.1-0.27,0.15-0.54,0.15h-5.93
		v4.71h6.62c0.28,0,0.46,0.05,0.54,0.15c0.08,0.1,0.13,0.3,0.13,0.59V27.94z"/>
	<path d="M141.26,17.58v10.43c0,0.28-0.05,0.46-0.15,0.54c-0.1,0.08-0.3,0.13-0.59,0.13h-1.27c-0.29,0-0.49-0.04-0.59-0.13
		c-0.1-0.08-0.15-0.27-0.15-0.54V12.92c0-0.28,0.05-0.46,0.15-0.54c0.1-0.08,0.3-0.13,0.59-0.13h1.34c0.29,0,0.5,0.03,0.63,0.1
		s0.27,0.25,0.43,0.54l5.52,10.46V12.92c0-0.28,0.05-0.46,0.15-0.54c0.1-0.08,0.3-0.13,0.59-0.13h1.27c0.29,0,0.49,0.04,0.59,0.13
		c0.1,0.08,0.15,0.26,0.15,0.54v15.09c0,0.28-0.05,0.46-0.15,0.54c-0.1,0.08-0.3,0.13-0.59,0.13h-1.34c-0.29,0-0.5-0.03-0.63-0.1
		c-0.13-0.07-0.27-0.25-0.43-0.54L141.26,17.58z"/>
	<path d="M163.35,27.94c0,0.29-0.04,0.49-0.13,0.59c-0.08,0.1-0.27,0.15-0.54,0.15h-8.7c-0.29,0-0.49-0.04-0.59-0.13
		c-0.1-0.08-0.15-0.27-0.15-0.54V12.92c0-0.28,0.05-0.46,0.15-0.54c0.1-0.08,0.3-0.13,0.59-0.13h8.61c0.28,0,0.46,0.05,0.54,0.15
		c0.08,0.1,0.13,0.3,0.13,0.59V14c0,0.29-0.04,0.49-0.13,0.59c-0.08,0.1-0.27,0.15-0.54,0.15h-6.53v4.25h5.93
		c0.28,0,0.46,0.05,0.54,0.15c0.08,0.1,0.13,0.3,0.13,0.59v1.02c0,0.29-0.04,0.49-0.13,0.59c-0.08,0.1-0.27,0.15-0.54,0.15h-5.93
		v4.71h6.62c0.28,0,0.46,0.05,0.54,0.15c0.08,0.1,0.13,0.3,0.13,0.59V27.94z"/>
	<path d="M173.64,22.26v5.75c0,0.26-0.05,0.44-0.14,0.53c-0.09,0.09-0.29,0.14-0.6,0.14h-1.29c-0.31,0-0.51-0.05-0.6-0.14
		c-0.09-0.09-0.14-0.27-0.14-0.53V12.92c0-0.26,0.05-0.44,0.14-0.53c0.09-0.09,0.29-0.14,0.6-0.14h4.94c1.83,0,3.17,0.38,4.02,1.14
		c0.85,0.76,1.27,1.98,1.27,3.66v0.44c0,2.34-0.93,3.82-2.79,4.43l3.44,6.09c0.06,0.12,0.09,0.22,0.09,0.3c0,0.25-0.2,0.37-0.6,0.37
		h-1.73c-0.26,0-0.45-0.04-0.57-0.13c-0.12-0.08-0.25-0.27-0.4-0.54l-3.12-5.75H173.64z M173.64,19.86h2.89
		c0.89,0,1.52-0.18,1.89-0.54c0.37-0.36,0.55-0.98,0.55-1.86v-0.32c0-0.92-0.18-1.57-0.54-1.94c-0.36-0.37-1-0.55-1.9-0.55h-2.89
		V19.86z"/>
	<path d="M197.51,28.01c0.03,0.12,0.05,0.21,0.05,0.25c0,0.28-0.17,0.42-0.51,0.42h-1.62c-0.29,0-0.48-0.04-0.57-0.13
		c-0.08-0.08-0.17-0.27-0.27-0.54l-1.06-3.25h-6.05l-1.04,3.28c-0.09,0.28-0.18,0.45-0.27,0.53c-0.08,0.08-0.27,0.12-0.57,0.12
		h-1.52c-0.34,0-0.51-0.14-0.51-0.42c0-0.05,0.01-0.13,0.05-0.25l5.19-15.35c0.06-0.18,0.15-0.3,0.25-0.35
		c0.11-0.05,0.27-0.07,0.49-0.07h2.08c0.21,0,0.38,0.02,0.48,0.07c0.11,0.05,0.19,0.16,0.25,0.35L197.51,28.01z M188.25,22.36h4.5
		l-2.26-7.02L188.25,22.36z"/>
</g>
<g class="st1">
	<path d="M201.32,14.74h-4.04c-0.28,0-0.46-0.05-0.54-0.15c-0.08-0.1-0.13-0.3-0.13-0.59v-1.02c0-0.29,0.04-0.49,0.13-0.59
		c0.08-0.1,0.27-0.15,0.54-0.15h10.89c0.28,0,0.46,0.05,0.54,0.15c0.08,0.1,0.13,0.3,0.13,0.59V14c0,0.29-0.04,0.49-0.13,0.59
		c-0.08,0.1-0.26,0.15-0.54,0.15h-4.04v13.27c0,0.28-0.05,0.46-0.15,0.54c-0.1,0.08-0.3,0.13-0.59,0.13h-1.34
		c-0.29,0-0.49-0.04-0.59-0.13c-0.1-0.08-0.15-0.27-0.15-0.54V14.74z"/>
	<path d="M213.78,28.01c0,0.28-0.05,0.46-0.15,0.54c-0.1,0.08-0.3,0.13-0.59,0.13h-1.34c-0.29,0-0.49-0.04-0.59-0.13
		c-0.1-0.08-0.15-0.27-0.15-0.54V12.92c0-0.28,0.05-0.46,0.15-0.54c0.1-0.08,0.3-0.13,0.59-0.13h1.34c0.29,0,0.49,0.04,0.59,0.13
		c0.1,0.08,0.15,0.26,0.15,0.54V28.01z"/>
	<path d="M219.85,17.58v10.43c0,0.28-0.05,0.46-0.15,0.54c-0.1,0.08-0.3,0.13-0.59,0.13h-1.27c-0.29,0-0.49-0.04-0.59-0.13
		c-0.1-0.08-0.15-0.27-0.15-0.54V12.92c0-0.28,0.05-0.46,0.15-0.54c0.1-0.08,0.3-0.13,0.59-0.13h1.34c0.29,0,0.5,0.03,0.63,0.1
		s0.27,0.25,0.43,0.54l5.52,10.46V12.92c0-0.28,0.05-0.46,0.15-0.54c0.1-0.08,0.3-0.13,0.59-0.13h1.27c0.29,0,0.49,0.04,0.59,0.13
		c0.1,0.08,0.15,0.26,0.15,0.54v15.09c0,0.28-0.05,0.46-0.15,0.54c-0.1,0.08-0.3,0.13-0.59,0.13h-1.34c-0.29,0-0.5-0.03-0.63-0.1
		s-0.27-0.25-0.43-0.54L219.85,17.58z"/>
	<path d="M231.42,18.89c0-1.58,0.18-2.8,0.53-3.65c0.45-1.11,1.17-1.95,2.16-2.52s2.18-0.85,3.57-0.85c0.79,0,1.53,0.1,2.23,0.29
		s1.31,0.49,1.83,0.89c0.52,0.4,0.94,0.91,1.25,1.53c0.31,0.62,0.46,1.37,0.46,2.23c0,0.22-0.05,0.36-0.16,0.44
		c-0.11,0.08-0.3,0.12-0.58,0.12h-1.43c-0.28,0-0.47-0.04-0.57-0.12c-0.1-0.08-0.16-0.23-0.17-0.46c-0.06-0.88-0.34-1.51-0.83-1.89
		s-1.23-0.58-2.22-0.58c-0.57,0-1.05,0.07-1.45,0.2s-0.73,0.36-0.98,0.68s-0.44,0.75-0.57,1.29c-0.12,0.54-0.18,1.22-0.18,2.03v3.88
		c0,1.55,0.26,2.65,0.77,3.28s1.32,0.95,2.41,0.95c1.02,0,1.79-0.26,2.31-0.79c0.52-0.52,0.78-1.42,0.78-2.68v-0.44h-1.78
		c-0.28,0-0.46-0.05-0.54-0.15c-0.08-0.1-0.13-0.3-0.13-0.59v-1.02c0-0.29,0.04-0.49,0.13-0.59c0.08-0.1,0.27-0.15,0.54-0.15h3.9
		c0.29,0,0.49,0.04,0.59,0.13c0.1,0.08,0.15,0.27,0.15,0.54v2.61c0,0.75-0.12,1.47-0.36,2.13c-0.24,0.67-0.6,1.26-1.1,1.77
		c-0.49,0.51-1.12,0.91-1.87,1.2s-1.64,0.44-2.65,0.44c-1.49,0-2.67-0.27-3.54-0.82c-0.87-0.55-1.53-1.32-1.97-2.32
		c-0.2-0.45-0.34-0.94-0.42-1.49c-0.08-0.55-0.12-1.27-0.12-2.16V18.89z"/>
</g>
<g>
	<polyline points="257.75,41.26 1,41.26 1,39.78 257.75,39.78 257.75,41.26 	"/>
</g>
<g>
	<path d="M258.34,41.26h-0.1v-1.48h0.1V41.26 M0.5,41.26H0v-1.48h0.5V41.26"/>
</g>
<g>
	<path d="M258.24,41.26h-0.49v-1.48h0.49V41.26 M1,41.26H0.5v-1.48H1V41.26"/>
</g>
<g>
	<path d="M248,144.12h-0.24c3.42,0,6.65-1.6,8.73-4.32C254.52,142.52,251.36,144.12,248,144.12"/>
</g>
<g>
	<path d="M247.75,143.12H11c-5.52,0-10-4.48-10-10V101h256.75v32.13c0,5.52-4.48,10-10,10"/>
</g>
<g>
	<path d="M247.75,144.12H11.08c-4.02-0.06-7.65-2.42-9.35-6.06c1.83,3.42,5.39,5.56,9.27,5.56h236.75c5.8-0.01,10.49-4.7,10.49-10.5
		V101h0.25v32.63c0.01,2.22-0.69,4.39-2,6.18c-2.08,2.72-5.31,4.32-8.73,4.32"/>
</g>
<g>
	<path d="M247.75,143.62H11c-5.44,0.22-10.02-4.01-10.24-9.44c-0.01-0.19-0.01-0.37-0.01-0.56V101H1v32.13c0,5.52,4.48,10,10,10
		h236.75c5.52,0,10-4.48,10-10V101h0.49v32.13c0,5.8-4.69,10.49-10.49,10.5"/>
</g>
<g>
	<rect x="25.99" y="65.6" class="st2" width="8.07" height="11.58"/>
</g>
<g>
	<defs>
		<polyline id="SVGID_1_" points="34.06,77.18 25.99,77.18 25.99,65.6 34.06,65.6 34.06,77.18 		"/>
	</defs>
	<clipPath id="SVGID_00000175285110847680413790000001224000298558219932_">
		<use xlink:href="#SVGID_1_"  style="overflow:visible;"/>
	</clipPath>
	<g style="clip-path:url(#SVGID_00000175285110847680413790000001224000298558219932_);">
		<g class="st1">
			<path d="M30.02,77.18c-1.83,0-3.05-0.74-3.67-2.22c-0.13-0.31-0.23-0.65-0.28-1.01c-0.06-0.36-0.08-0.83-0.08-1.41V70.4
				c0-0.6,0.03-1.08,0.08-1.46c0.05-0.38,0.15-0.72,0.28-1.04c0.62-1.53,1.84-2.3,3.67-2.3c1.83,0,3.05,0.74,3.67,2.22
				c0.13,0.31,0.23,0.64,0.28,1.01s0.08,0.83,0.08,1.41v2.15c0,0.6-0.03,1.08-0.08,1.46c-0.06,0.38-0.15,0.72-0.28,1.04
				C33.07,76.42,31.85,77.18,30.02,77.18z M30.02,67.44c-0.36,0-0.67,0.05-0.92,0.15c-0.25,0.1-0.45,0.26-0.6,0.47
				c-0.15,0.22-0.26,0.5-0.33,0.84c-0.07,0.35-0.1,0.77-0.1,1.27v2.45c0,0.51,0.03,0.93,0.1,1.28c0.07,0.35,0.18,0.63,0.33,0.84
				s0.36,0.37,0.6,0.46c0.25,0.09,0.55,0.14,0.92,0.14c0.36,0,0.67-0.05,0.92-0.14c0.25-0.09,0.45-0.25,0.6-0.46
				c0.15-0.21,0.26-0.5,0.33-0.84c0.07-0.35,0.1-0.77,0.1-1.28v-2.45c0-0.5-0.03-0.92-0.1-1.27c-0.07-0.35-0.18-0.63-0.33-0.84
				c-0.15-0.21-0.36-0.37-0.6-0.47C30.69,67.49,30.38,67.44,30.02,67.44z"/>
		</g>
	</g>
</g>
<g>
	<path d="M30.55,87.45L30.55,87.45 M30.55,87.45c-9.05,0-16.39-7.34-16.39-16.39c0-9.05,7.34-16.39,16.39-16.39
		s16.39,7.34,16.39,16.39C46.93,80.11,39.6,87.44,30.55,87.45v-1.37c8.28-0.01,14.99-6.73,14.98-15.02S38.8,56.07,30.52,56.08
		c-8.28,0.01-14.99,6.73-14.98,15.02c0,3.97,1.58,7.77,4.39,10.58c2.82,2.82,6.64,4.4,10.63,4.4V87.45L30.55,87.45"/>
</g>
<g>
	<rect x="63.84" y="65.83" class="st2" width="4.14" height="11.12"/>
</g>
<g>
	<defs>
		<polyline id="SVGID_00000052798408206799992710000002961627034935869373_" points="67.98,76.95 63.84,76.95 63.84,65.83 
			67.98,65.83 67.98,76.95 		"/>
	</defs>
	<clipPath id="SVGID_00000056393486253964184110000004886831059701789849_">
		<use xlink:href="#SVGID_00000052798408206799992710000002961627034935869373_"  style="overflow:visible;"/>
	</clipPath>
	<g style="clip-path:url(#SVGID_00000056393486253964184110000004886831059701789849_);">
		<g class="st1">
			<path d="M67.98,76.47c0,0.2-0.04,0.33-0.11,0.39s-0.21,0.09-0.42,0.09h-0.91c-0.21,0-0.35-0.03-0.42-0.09s-0.11-0.19-0.11-0.39
				v-8.85h-1.69c-0.2,0-0.33-0.04-0.39-0.11c-0.06-0.07-0.09-0.21-0.09-0.42v-0.73c0-0.21,0.03-0.35,0.09-0.42
				c0.06-0.07,0.19-0.11,0.39-0.11h3.13c0.21,0,0.35,0.03,0.42,0.09s0.11,0.19,0.11,0.39V76.47z"/>
		</g>
	</g>
</g>
<g>
	<path d="M67,87.45L67,87.45 M67,87.45c-9.05-0.01-16.39-7.35-16.38-16.4c0.01-9.05,7.35-16.39,16.4-16.38
		c9.05,0.01,16.38,7.34,16.38,16.39c0,9.05-7.34,16.39-16.39,16.39C67.01,87.45,67,87.45,67,87.45v-1.37c8.28,0,15-6.72,14.99-15.01
		c0-8.28-6.72-15-15.01-14.99c-8.28,0-15,6.72-14.99,15.01c0,3.97,1.58,7.78,4.39,10.59c2.82,2.82,6.64,4.4,10.62,4.4V87.45
		L67,87.45"/>
</g>
<g>
	<rect x="99.14" y="65.6" class="st2" width="7.41" height="11.35"/>
</g>
<g>
	<defs>
		<polyline id="SVGID_00000108294561521072903490000016841824241793995929_" points="106.56,76.95 99.14,76.95 99.14,65.6 
			106.56,65.6 106.56,76.95 		"/>
	</defs>
	<clipPath id="SVGID_00000138570549803241603430000006087451698049839799_">
		<use xlink:href="#SVGID_00000108294561521072903490000016841824241793995929_"  style="overflow:visible;"/>
	</clipPath>
	<g style="clip-path:url(#SVGID_00000138570549803241603430000006087451698049839799_);">
		<g class="st1">
			<path d="M103,65.6c1.15,0,2.03,0.26,2.64,0.79s0.92,1.27,0.92,2.24v0.5c0,0.4-0.07,0.76-0.22,1.1c-0.15,0.34-0.35,0.65-0.6,0.93
				s-0.53,0.54-0.85,0.77s-0.65,0.45-0.98,0.65l-1.32,0.79c-0.3,0.18-0.53,0.34-0.7,0.49c-0.17,0.15-0.3,0.29-0.39,0.42
				c-0.09,0.13-0.14,0.26-0.17,0.4c-0.02,0.13-0.03,0.26-0.03,0.4v0.07h4.78c0.2,0,0.33,0.04,0.39,0.11
				c0.06,0.07,0.09,0.21,0.09,0.42v0.76c0,0.21-0.03,0.35-0.09,0.42c-0.06,0.07-0.19,0.11-0.39,0.11h-6.4
				c-0.21,0-0.35-0.03-0.42-0.09c-0.07-0.06-0.11-0.19-0.11-0.39v-0.81c0-0.5,0.06-0.94,0.18-1.33c0.12-0.39,0.28-0.74,0.49-1.04
				c0.2-0.3,0.44-0.57,0.72-0.79c0.28-0.23,0.57-0.43,0.88-0.6l1.41-0.81c0.22-0.13,0.43-0.27,0.64-0.41
				c0.2-0.14,0.38-0.29,0.54-0.47c0.15-0.18,0.28-0.37,0.37-0.59c0.09-0.21,0.14-0.45,0.14-0.72v-0.17c0-0.97-0.53-1.46-1.59-1.46
				c-0.53,0-0.92,0.1-1.17,0.31c-0.25,0.21-0.41,0.58-0.49,1.11c-0.02,0.13-0.07,0.22-0.14,0.27c-0.07,0.05-0.2,0.07-0.37,0.07
				h-0.94c-0.21,0-0.35-0.03-0.42-0.1c-0.07-0.07-0.11-0.2-0.11-0.41c0-0.34,0.07-0.69,0.2-1.03c0.13-0.35,0.31-0.63,0.53-0.85
				C100.7,65.95,101.7,65.6,103,65.6z"/>
		</g>
	</g>
</g>
<g>
	<path d="M103.44,87.45L103.44,87.45 M103.44,87.45c-9.05,0-16.39-7.34-16.39-16.39c0-9.05,7.34-16.39,16.39-16.39
		s16.39,7.34,16.39,16.39S112.49,87.45,103.44,87.45L103.44,87.45v-1.37c8.28,0,15-6.72,14.99-15.01c0-8.28-6.72-15-15.01-14.99
		c-8.28,0-15,6.72-14.99,15.01c0,3.97,1.58,7.78,4.39,10.59c2.82,2.82,6.64,4.4,10.62,4.4V87.45L103.44,87.45"/>
</g>
<g>
	<rect x="187.82" y="65.83" class="st2" width="7.94" height="11.12"/>
</g>
<g>
	<defs>
		<polyline id="SVGID_00000010312169768489656480000011200007970296949680_" points="195.76,76.95 187.82,76.95 187.82,65.83 
			195.76,65.83 195.76,76.95 		"/>
	</defs>
	<clipPath id="SVGID_00000088811025201827190600000013634307830693131155_">
		<use xlink:href="#SVGID_00000010312169768489656480000011200007970296949680_"  style="overflow:visible;"/>
	</clipPath>
	<g style="clip-path:url(#SVGID_00000088811025201827190600000013634307830693131155_);">
		<g class="st1">
			<path d="M194.09,65.83c0.21,0,0.35,0.03,0.42,0.09c0.07,0.06,0.11,0.19,0.11,0.39v6.71h0.66c0.2,0,0.33,0.04,0.39,0.11
				c0.06,0.07,0.09,0.21,0.09,0.42v0.68c0,0.21-0.03,0.35-0.09,0.42c-0.06,0.07-0.19,0.11-0.39,0.11h-0.66v1.7
				c0,0.2-0.04,0.33-0.11,0.39c-0.07,0.06-0.21,0.09-0.42,0.09h-0.84c-0.21,0-0.35-0.03-0.42-0.09c-0.07-0.06-0.11-0.19-0.11-0.39
				v-1.7h-4.42c-0.2,0-0.33-0.04-0.39-0.11c-0.06-0.07-0.09-0.21-0.09-0.42v-1.16c0-0.13,0.01-0.26,0.03-0.37
				c0.02-0.12,0.08-0.23,0.17-0.36l4.17-6.05c0.13-0.19,0.23-0.31,0.31-0.37c0.07-0.06,0.18-0.09,0.34-0.09H194.09z M192.71,73.03
				v-4.65l-3.23,4.65H192.71z"/>
		</g>
	</g>
</g>
<g>
	<path d="M192.25,87.45L192.25,87.45 M192.25,87.45c-9.05,0-16.39-7.34-16.39-16.39c0-9.05,7.34-16.39,16.39-16.39
		s16.39,7.34,16.39,16.39S201.3,87.45,192.25,87.45L192.25,87.45v-1.37c8.28-0.01,14.99-6.73,14.98-15.02s-6.73-14.99-15.02-14.98
		c-8.28,0.01-14.99,6.73-14.98,15.02c0,3.97,1.58,7.77,4.39,10.58c2.82,2.82,6.64,4.4,10.63,4.4V87.45L192.25,87.45"/>
</g>
<g>
	<rect x="224.41" y="65.83" class="st2" width="7.36" height="11.35"/>
</g>
<g>
	<defs>
		<polyline id="SVGID_00000170983194423513731790000008833826740428097425_" points="231.77,77.18 224.41,77.18 224.41,65.83 
			231.77,65.83 231.77,77.18 		"/>
	</defs>
	<clipPath id="SVGID_00000088812618128498931310000006878498205174816389_">
		<use xlink:href="#SVGID_00000170983194423513731790000008833826740428097425_"  style="overflow:visible;"/>
	</clipPath>
	<g style="clip-path:url(#SVGID_00000088812618128498931310000006878498205174816389_);">
		<g class="st1">
			<path d="M231.77,73.91c0,1.04-0.32,1.84-0.97,2.41c-0.65,0.57-1.54,0.86-2.67,0.86c-1.38,0-2.38-0.32-3.01-0.96
				c-0.22-0.22-0.39-0.49-0.52-0.79c-0.13-0.31-0.19-0.62-0.19-0.94c0-0.21,0.04-0.35,0.11-0.41c0.07-0.07,0.21-0.1,0.42-0.1h0.94
				c0.18,0,0.3,0.03,0.37,0.08c0.07,0.05,0.12,0.14,0.14,0.27c0.07,0.42,0.23,0.72,0.49,0.9c0.26,0.18,0.65,0.27,1.18,0.27
				c1.14,0,1.7-0.56,1.7-1.69v-0.63c0-1.19-0.53-1.79-1.6-1.79c-0.19,0-0.39,0.02-0.61,0.07s-0.41,0.1-0.56,0.18
				c-0.21,0.1-0.36,0.16-0.46,0.19s-0.21,0.04-0.36,0.04h-0.89c-0.22,0-0.36-0.03-0.43-0.1c-0.07-0.07-0.1-0.19-0.1-0.38v-5.08
				c0-0.19,0.03-0.31,0.1-0.38s0.21-0.1,0.43-0.1h5.67c0.19,0,0.31,0.03,0.38,0.1c0.07,0.07,0.1,0.21,0.1,0.43v0.73
				c0,0.22-0.03,0.36-0.1,0.43c-0.07,0.07-0.19,0.1-0.38,0.1h-4.4v2.58c0.35-0.17,0.69-0.29,1.02-0.36s0.67-0.12,1.03-0.12
				c2.11,0,3.16,1.15,3.16,3.44V73.91z"/>
		</g>
	</g>
</g>
<g>
	<path d="M228.69,87.45L228.69,87.45 M228.69,87.45c-9.05-0.01-16.39-7.35-16.38-16.4c0.01-9.05,7.35-16.39,16.4-16.38
		c9.05,0.01,16.38,7.34,16.38,16.39c0,9.05-7.34,16.39-16.39,16.39C228.7,87.45,228.69,87.45,228.69,87.45v-1.37
		c8.28,0,15-6.72,14.99-15.01c0-8.28-6.72-15-15.01-14.99c-8.28,0-15,6.72-14.99,15.01c0,3.97,1.58,7.78,4.39,10.59
		c2.82,2.82,6.64,4.4,10.62,4.4V87.45L228.69,87.45"/>
</g>
<g>
	<path d="M147.84,95.4c13.45,0.01,24.35-10.89,24.36-24.34s-10.89-24.35-24.34-24.36c-13.45-0.01-24.35,10.89-24.36,24.34
		c0,0.01,0,0.01,0,0.02C123.51,84.5,134.4,95.39,147.84,95.4z"/>
</g>
<g class="st1">
	<path class="st8" d="M147.95,59.17c2.47,0,4.36,0.53,5.67,1.58c1.31,1.06,1.96,2.61,1.96,4.65v0.72c0,1.15-0.32,2.16-0.97,3.01
		s-1.55,1.52-2.7,2c1.3,0.34,2.29,0.95,2.97,1.84c0.68,0.89,1.03,2.02,1.03,3.39v1.33c0,2.11-0.74,3.76-2.21,4.93
		c-1.48,1.18-3.49,1.76-6.03,1.76c-1.54,0-2.89-0.19-4.05-0.56c-1.17-0.37-2.1-0.91-2.79-1.6c-0.48-0.48-0.86-1.09-1.15-1.82
		s-0.43-1.46-0.43-2.18c0-0.46,0.08-0.76,0.23-0.9s0.46-0.22,0.92-0.22h2.05c0.41,0,0.69,0.05,0.85,0.16
		c0.16,0.11,0.25,0.31,0.27,0.59c0.17,1.9,1.48,2.85,3.93,2.85c1.25,0,2.21-0.28,2.88-0.83c0.67-0.55,1.01-1.37,1.01-2.45v-0.87
		c0-2.26-1.24-3.39-3.71-3.39h-1.08c-0.43,0-0.71-0.08-0.85-0.23s-0.2-0.46-0.2-0.92v-1.58c0-0.46,0.07-0.76,0.2-0.92
		s0.41-0.23,0.85-0.23h0.65c2.59,0,3.89-1.08,3.89-3.24v-0.43c0-1.97-1.18-2.95-3.53-2.95c-1.18,0-2.07,0.23-2.68,0.7
		c-0.61,0.47-1,1.24-1.17,2.32c-0.05,0.29-0.15,0.49-0.31,0.59c-0.16,0.11-0.43,0.16-0.81,0.16h-1.91c-0.46,0-0.76-0.07-0.92-0.22
		c-0.16-0.14-0.23-0.44-0.23-0.9c0-0.72,0.14-1.42,0.41-2.11c0.28-0.68,0.67-1.28,1.17-1.78c0.77-0.79,1.69-1.37,2.76-1.73
		C144.96,59.35,146.31,59.17,147.95,59.17z"/>
</g>
<g class="st1">
	<path class="st8" d="M74.04,111.19c0-1.5,0.17-2.66,0.5-3.46c0.42-1.05,1.11-1.85,2.05-2.39c0.94-0.54,2.07-0.81,3.38-0.81
		c0.74,0,1.45,0.09,2.11,0.27s1.24,0.46,1.74,0.84s0.89,0.86,1.18,1.46c0.29,0.59,0.44,1.3,0.44,2.11c0,0.2-0.05,0.34-0.15,0.42
		c-0.1,0.07-0.28,0.11-0.55,0.11h-1.36c-0.26,0-0.44-0.04-0.54-0.11c-0.1-0.07-0.15-0.22-0.16-0.44c-0.06-0.83-0.32-1.43-0.79-1.79
		c-0.47-0.36-1.17-0.55-2.1-0.55c-0.54,0-1,0.06-1.38,0.19c-0.38,0.12-0.69,0.34-0.93,0.65c-0.24,0.31-0.42,0.72-0.54,1.23
		s-0.17,1.15-0.17,1.93v3.68c0,1.47,0.24,2.51,0.73,3.11c0.49,0.6,1.25,0.9,2.29,0.9c0.96,0,1.69-0.25,2.19-0.74
		s0.74-1.34,0.74-2.54v-0.42h-1.69c-0.26,0-0.43-0.05-0.51-0.14c-0.08-0.09-0.12-0.28-0.12-0.56v-0.96c0-0.28,0.04-0.46,0.12-0.56
		s0.25-0.14,0.51-0.14h3.7c0.28,0,0.46,0.04,0.56,0.12c0.09,0.08,0.14,0.25,0.14,0.51v2.47c0,0.71-0.11,1.39-0.34,2.02
		c-0.23,0.63-0.57,1.19-1.04,1.67c-0.47,0.48-1.06,0.86-1.77,1.14c-0.72,0.28-1.55,0.42-2.52,0.42c-1.42,0-2.54-0.26-3.36-0.78
		c-0.82-0.52-1.45-1.25-1.87-2.2c-0.19-0.42-0.32-0.89-0.39-1.41c-0.07-0.52-0.11-1.2-0.11-2.05V111.19z"/>
	<path class="st8" d="M97.79,119.77c0,0.28-0.04,0.46-0.12,0.56c-0.08,0.1-0.25,0.14-0.51,0.14H88.9c-0.28,0-0.46-0.04-0.56-0.12
		c-0.1-0.08-0.14-0.25-0.14-0.51v-14.32c0-0.26,0.05-0.43,0.14-0.51c0.09-0.08,0.28-0.12,0.56-0.12h8.17c0.26,0,0.43,0.05,0.51,0.14
		c0.08,0.09,0.12,0.28,0.12,0.56v0.96c0,0.28-0.04,0.46-0.12,0.56c-0.08,0.1-0.25,0.14-0.51,0.14h-6.19v4.03h5.63
		c0.26,0,0.43,0.05,0.51,0.14c0.08,0.1,0.12,0.28,0.12,0.56v0.96c0,0.28-0.04,0.46-0.12,0.56s-0.25,0.14-0.51,0.14h-5.63v4.47h6.28
		c0.26,0,0.43,0.05,0.51,0.14c0.08,0.09,0.12,0.28,0.12,0.56V119.77z"/>
	<path class="st8" d="M103.16,109.94v9.89c0,0.26-0.05,0.43-0.14,0.51s-0.28,0.12-0.56,0.12h-1.2c-0.28,0-0.46-0.04-0.56-0.12
		c-0.1-0.08-0.14-0.25-0.14-0.51v-14.32c0-0.26,0.05-0.43,0.14-0.51c0.09-0.08,0.28-0.12,0.56-0.12h1.27c0.28,0,0.48,0.03,0.6,0.1
		s0.26,0.24,0.41,0.51l5.23,9.92v-9.89c0-0.26,0.05-0.43,0.14-0.51c0.09-0.08,0.28-0.12,0.56-0.12h1.2c0.28,0,0.46,0.04,0.56,0.12
		c0.09,0.08,0.14,0.25,0.14,0.51v14.32c0,0.26-0.05,0.43-0.14,0.51c-0.1,0.08-0.28,0.12-0.56,0.12h-1.27c-0.28,0-0.48-0.03-0.6-0.1
		c-0.12-0.07-0.26-0.24-0.41-0.51L103.16,109.94z"/>
	<path class="st8" d="M124.1,119.77c0,0.28-0.04,0.46-0.12,0.56c-0.08,0.1-0.25,0.14-0.51,0.14h-8.25c-0.28,0-0.46-0.04-0.56-0.12
		c-0.1-0.08-0.14-0.25-0.14-0.51v-14.32c0-0.26,0.05-0.43,0.14-0.51c0.09-0.08,0.28-0.12,0.56-0.12h8.17c0.26,0,0.43,0.05,0.51,0.14
		c0.08,0.09,0.12,0.28,0.12,0.56v0.96c0,0.28-0.04,0.46-0.12,0.56c-0.08,0.1-0.25,0.14-0.51,0.14h-6.19v4.03h5.63
		c0.26,0,0.43,0.05,0.51,0.14c0.08,0.1,0.12,0.28,0.12,0.56v0.96c0,0.28-0.04,0.46-0.12,0.56s-0.25,0.14-0.51,0.14h-5.63v4.47h6.28
		c0.26,0,0.43,0.05,0.51,0.14c0.08,0.09,0.12,0.28,0.12,0.56V119.77z"/>
	<path class="st8" d="M129.49,114.38v5.45c0,0.25-0.04,0.42-0.13,0.5c-0.09,0.09-0.28,0.13-0.57,0.13h-1.23
		c-0.29,0-0.48-0.04-0.57-0.13c-0.09-0.09-0.13-0.26-0.13-0.5v-14.32c0-0.25,0.04-0.42,0.13-0.5c0.09-0.09,0.28-0.13,0.57-0.13h4.69
		c1.74,0,3.01,0.36,3.81,1.08s1.2,1.88,1.2,3.47v0.42c0,2.22-0.88,3.62-2.65,4.2l3.26,5.78c0.06,0.12,0.09,0.21,0.09,0.28
		c0,0.23-0.19,0.35-0.57,0.35h-1.64c-0.25,0-0.43-0.04-0.54-0.12s-0.24-0.25-0.38-0.51l-2.96-5.45H129.49z M129.49,112.11h2.74
		c0.85,0,1.45-0.17,1.79-0.51c0.35-0.34,0.53-0.93,0.53-1.76v-0.31c0-0.88-0.17-1.49-0.51-1.84c-0.34-0.35-0.95-0.53-1.81-0.53
		h-2.74V112.11z"/>
	<path class="st8" d="M152.12,119.84c0.03,0.12,0.04,0.2,0.04,0.24c0,0.26-0.16,0.39-0.48,0.39h-1.53c-0.28,0-0.46-0.04-0.54-0.12
		s-0.16-0.25-0.25-0.51l-1.01-3.09h-5.73l-0.99,3.11c-0.09,0.26-0.17,0.43-0.25,0.5s-0.26,0.11-0.54,0.11h-1.44
		c-0.32,0-0.48-0.13-0.48-0.39c0-0.04,0.01-0.12,0.04-0.24l4.93-14.56c0.06-0.18,0.14-0.29,0.24-0.33c0.1-0.04,0.26-0.07,0.46-0.07
		h1.97c0.2,0,0.36,0.02,0.46,0.07c0.1,0.04,0.18,0.15,0.24,0.33L152.12,119.84z M143.34,114.47h4.27l-2.14-6.65L143.34,114.47z"/>
	<path class="st8" d="M163.09,119.77c0,0.28-0.04,0.46-0.12,0.56c-0.08,0.1-0.25,0.14-0.51,0.14h-7.79c-0.28,0-0.46-0.04-0.56-0.12
		s-0.14-0.25-0.14-0.51v-14.32c0-0.26,0.05-0.43,0.14-0.51s0.28-0.12,0.56-0.12h1.27c0.28,0,0.46,0.04,0.56,0.12
		c0.09,0.08,0.14,0.25,0.14,0.51v12.59h5.82c0.26,0,0.43,0.05,0.51,0.14c0.08,0.09,0.12,0.28,0.12,0.56V119.77z"/>
	<path class="st8" d="M174.34,119.77c0,0.28-0.04,0.46-0.12,0.56c-0.08,0.1-0.25,0.14-0.51,0.14h-7.79c-0.28,0-0.46-0.04-0.56-0.12
		c-0.1-0.08-0.14-0.25-0.14-0.51v-14.32c0-0.26,0.05-0.43,0.14-0.51c0.09-0.08,0.28-0.12,0.56-0.12h1.27c0.28,0,0.46,0.04,0.56,0.12
		s0.14,0.25,0.14,0.51v12.59h5.82c0.26,0,0.43,0.05,0.51,0.14s0.12,0.28,0.12,0.56V119.77z"/>
</g>
<g class="st1">
	<path class="st8" d="M175.32,104.88c0.25,0,0.42,0.03,0.51,0.1s0.19,0.2,0.3,0.41l3.17,6.46l3.13-6.46c0.1-0.2,0.2-0.34,0.3-0.41
		s0.27-0.1,0.51-0.1h1.51c0.37,0,0.55,0.12,0.55,0.35c0,0.1-0.02,0.2-0.07,0.28l-4.68,9.04v5.28c0,0.26-0.05,0.43-0.14,0.51
		s-0.28,0.12-0.56,0.12h-1.27c-0.28,0-0.46-0.04-0.56-0.12c-0.1-0.08-0.14-0.25-0.14-0.51v-5.28l-4.68-9.04
		c-0.04-0.09-0.07-0.18-0.07-0.28c0-0.23,0.18-0.35,0.55-0.35H175.32z"/>
</g>
<g class="st1">
	<path class="st8" d="M60.93,136.66c0.13,0.63,0.42,1.1,0.85,1.41c0.44,0.31,1.06,0.47,1.86,0.47c0.92,0,1.58-0.16,1.99-0.49
		s0.61-0.86,0.61-1.61c0-0.58-0.17-1.06-0.5-1.43s-0.88-0.67-1.62-0.91l-2.32-0.72c-1.08-0.33-1.91-0.85-2.48-1.55
		c-0.58-0.7-0.86-1.53-0.86-2.5v-0.2c0-1.46,0.46-2.59,1.39-3.39c0.93-0.8,2.24-1.2,3.95-1.2c1.84,0,3.2,0.49,4.09,1.47
		c0.61,0.7,0.92,1.55,0.92,2.54c0,0.23-0.05,0.39-0.14,0.47s-0.28,0.12-0.56,0.12h-1.25c-0.28,0-0.46-0.04-0.55-0.11
		s-0.15-0.22-0.18-0.44c-0.13-1.2-0.98-1.79-2.56-1.79c-1.61,0-2.41,0.72-2.41,2.17c0,0.29,0.04,0.55,0.11,0.77
		c0.07,0.22,0.2,0.41,0.37,0.58s0.4,0.32,0.69,0.46s0.64,0.27,1.06,0.4l2.32,0.72c1.11,0.34,1.94,0.87,2.48,1.59
		c0.55,0.72,0.82,1.6,0.82,2.64v0.29c0,1.42-0.46,2.51-1.38,3.27c-0.92,0.77-2.22,1.15-3.9,1.15c-1.98,0-3.44-0.46-4.36-1.38
		c-0.36-0.38-0.65-0.8-0.84-1.27c-0.2-0.47-0.3-0.96-0.3-1.47c0-0.23,0.05-0.39,0.14-0.47c0.09-0.08,0.28-0.12,0.56-0.12h1.23
		c0.26,0,0.44,0.04,0.54,0.11C60.81,136.3,60.88,136.44,60.93,136.66z"/>
	<path class="st8" d="M82.86,139.84c0.03,0.12,0.04,0.2,0.04,0.24c0,0.26-0.16,0.39-0.48,0.39h-1.53c-0.28,0-0.46-0.04-0.54-0.12
		s-0.16-0.25-0.25-0.51l-1.01-3.09h-5.73l-0.99,3.11c-0.09,0.26-0.17,0.43-0.25,0.5c-0.08,0.07-0.26,0.11-0.54,0.11h-1.44
		c-0.32,0-0.48-0.13-0.48-0.39c0-0.04,0.01-0.12,0.04-0.24l4.93-14.56c0.06-0.18,0.14-0.29,0.24-0.33c0.1-0.04,0.26-0.07,0.46-0.07
		h1.97c0.2,0,0.36,0.02,0.46,0.07c0.1,0.04,0.18,0.15,0.24,0.33L82.86,139.84z M74.08,134.47h4.27l-2.15-6.65L74.08,134.47z"/>
</g>
<g class="st1">
	<path class="st8" d="M86.71,127.25h-3.83c-0.26,0-0.43-0.05-0.51-0.14c-0.08-0.09-0.12-0.28-0.12-0.56v-0.96
		c0-0.28,0.04-0.46,0.12-0.56s0.25-0.14,0.51-0.14h10.33c0.26,0,0.43,0.05,0.51,0.14s0.12,0.28,0.12,0.56v0.96
		c0,0.28-0.04,0.46-0.12,0.56c-0.08,0.1-0.25,0.14-0.51,0.14h-3.83v12.59c0,0.26-0.05,0.43-0.14,0.51c-0.1,0.08-0.28,0.12-0.56,0.12
		h-1.27c-0.28,0-0.46-0.04-0.56-0.12c-0.09-0.08-0.14-0.25-0.14-0.51V127.25z"/>
	<path class="st8" d="M98.53,139.84c0,0.26-0.05,0.43-0.14,0.51c-0.1,0.08-0.28,0.12-0.56,0.12h-1.27c-0.28,0-0.46-0.04-0.56-0.12
		c-0.1-0.08-0.14-0.25-0.14-0.51v-14.32c0-0.26,0.05-0.43,0.14-0.51c0.09-0.08,0.28-0.12,0.56-0.12h1.27c0.28,0,0.46,0.04,0.56,0.12
		c0.09,0.08,0.14,0.25,0.14,0.51V139.84z"/>
	<path class="st8" d="M103.66,136.66c0.13,0.63,0.42,1.1,0.85,1.41c0.44,0.31,1.06,0.47,1.86,0.47c0.92,0,1.58-0.16,1.99-0.49
		s0.61-0.86,0.61-1.61c0-0.58-0.17-1.06-0.5-1.43s-0.88-0.67-1.62-0.91l-2.32-0.72c-1.08-0.33-1.91-0.85-2.48-1.55
		c-0.58-0.7-0.86-1.53-0.86-2.5v-0.2c0-1.46,0.46-2.59,1.39-3.39c0.93-0.8,2.24-1.2,3.95-1.2c1.84,0,3.2,0.49,4.09,1.47
		c0.61,0.7,0.92,1.55,0.92,2.54c0,0.23-0.05,0.39-0.14,0.47s-0.28,0.12-0.56,0.12h-1.25c-0.28,0-0.46-0.04-0.55-0.11
		s-0.15-0.22-0.18-0.44c-0.13-1.2-0.98-1.79-2.56-1.79c-1.61,0-2.41,0.72-2.41,2.17c0,0.29,0.04,0.55,0.11,0.77
		c0.07,0.22,0.2,0.41,0.37,0.58s0.4,0.32,0.69,0.46s0.64,0.27,1.06,0.4l2.32,0.72c1.11,0.34,1.94,0.87,2.48,1.59
		c0.55,0.72,0.82,1.6,0.82,2.64v0.29c0,1.42-0.46,2.51-1.38,3.27c-0.92,0.77-2.22,1.15-3.9,1.15c-1.98,0-3.44-0.46-4.36-1.38
		c-0.36-0.38-0.65-0.8-0.84-1.27c-0.2-0.47-0.3-0.96-0.3-1.47c0-0.23,0.05-0.39,0.14-0.47c0.09-0.08,0.28-0.12,0.56-0.12h1.23
		c0.26,0,0.44,0.04,0.54,0.11C103.54,136.3,103.61,136.44,103.66,136.66z"/>
	<path class="st8" d="M116.86,133.47v6.37c0,0.26-0.05,0.43-0.14,0.51c-0.1,0.08-0.28,0.12-0.56,0.12h-1.27
		c-0.28,0-0.46-0.04-0.56-0.12c-0.1-0.08-0.14-0.25-0.14-0.51v-14.32c0-0.26,0.05-0.43,0.14-0.51c0.09-0.08,0.28-0.12,0.56-0.12
		h8.12c0.26,0,0.43,0.05,0.51,0.14s0.12,0.28,0.12,0.56v0.96c0,0.28-0.04,0.46-0.12,0.56c-0.08,0.1-0.25,0.14-0.51,0.14h-6.15v3.85
		h5.58c0.26,0,0.43,0.05,0.51,0.14c0.08,0.09,0.12,0.28,0.12,0.56v0.96c0,0.28-0.04,0.46-0.12,0.56c-0.08,0.1-0.25,0.14-0.51,0.14
		H116.86z"/>
</g>
<g class="st1">
	<path class="st8" d="M136.62,139.84c0.03,0.12,0.04,0.2,0.04,0.24c0,0.26-0.16,0.39-0.48,0.39h-1.53c-0.28,0-0.46-0.04-0.54-0.12
		s-0.16-0.25-0.25-0.51l-1.01-3.09h-5.73l-0.99,3.11c-0.09,0.26-0.17,0.43-0.25,0.5c-0.08,0.07-0.26,0.11-0.54,0.11h-1.44
		c-0.32,0-0.48-0.13-0.48-0.39c0-0.04,0.01-0.12,0.04-0.24l4.93-14.56c0.06-0.18,0.14-0.29,0.24-0.33c0.1-0.04,0.26-0.07,0.46-0.07
		h1.97c0.2,0,0.36,0.02,0.46,0.07c0.1,0.04,0.18,0.15,0.24,0.33L136.62,139.84z M127.84,134.47h4.27l-2.15-6.65L127.84,134.47z"/>
	<path class="st8" d="M145.9,135.87c0.01-0.22,0.07-0.37,0.16-0.44c0.09-0.07,0.27-0.11,0.54-0.11h1.31c0.28,0,0.46,0.04,0.56,0.12
		s0.14,0.24,0.14,0.47c0,0.79-0.1,1.44-0.29,1.96s-0.5,1-0.94,1.46c-0.96,0.99-2.42,1.49-4.38,1.49c-1.2,0-2.22-0.25-3.06-0.76
		c-0.85-0.5-1.49-1.24-1.93-2.22c-0.19-0.42-0.32-0.89-0.39-1.4s-0.11-1.2-0.11-2.06v-3.2c0-0.79,0.04-1.45,0.12-1.97
		c0.08-0.53,0.21-1.02,0.38-1.49c0.39-1.04,1.04-1.83,1.94-2.38c0.9-0.55,2.01-0.82,3.34-0.82c1.87,0,3.25,0.49,4.16,1.47
		c0.42,0.45,0.72,0.94,0.9,1.47c0.17,0.53,0.26,1.16,0.26,1.9c0,0.23-0.05,0.39-0.14,0.47c-0.09,0.08-0.28,0.12-0.56,0.12h-1.36
		c-0.26,0-0.44-0.04-0.54-0.11c-0.1-0.07-0.15-0.22-0.17-0.44c-0.03-0.92-0.25-1.58-0.66-1.97c-0.41-0.39-1.09-0.59-2.04-0.59
		c-1.07,0-1.82,0.3-2.25,0.91c-0.44,0.61-0.66,1.63-0.66,3.08v3.68c0,1.4,0.22,2.41,0.67,3.03c0.44,0.62,1.19,0.93,2.22,0.93
		c0.92,0,1.6-0.21,2.05-0.63C145.63,137.42,145.87,136.76,145.9,135.87z"/>
</g>
<g class="st1">
	<path class="st8" d="M154.65,127.25h-3.83c-0.26,0-0.43-0.05-0.51-0.14c-0.08-0.09-0.12-0.28-0.12-0.56v-0.96
		c0-0.28,0.04-0.46,0.12-0.56s0.25-0.14,0.51-0.14h10.33c0.26,0,0.43,0.05,0.51,0.14s0.12,0.28,0.12,0.56v0.96
		c0,0.28-0.04,0.46-0.12,0.56c-0.08,0.1-0.25,0.14-0.51,0.14h-3.83v12.59c0,0.26-0.05,0.43-0.14,0.51c-0.1,0.08-0.28,0.12-0.56,0.12
		h-1.27c-0.28,0-0.46-0.04-0.56-0.12c-0.09-0.08-0.14-0.25-0.14-0.51V127.25z"/>
	<path class="st8" d="M168.27,124.53c1.3,0,2.39,0.25,3.27,0.75s1.54,1.24,1.96,2.22c0.19,0.42,0.32,0.9,0.39,1.42
		c0.07,0.53,0.11,1.2,0.11,2.04v3.2c0,0.76-0.04,1.41-0.12,1.96c-0.08,0.55-0.21,1.05-0.38,1.5c-0.42,1.05-1.08,1.85-1.96,2.39
		c-0.88,0.54-1.97,0.81-3.27,0.81c-1.3,0-2.39-0.25-3.27-0.76c-0.88-0.5-1.54-1.24-1.96-2.22c-0.19-0.42-0.32-0.9-0.39-1.42
		c-0.07-0.53-0.11-1.2-0.11-2.04v-3.2c0-0.76,0.04-1.41,0.12-1.96c0.08-0.55,0.21-1.05,0.38-1.5c0.42-1.05,1.08-1.85,1.96-2.39
		S166.97,124.53,168.27,124.53z M168.27,126.88c-1.08,0-1.85,0.31-2.31,0.92c-0.46,0.61-0.69,1.63-0.69,3.04v3.68
		c0,1.42,0.23,2.43,0.69,3.04c0.46,0.61,1.23,0.92,2.31,0.92c1.08,0,1.85-0.31,2.31-0.92c0.46-0.61,0.69-1.63,0.69-3.04v-3.68
		c0-1.42-0.23-2.43-0.69-3.04C170.12,127.18,169.35,126.88,168.27,126.88z"/>
</g>
<g class="st1">
	<path class="st8" d="M179.82,134.38v5.45c0,0.25-0.04,0.42-0.13,0.5c-0.09,0.09-0.28,0.13-0.57,0.13h-1.23
		c-0.29,0-0.48-0.04-0.57-0.13c-0.09-0.09-0.13-0.26-0.13-0.5v-14.32c0-0.25,0.04-0.42,0.13-0.5c0.09-0.09,0.28-0.13,0.57-0.13h4.68
		c1.74,0,3.01,0.36,3.81,1.08s1.2,1.88,1.2,3.47v0.42c0,2.22-0.88,3.62-2.65,4.2l3.26,5.78c0.06,0.12,0.09,0.21,0.09,0.28
		c0,0.23-0.19,0.35-0.57,0.35h-1.64c-0.25,0-0.43-0.04-0.54-0.12s-0.24-0.25-0.38-0.51l-2.96-5.45H179.82z M179.82,132.11h2.74
		c0.85,0,1.45-0.17,1.79-0.51c0.35-0.34,0.53-0.93,0.53-1.76v-0.31c0-0.88-0.17-1.49-0.51-1.84c-0.34-0.35-0.95-0.53-1.81-0.53
		h-2.74V132.11z"/>
	<path class="st8" d="M190.15,124.88c0.25,0,0.42,0.03,0.51,0.1s0.19,0.2,0.3,0.41l3.17,6.46l3.13-6.46c0.1-0.2,0.2-0.34,0.3-0.41
		s0.27-0.1,0.51-0.1h1.51c0.37,0,0.55,0.12,0.55,0.35c0,0.1-0.02,0.2-0.07,0.28l-4.68,9.04v5.28c0,0.26-0.05,0.43-0.14,0.51
		s-0.28,0.12-0.56,0.12h-1.27c-0.28,0-0.46-0.04-0.56-0.12c-0.1-0.08-0.14-0.25-0.14-0.51v-5.28l-4.68-9.04
		c-0.04-0.09-0.07-0.18-0.07-0.28c0-0.23,0.18-0.35,0.55-0.35H190.15z"/>
</g>
</svg>
