<?xml version="1.0" encoding="UTF-8"?><svg id="Layer_1" xmlns="http://www.w3.org/2000/svg" xmlns:xlink="http://www.w3.org/1999/xlink" viewBox="0 0 258.84 192.76"><defs><style>.cls-1{fill:none;}.cls-2{clip-path:url(#clippath);}.cls-3{fill:#fff;}.cls-4{fill:#83bd41;}.cls-5{fill:#84bd00;}.cls-6{clip-path:url(#clippath-1);}.cls-7{clip-path:url(#clippath-4);}.cls-8{clip-path:url(#clippath-3);}.cls-9{clip-path:url(#clippath-2);}</style><clipPath id="clippath"><polyline class="cls-1" points="34.7 102.37 26.43 102.37 26.43 90.51 34.7 90.51 34.7 102.37"/></clipPath><clipPath id="clippath-1"><polyline class="cls-1" points="68.33 102.14 64.09 102.14 64.09 90.75 68.33 90.75 68.33 102.14"/></clipPath><clipPath id="clippath-2"><polyline class="cls-1" points="106.74 102.14 99.15 102.14 99.15 90.51 106.74 90.51 106.74 102.14"/></clipPath><clipPath id="clippath-3"><polyline class="cls-1" points="143.2 102.37 135.35 102.37 135.35 90.51 143.2 90.51 143.2 102.37"/></clipPath><clipPath id="clippath-4"><polyline class="cls-1" points="231.68 102.37 224.14 102.37 224.14 90.75 231.68 90.75 231.68 102.37"/></clipPath></defs><path class="cls-5" d="M11.33,.5C5.35,.5,.5,5.35,.5,11.33V160.2c0,5.8,4.7,10.5,10.5,10.5H247.84c5.8,0,10.5-4.7,10.5-10.5V11c0-5.8-4.7-10.5-10.5-10.5H11.33"/><path d="M247.84,0H11.33C5.07,0,0,5.07,0,11.33V182.26c0,5.8,4.72,10.5,10.54,10.5H248.3c5.82,0,10.54-4.7,10.54-10.5V11c0-6.07-4.92-11-11-11ZM1,125.67V11.33c0-2.86,1.16-5.43,3.03-7.3,1.87-1.87,4.45-3.03,7.31-3.03H247.84c2.76,0,5.26,1.12,7.07,2.93,1.81,1.81,2.93,4.3,2.93,7.07V125.67H1Z"/><g><path d="M18.9,25.36c.14,.66,.44,1.16,.9,1.49,.46,.33,1.12,.5,1.96,.5,.97,0,1.67-.18,2.1-.53s.65-.92,.65-1.69c0-.62-.18-1.12-.53-1.51-.35-.39-.92-.71-1.71-.96l-2.45-.76c-1.14-.35-2.01-.9-2.62-1.64-.61-.74-.91-1.62-.91-2.63v-.21c0-1.54,.49-2.73,1.48-3.58,.98-.85,2.37-1.27,4.15-1.27,1.94,0,3.38,.52,4.32,1.55,.65,.74,.97,1.63,.97,2.68,0,.25-.05,.41-.15,.5-.1,.08-.3,.13-.59,.13h-1.32c-.29,0-.48-.04-.58-.12s-.15-.23-.18-.46c-.14-1.26-1.04-1.89-2.7-1.89s-2.54,.76-2.54,2.28c0,.62,.17,1.09,.5,1.42s.95,.63,1.86,.91l2.45,.76c1.17,.35,2.04,.91,2.62,1.67,.58,.76,.87,1.69,.87,2.78v.3c0,1.49-.48,2.64-1.45,3.45-.97,.81-2.34,1.21-4.11,1.21-2.09,0-3.62-.48-4.59-1.45-.8-.83-1.2-1.79-1.2-2.89,0-.25,.05-.41,.15-.5,.1-.08,.3-.13,.59-.13h1.29c.28,0,.47,.04,.57,.12s.17,.23,.22,.46Z"/><path d="M29.58,22.96v-3.37c0-1.58,.18-2.8,.53-3.65,.45-1.11,1.17-1.95,2.17-2.52,1-.57,2.18-.85,3.55-.85,1.05,0,2.01,.17,2.88,.52s1.58,.88,2.1,1.62c.52,.73,.78,1.67,.78,2.8,0,.22-.05,.36-.16,.44-.11,.08-.3,.12-.58,.12h-1.43c-.28,0-.47-.04-.57-.12-.1-.08-.16-.23-.17-.46-.06-.86-.34-1.49-.83-1.88-.49-.39-1.23-.59-2.22-.59-.75,0-1.37,.12-1.83,.37s-.81,.68-1.03,1.29c-.22,.62-.32,1.46-.32,2.54v3.88c0,1.55,.26,2.65,.77,3.28,.52,.63,1.32,.95,2.41,.95,1.02,0,1.78-.26,2.31-.78,.52-.52,.78-1.42,.78-2.68v-.44h-1.78c-.28,0-.46-.05-.54-.15s-.13-.3-.13-.59v-1.02c0-.29,.04-.49,.13-.59,.08-.1,.27-.15,.54-.15h3.9c.29,0,.49,.04,.59,.13,.1,.08,.15,.27,.15,.54v2.61c0,1.02-.22,1.94-.65,2.78-.43,.84-1.09,1.51-1.97,2.01-.89,.5-2,.75-3.36,.75-1.49,0-2.67-.28-3.54-.83-.87-.55-1.53-1.32-1.97-2.31-.2-.43-.34-.92-.42-1.48-.08-.55-.12-1.28-.12-2.17Z"/><path d="M50.15,12.57c2.75,0,4.59,1.05,5.52,3.14,.2,.43,.34,.93,.42,1.49,.08,.56,.12,1.28,.12,2.16v3.37c0,.8-.04,1.49-.13,2.07-.08,.58-.22,1.1-.4,1.58-.45,1.09-1.14,1.93-2.08,2.5-.94,.58-2.08,.87-3.44,.87-2.75,0-4.59-1.05-5.52-3.14-.2-.43-.34-.93-.42-1.49-.08-.56-.12-1.28-.12-2.16v-3.37c0-.8,.04-1.49,.13-2.07,.08-.58,.22-1.1,.4-1.58,.45-1.09,1.14-1.93,2.08-2.5,.94-.58,2.08-.87,3.44-.87Zm.67-1.45l-.67-.69-.67,.69c-.29,.29-.49,.47-.6,.54-.11,.07-.28,.1-.53,.1h-1.62c-.26,0-.39-.08-.39-.25,0-.05,.02-.1,.07-.16,.05-.06,.14-.16,.28-.3l1.75-1.68c.28-.28,.48-.45,.6-.52,.12-.07,.29-.1,.51-.1h1.2c.22,0,.38,.03,.51,.1s.32,.24,.6,.52l1.75,1.68c.14,.14,.23,.24,.28,.3,.05,.06,.07,.12,.07,.16,0,.17-.13,.25-.39,.25h-1.62c-.22,0-.38-.03-.51-.1-.12-.07-.33-.25-.62-.54Zm-.67,3.92c-1.14,0-1.95,.32-2.44,.97-.48,.65-.73,1.72-.73,3.21v3.88c0,1.49,.24,2.56,.73,3.21,.48,.65,1.3,.97,2.44,.97s1.95-.32,2.43-.97c.48-.65,.73-1.72,.73-3.21v-3.88c0-1.49-.24-2.56-.73-3.21-.48-.65-1.3-.97-2.43-.97Z"/><path d="M64.39,22.96h-2.52v5.75c0,.26-.05,.44-.14,.53s-.29,.14-.6,.14h-1.29c-.31,0-.51-.05-.6-.14s-.14-.27-.14-.53V13.61c0-.26,.05-.44,.14-.53s.29-.14,.6-.14h4.94c1.82,0,3.15,.38,4,1.15,.85,.77,1.28,1.98,1.28,3.65v.44c0,2.34-.93,3.82-2.79,4.43l3.44,6.09c.06,.12,.09,.22,.09,.3,0,.25-.2,.37-.6,.37h-1.73c-.25,0-.43-.04-.55-.13-.12-.08-.26-.27-.42-.54l-3.12-5.75Zm-2.52-7.62v5.22h2.88c.89,0,1.52-.18,1.89-.55,.37-.37,.55-.98,.55-1.85v-.32c0-.91-.18-1.55-.54-1.93-.36-.38-1-.57-1.9-.57h-2.88Z"/><path d="M89.72,13.61v15.09c0,.28-.05,.46-.15,.54-.1,.08-.3,.13-.59,.13h-1.34c-.29,0-.49-.04-.59-.13-.1-.08-.15-.27-.15-.54v-6.69h-6.23v6.69c0,.28-.05,.46-.15,.54-.1,.08-.3,.13-.59,.13h-1.34c-.29,0-.49-.04-.59-.13-.1-.08-.15-.27-.15-.54V13.61c0-.28,.05-.46,.15-.54s.3-.13,.59-.13h1.34c.29,0,.49,.04,.59,.13s.15,.27,.15,.54v5.91h6.23v-5.91c0-.28,.05-.46,.15-.54s.3-.13,.59-.13h1.34c.29,0,.49,.04,.59,.13,.1,.08,.15,.27,.15,.54Z"/><path d="M92.38,12.94h1.73c.26,0,.44,.03,.54,.1,.1,.07,.2,.21,.31,.43l3.35,6.81,3.3-6.81c.11-.22,.21-.36,.31-.43,.1-.07,.28-.1,.54-.1h1.59c.38,0,.58,.12,.58,.37,0,.11-.02,.21-.07,.3l-4.94,9.53v5.56c0,.28-.05,.46-.15,.54-.1,.08-.3,.13-.59,.13h-1.34c-.29,0-.49-.04-.59-.13-.1-.08-.15-.27-.15-.54v-5.56l-4.94-9.53c-.05-.09-.07-.19-.07-.3,0-.25,.19-.37,.58-.37Z"/><path d="M116.33,27.62v1.02c0,.29-.04,.49-.13,.59s-.27,.15-.54,.15h-8.22c-.29,0-.49-.04-.59-.13-.1-.08-.15-.27-.15-.54V13.61c0-.28,.05-.46,.15-.54s.3-.13,.59-.13h1.34c.29,0,.49,.04,.59,.13s.15,.27,.15,.54v13.27h6.14c.28,0,.46,.05,.54,.15s.13,.3,.13,.59Z"/><path d="M128.68,27.62v1.02c0,.29-.04,.49-.13,.59-.08,.1-.27,.15-.54,.15h-8.7c-.29,0-.49-.04-.59-.13-.1-.08-.15-.27-.15-.54V13.61c0-.28,.05-.46,.15-.54s.3-.13,.59-.13h8.61c.28,0,.46,.05,.54,.15,.08,.1,.13,.3,.13,.59v1.02c0,.29-.04,.49-.13,.59-.08,.1-.27,.15-.54,.15h-6.53v4.25h5.93c.28,0,.46,.05,.54,.15,.08,.1,.13,.3,.13,.59v1.02c0,.29-.04,.49-.13,.59-.08,.1-.27,.15-.54,.15h-5.93v4.71h6.62c.28,0,.46,.05,.54,.15,.08,.1,.13,.3,.13,.59Z"/><path d="M139.85,28.73l-5.52-10.45v10.43c0,.28-.05,.46-.15,.54-.1,.08-.3,.13-.59,.13h-1.27c-.29,0-.49-.04-.59-.13-.1-.08-.15-.27-.15-.54V13.61c0-.28,.05-.46,.15-.54,.1-.08,.3-.13,.59-.13h1.34c.29,0,.5,.03,.63,.1,.13,.07,.27,.25,.43,.54l5.52,10.45V13.61c0-.28,.05-.46,.15-.54,.1-.08,.3-.13,.59-.13h1.27c.29,0,.49,.04,.59,.13,.1,.08,.15,.27,.15,.54v15.09c0,.28-.05,.46-.15,.54-.1,.08-.3,.13-.59,.13h-1.34c-.29,0-.5-.03-.63-.1-.13-.07-.27-.25-.43-.54Z"/><path d="M147.05,12.94h4.71c1.51,0,2.7,.31,3.59,.92,.88,.62,1.51,1.35,1.88,2.22,.17,.42,.3,.88,.4,1.4,.1,.52,.15,1.21,.15,2.09v3.3c0,.86-.05,1.55-.15,2.05s-.23,.96-.4,1.36c-.35,.85-.94,1.57-1.77,2.18-.82,.61-1.94,.91-3.36,.91h-5.05c-.29,0-.49-.04-.59-.13-.1-.08-.15-.27-.15-.54V13.61c0-.28,.05-.46,.15-.54,.1-.08,.3-.13,.59-.13Zm2.08,2.49v11.45h2.58c.69,0,1.27-.12,1.74-.36,.47-.24,.83-.65,1.07-1.23,.25-.58,.37-1.39,.37-2.42v-3.42c0-1.51-.28-2.55-.84-3.14-.56-.58-1.34-.88-2.34-.88h-2.58Z"/><path d="M163.5,13.61v15.09c0,.28-.05,.46-.15,.54-.1,.08-.3,.13-.59,.13h-1.34c-.29,0-.49-.04-.59-.13-.1-.08-.15-.27-.15-.54V13.61c0-.28,.05-.46,.15-.54,.1-.08,.3-.13,.59-.13h1.34c.29,0,.49,.04,.59,.13,.1,.08,.15,.27,.15,.54Z"/><path d="M167.57,12.94h4.71c1.51,0,2.7,.31,3.59,.92,.88,.62,1.51,1.35,1.88,2.22,.17,.42,.3,.88,.4,1.4,.1,.52,.15,1.21,.15,2.09v3.3c0,.86-.05,1.55-.15,2.05s-.23,.96-.4,1.36c-.35,.85-.94,1.57-1.77,2.18-.82,.61-1.94,.91-3.36,.91h-5.05c-.29,0-.49-.04-.59-.13-.1-.08-.15-.27-.15-.54V13.61c0-.28,.05-.46,.15-.54,.1-.08,.3-.13,.59-.13Zm2.08,2.49v11.45h2.58c.69,0,1.27-.12,1.74-.36,.47-.24,.83-.65,1.07-1.23,.25-.58,.37-1.39,.37-2.42v-3.42c0-1.51-.28-2.55-.84-3.14-.56-.58-1.34-.88-2.34-.88h-2.58Z"/><path d="M191.41,29.37h-4.85c-.29,0-.49-.04-.59-.13-.1-.08-.15-.27-.15-.54V13.61c0-.28,.05-.46,.15-.54,.1-.08,.3-.13,.59-.13h5.31c1.63,0,2.87,.35,3.73,1.06,.85,.71,1.28,1.74,1.28,3.09v.3c0,.85-.21,1.57-.63,2.17-.42,.6-.96,.98-1.6,1.15,.71,.18,1.3,.6,1.77,1.26,.47,.65,.7,1.43,.7,2.34v.37c0,1.71-.49,2.92-1.47,3.62-.98,.71-2.39,1.06-4.23,1.06Zm-2.82-14.03v4.27h3.09c.77,0,1.35-.15,1.73-.46,.38-.31,.58-.81,.58-1.5v-.3c0-1.34-.83-2.01-2.49-2.01h-2.91Zm0,6.58v5.05h2.91c.85,0,1.5-.18,1.97-.53,.47-.35,.7-.95,.7-1.78v-.46c0-.71-.2-1.27-.6-1.67-.4-.41-.98-.61-1.73-.61h-3.25Z"/><path d="M198.81,12.94h1.55c.28,0,.47,.04,.58,.12,.11,.08,.19,.26,.25,.55l2.19,11.33,2.4-11.01c.03-.17,.1-.28,.22-.33,.12-.05,.29-.08,.52-.08h1.38c.23,0,.4,.03,.52,.08s.19,.17,.22,.33l2.17,11.12,2.45-11.45c.06-.29,.15-.48,.25-.55,.11-.08,.3-.12,.58-.12h1.5c.32,0,.48,.14,.48,.42,0,.12-.02,.28-.07,.46l-3.42,15.14c-.03,.17-.11,.28-.23,.33s-.29,.08-.51,.08h-1.78c-.23,0-.4-.03-.52-.08s-.19-.17-.22-.33l-2.26-10.85-2.24,10.85c-.03,.17-.1,.28-.22,.33-.12,.05-.29,.08-.52,.08h-1.73c-.22,0-.38-.03-.51-.08-.12-.05-.2-.17-.23-.33l-3.23-15.14c-.05-.18-.07-.34-.07-.46,0-.28,.16-.42,.48-.42Z"/><path d="M217.39,12.94h1.73c.26,0,.44,.03,.54,.1,.1,.07,.2,.21,.31,.43l3.35,6.81,3.3-6.81c.11-.22,.21-.36,.31-.43,.1-.07,.28-.1,.54-.1h1.59c.38,0,.58,.12,.58,.37,0,.11-.02,.21-.07,.3l-4.94,9.53v5.56c0,.28-.05,.46-.15,.54-.1,.08-.3,.13-.59,.13h-1.34c-.29,0-.49-.04-.59-.13-.1-.08-.15-.27-.15-.54v-5.56l-4.94-9.53c-.05-.09-.07-.19-.07-.3,0-.25,.19-.37,.58-.37Z"/><path d="M232.46,12.94h4.71c1.51,0,2.7,.31,3.59,.92,.88,.62,1.51,1.35,1.88,2.22,.17,.42,.3,.88,.4,1.4,.1,.52,.15,1.21,.15,2.09v3.3c0,.86-.05,1.55-.15,2.05s-.23,.96-.4,1.36c-.35,.85-.94,1.57-1.77,2.18-.82,.61-1.94,.91-3.36,.91h-5.05c-.29,0-.49-.04-.59-.13-.1-.08-.15-.27-.15-.54V13.61c0-.28,.05-.46,.15-.54,.1-.08,.3-.13,.59-.13Zm2.08,2.49v11.45h2.58c.69,0,1.27-.12,1.74-.36,.47-.24,.83-.65,1.07-1.23,.25-.58,.37-1.39,.37-2.42v-3.42c0-1.51-.28-2.55-.84-3.14-.56-.58-1.34-.88-2.34-.88h-2.58Z"/></g><g><path d="M24.96,45.85h-5.89v6.72c0,.28-.05,.46-.15,.54-.1,.08-.3,.13-.59,.13h-1.34c-.29,0-.49-.04-.59-.13-.1-.08-.15-.27-.15-.54v-15.09c0-.28,.05-.46,.15-.54s.3-.13,.59-.13h8.56c.28,0,.46,.05,.54,.15s.13,.3,.13,.59v1.02c0,.29-.04,.49-.13,.59s-.27,.15-.54,.15h-6.49v4.06h5.89c.28,0,.46,.05,.54,.15,.08,.1,.13,.3,.13,.59v1.02c0,.29-.04,.49-.13,.59-.08,.1-.27,.15-.54,.15Z"/><path d="M34.33,36.44c2.75,0,4.59,1.05,5.52,3.14,.2,.43,.34,.93,.42,1.49,.08,.56,.12,1.28,.12,2.16v3.37c0,.8-.04,1.49-.13,2.07-.08,.58-.22,1.1-.4,1.58-.45,1.09-1.14,1.93-2.08,2.5-.94,.58-2.08,.87-3.44,.87-2.75,0-4.59-1.05-5.52-3.14-.2-.43-.34-.93-.42-1.49-.08-.56-.12-1.28-.12-2.16v-3.37c0-.8,.04-1.49,.13-2.07,.08-.58,.22-1.1,.4-1.58,.45-1.09,1.14-1.93,2.08-2.5,.94-.58,2.08-.87,3.44-.87Zm0,2.47c-1.14,0-1.95,.32-2.44,.97-.48,.65-.73,1.72-.73,3.21v3.88c0,1.49,.24,2.56,.73,3.21,.48,.65,1.3,.97,2.44,.97s1.95-.32,2.43-.97c.48-.65,.73-1.72,.73-3.21v-3.88c0-1.49-.24-2.56-.73-3.21-.48-.65-1.3-.97-2.43-.97Z"/><path d="M48.92,36.44c2.75,0,4.59,1.05,5.52,3.14,.2,.43,.34,.93,.42,1.49,.08,.56,.12,1.28,.12,2.16v3.37c0,.8-.04,1.49-.13,2.07-.08,.58-.22,1.1-.4,1.58-.45,1.09-1.14,1.93-2.08,2.5-.94,.58-2.08,.87-3.44,.87-2.75,0-4.59-1.05-5.52-3.14-.2-.43-.34-.93-.42-1.49-.08-.56-.12-1.28-.12-2.16v-3.37c0-.8,.04-1.49,.13-2.07,.08-.58,.22-1.1,.4-1.58,.45-1.09,1.14-1.93,2.08-2.5,.94-.58,2.08-.87,3.44-.87Zm0,2.47c-1.14,0-1.95,.32-2.44,.97-.48,.65-.73,1.72-.73,3.21v3.88c0,1.49,.24,2.56,.73,3.21,.48,.65,1.3,.97,2.44,.97s1.95-.32,2.43-.97c.48-.65,.73-1.72,.73-3.21v-3.88c0-1.49-.24-2.56-.73-3.21-.48-.65-1.3-.97-2.43-.97Z"/><path d="M58.61,36.81h4.71c1.51,0,2.7,.31,3.59,.92,.88,.62,1.51,1.35,1.88,2.22,.17,.42,.3,.88,.4,1.4,.1,.52,.15,1.21,.15,2.09v3.3c0,.86-.05,1.55-.15,2.05s-.23,.96-.4,1.36c-.35,.85-.94,1.57-1.77,2.18-.82,.61-1.94,.91-3.36,.91h-5.05c-.29,0-.49-.04-.59-.13-.1-.08-.15-.27-.15-.54v-15.09c0-.28,.05-.46,.15-.54s.3-.13,.59-.13Zm2.08,2.49v11.45h2.58c.69,0,1.27-.12,1.74-.36,.47-.24,.83-.65,1.07-1.23,.25-.58,.37-1.39,.37-2.42v-3.42c0-1.51-.28-2.55-.84-3.14-.56-.58-1.34-.88-2.34-.88h-2.58Z"/><path d="M88.73,37.48v15.09c0,.28-.05,.46-.15,.54-.1,.08-.3,.13-.59,.13h-1.34c-.29,0-.49-.04-.59-.13-.1-.08-.15-.27-.15-.54v-6.69h-6.23v6.69c0,.28-.05,.46-.15,.54-.1,.08-.3,.13-.59,.13h-1.34c-.29,0-.49-.04-.59-.13-.1-.08-.15-.27-.15-.54v-15.09c0-.28,.05-.46,.15-.54s.3-.13,.59-.13h1.34c.29,0,.49,.04,.59,.13s.15,.27,.15,.54v5.91h6.23v-5.91c0-.28,.05-.46,.15-.54s.3-.13,.59-.13h1.34c.29,0,.49,.04,.59,.13,.1,.08,.15,.27,.15,.54Z"/><path d="M91.38,36.81h1.73c.26,0,.44,.03,.54,.1,.1,.07,.2,.21,.31,.43l3.35,6.81,3.3-6.81c.11-.22,.21-.36,.31-.43,.1-.07,.28-.1,.54-.1h1.59c.38,0,.58,.12,.58,.37,0,.11-.02,.21-.07,.3l-4.94,9.53v5.56c0,.28-.05,.46-.15,.54-.1,.08-.3,.13-.59,.13h-1.34c-.29,0-.49-.04-.59-.13-.1-.08-.15-.27-.15-.54v-5.56l-4.94-9.53c-.05-.09-.07-.19-.07-.3,0-.25,.19-.37,.58-.37Z"/></g><g><path d="M104.47,46.82v-3.37c0-1.58,.18-2.8,.53-3.65,.45-1.11,1.17-1.95,2.17-2.52,1-.57,2.18-.85,3.55-.85,1.05,0,2.01,.17,2.88,.52s1.58,.88,2.1,1.62c.52,.73,.78,1.67,.78,2.8,0,.22-.05,.36-.16,.44-.11,.08-.3,.12-.58,.12h-1.43c-.28,0-.47-.04-.57-.12-.1-.08-.16-.23-.17-.46-.06-.86-.34-1.49-.83-1.88-.49-.39-1.23-.59-2.22-.59-.75,0-1.37,.12-1.83,.37s-.81,.68-1.03,1.29c-.22,.62-.32,1.46-.32,2.54v3.88c0,1.55,.26,2.65,.77,3.28,.52,.63,1.32,.95,2.41,.95,1.02,0,1.78-.26,2.31-.78,.52-.52,.78-1.42,.78-2.68v-.44h-1.78c-.28,0-.46-.05-.54-.15s-.13-.3-.13-.59v-1.02c0-.29,.04-.49,.13-.59,.08-.1,.27-.15,.54-.15h3.9c.29,0,.49,.04,.59,.13,.1,.08,.15,.27,.15,.54v2.61c0,1.02-.22,1.94-.65,2.78-.43,.84-1.09,1.51-1.97,2.01-.89,.5-2,.75-3.36,.75-1.49,0-2.67-.28-3.54-.83-.87-.55-1.53-1.32-1.97-2.31-.2-.43-.34-.92-.42-1.48-.08-.55-.12-1.28-.12-2.17Z"/><path d="M122.22,37.48v15.09c0,.28-.05,.46-.15,.54-.1,.08-.3,.13-.59,.13h-1.34c-.29,0-.49-.04-.59-.13-.1-.08-.15-.27-.15-.54v-15.09c0-.28,.05-.46,.15-.54s.3-.13,.59-.13h1.34c.29,0,.49,.04,.59,.13s.15,.27,.15,.54Z"/><path d="M135.65,51.49v1.02c0,.29-.04,.49-.13,.59-.08,.1-.26,.15-.54,.15h-8.7c-.29,0-.49-.04-.59-.13-.1-.08-.15-.27-.15-.54v-15.09c0-.28,.05-.46,.15-.54s.3-.13,.59-.13h8.61c.28,0,.46,.05,.54,.15s.13,.3,.13,.59v1.02c0,.29-.04,.49-.13,.59s-.27,.15-.54,.15h-6.53v4.25h5.93c.28,0,.46,.05,.54,.15,.08,.1,.13,.3,.13,.59v1.02c0,.29-.04,.49-.13,.59-.08,.1-.27,.15-.54,.15h-5.93v4.71h6.62c.28,0,.46,.05,.54,.15,.09,.1,.13,.3,.13,.59Z"/><path d="M146.82,52.59l-5.52-10.45v10.43c0,.28-.05,.46-.15,.54-.1,.08-.3,.13-.59,.13h-1.27c-.29,0-.49-.04-.59-.13-.1-.08-.15-.27-.15-.54v-15.09c0-.28,.05-.46,.15-.54,.1-.08,.3-.13,.59-.13h1.34c.29,0,.5,.03,.63,.1,.13,.07,.27,.25,.43,.54l5.52,10.45v-10.43c0-.28,.05-.46,.15-.54,.1-.08,.3-.13,.59-.13h1.27c.29,0,.49,.04,.59,.13,.1,.08,.15,.27,.15,.54v15.09c0,.28-.05,.46-.15,.54-.1,.08-.3,.13-.59,.13h-1.34c-.29,0-.5-.03-.63-.1-.13-.07-.27-.25-.43-.54Z"/><path d="M163.39,51.49v1.02c0,.29-.04,.49-.13,.59-.08,.1-.26,.15-.54,.15h-8.7c-.29,0-.49-.04-.59-.13-.1-.08-.15-.27-.15-.54v-15.09c0-.28,.05-.46,.15-.54,.1-.08,.3-.13,.59-.13h8.61c.28,0,.46,.05,.54,.15,.08,.1,.13,.3,.13,.59v1.02c0,.29-.04,.49-.13,.59-.08,.1-.27,.15-.54,.15h-6.53v4.25h5.93c.28,0,.46,.05,.54,.15,.08,.1,.13,.3,.13,.59v1.02c0,.29-.04,.49-.13,.59-.08,.1-.27,.15-.54,.15h-5.93v4.71h6.62c.28,0,.46,.05,.54,.15,.08,.1,.13,.3,.13,.59Z"/><path d="M176.2,46.82h-2.52v5.75c0,.26-.05,.44-.14,.53-.09,.09-.29,.14-.6,.14h-1.29c-.31,0-.51-.05-.6-.14-.09-.09-.14-.27-.14-.53v-15.09c0-.26,.05-.44,.14-.53,.09-.09,.29-.14,.6-.14h4.94c1.82,0,3.15,.38,4,1.15,.85,.77,1.28,1.98,1.28,3.65v.44c0,2.34-.93,3.82-2.79,4.43l3.44,6.09c.06,.12,.09,.22,.09,.3,0,.25-.2,.37-.6,.37h-1.73c-.25,0-.43-.04-.55-.13-.12-.08-.26-.27-.42-.54l-3.12-5.75Zm-2.52-7.62v5.22h2.88c.89,0,1.52-.18,1.89-.55,.37-.37,.55-.98,.55-1.85v-.32c0-.91-.18-1.55-.54-1.93-.36-.38-1-.57-1.9-.57h-2.88Z"/><path d="M192.61,37.22l5.12,15.35c.03,.12,.05,.21,.05,.25,0,.28-.17,.42-.51,.42h-1.62c-.29,0-.48-.04-.57-.13-.08-.08-.17-.27-.27-.54l-1.06-3.25h-6.05l-1.04,3.28c-.09,.28-.18,.45-.27,.53-.08,.08-.27,.12-.57,.12h-1.52c-.34,0-.51-.14-.51-.42,0-.05,.02-.13,.05-.25l5.19-15.35c.06-.18,.15-.3,.25-.35,.11-.05,.27-.07,.48-.07h2.08c.21,0,.38,.02,.48,.07,.11,.05,.19,.16,.25,.35Zm-1.89,2.68l-2.24,7.02h4.5l-2.26-7.02Z"/></g><g><path d="M201.49,52.57v-13.27h-4.04c-.28,0-.46-.05-.54-.15-.08-.1-.13-.3-.13-.59v-1.02c0-.29,.04-.49,.13-.59,.08-.1,.27-.15,.54-.15h10.89c.28,0,.46,.05,.54,.15,.08,.1,.13,.3,.13,.59v1.02c0,.29-.04,.49-.13,.59-.08,.1-.27,.15-.54,.15h-4.04v13.27c0,.28-.05,.46-.15,.54-.1,.08-.3,.13-.59,.13h-1.34c-.29,0-.49-.04-.59-.13-.1-.08-.15-.27-.15-.54Z"/><path d="M214.07,37.48v15.09c0,.28-.05,.46-.15,.54-.1,.08-.3,.13-.59,.13h-1.34c-.29,0-.49-.04-.59-.13-.1-.08-.15-.27-.15-.54v-15.09c0-.28,.05-.46,.15-.54,.1-.08,.3-.13,.59-.13h1.34c.29,0,.49,.04,.59,.13,.1,.08,.15,.27,.15,.54Z"/><path d="M225.65,52.59l-5.52-10.45v10.43c0,.28-.05,.46-.15,.54-.1,.08-.3,.13-.59,.13h-1.27c-.29,0-.49-.04-.59-.13-.1-.08-.15-.27-.15-.54v-15.09c0-.28,.05-.46,.15-.54,.1-.08,.3-.13,.59-.13h1.34c.29,0,.5,.03,.63,.1,.13,.07,.27,.25,.43,.54l5.52,10.45v-10.43c0-.28,.05-.46,.15-.54,.1-.08,.3-.13,.59-.13h1.27c.29,0,.49,.04,.59,.13,.1,.08,.15,.27,.15,.54v15.09c0,.28-.05,.46-.15,.54-.1,.08-.3,.13-.59,.13h-1.34c-.29,0-.5-.03-.63-.1-.13-.07-.27-.25-.43-.54Z"/><path d="M231.7,46.82v-3.37c0-1.58,.18-2.8,.53-3.65,.45-1.11,1.17-1.95,2.17-2.52,1-.57,2.18-.85,3.55-.85,1.05,0,2.01,.17,2.89,.52,.88,.35,1.58,.88,2.1,1.62,.52,.73,.79,1.67,.79,2.8,0,.22-.05,.36-.16,.44-.11,.08-.3,.12-.58,.12h-1.43c-.28,0-.47-.04-.57-.12-.1-.08-.16-.23-.17-.46-.06-.86-.34-1.49-.83-1.88-.49-.39-1.23-.59-2.22-.59-.75,0-1.37,.12-1.83,.37-.47,.25-.81,.68-1.03,1.29-.22,.62-.32,1.46-.32,2.54v3.88c0,1.55,.26,2.65,.77,3.28s1.32,.95,2.41,.95c1.02,0,1.79-.26,2.31-.78s.78-1.42,.78-2.68v-.44h-1.78c-.28,0-.46-.05-.54-.15s-.13-.3-.13-.59v-1.02c0-.29,.04-.49,.13-.59,.08-.1,.27-.15,.54-.15h3.9c.29,0,.49,.04,.59,.13,.1,.08,.15,.27,.15,.54v2.61c0,1.02-.22,1.94-.65,2.78-.43,.84-1.09,1.51-1.97,2.01-.88,.5-2,.75-3.36,.75-1.49,0-2.67-.28-3.54-.83-.87-.55-1.53-1.32-1.97-2.31-.2-.43-.34-.92-.42-1.48-.08-.55-.12-1.28-.12-2.17Z"/></g><polyline points="257.84 66.54 1 66.54 1 65.06 257.84 65.06 257.84 66.54"/><polyline points=".5 66.54 .37 66.54 .37 65.06 .5 65.06 .5 66.54"/><path d="M258.22,66.54h-.37v-1.47h.37v1.47M1,66.54H.5v-1.47h.5v1.47"/><rect class="cls-4" x="26.43" y="90.51" width="8.27" height="11.86"/><g class="cls-2"><path d="M30.56,102.38c-1.88,0-3.13-.76-3.76-2.27-.14-.32-.23-.66-.29-1.03-.06-.37-.08-.85-.08-1.44v-2.2c0-.6,.03-1.09,.08-1.48,.06-.39,.15-.75,.29-1.08,.63-1.57,1.89-2.36,3.76-2.36s3.13,.76,3.76,2.27c.14,.32,.23,.66,.29,1.03,.06,.37,.08,.85,.08,1.44v2.2c0,.6-.03,1.09-.08,1.48-.06,.39-.15,.75-.29,1.08-.63,1.57-1.89,2.36-3.76,2.36Zm0-9.98c-.73,0-1.25,.21-1.55,.63s-.45,1.14-.45,2.17v2.51c0,1.04,.15,1.77,.44,2.18s.81,.62,1.56,.62,1.27-.21,1.56-.62,.44-1.14,.44-2.18v-2.51c0-1.03-.15-1.75-.45-2.17-.3-.42-.82-.63-1.55-.63Z"/></g><path d="M30.95,112.9h0m0,0c-9.27,0-16.79-7.52-16.79-16.79,0-9.28,7.52-16.79,16.79-16.79,9.27,0,16.79,7.52,16.79,16.79,0,9.27-7.52,16.79-16.79,16.79v-.7c8.89,0,16.09-7.21,16.09-16.09s-7.2-16.09-16.09-16.09-16.09,7.21-16.09,16.09,7.2,16.09,16.09,16.09h0v.7h0"/><path d="M30.95,112.2c-8.89,0-16.09-7.21-16.09-16.09s7.2-16.09,16.09-16.09,16.09,7.21,16.09,16.09-7.2,16.09-16.09,16.09v-.7c4.25,0,8.1-1.72,10.88-4.51,2.79-2.79,4.51-6.63,4.51-10.88,0-4.25-1.72-8.1-4.51-10.89-2.79-2.79-6.63-4.51-10.88-4.51s-8.1,1.72-10.88,4.51c-2.79,2.79-4.51,6.63-4.51,10.89,0,4.25,1.72,8.1,4.51,10.88,2.79,2.79,6.63,4.51,10.88,4.51v.7h0"/><rect class="cls-4" x="64.09" y="90.75" width="4.24" height="11.39"/><g class="cls-6"><path d="M68.34,91.24v10.41c0,.2-.04,.34-.11,.4-.07,.06-.22,.09-.43,.09h-.93c-.21,0-.36-.03-.43-.09-.07-.06-.11-.2-.11-.4v-9.07h-1.73c-.2,0-.34-.04-.4-.11-.06-.07-.09-.22-.09-.43v-.75c0-.21,.03-.36,.09-.43,.06-.07,.2-.11,.4-.11h3.2c.21,0,.36,.03,.43,.09,.07,.06,.11,.2,.11,.4Z"/></g><path d="M67.18,112.9h0m0,0c-9.27,0-16.79-7.52-16.79-16.79,0-9.28,7.52-16.79,16.79-16.79,9.27,0,16.79,7.52,16.79,16.79,0,9.27-7.52,16.79-16.79,16.79v-.7c8.89,0,16.09-7.21,16.09-16.09s-7.2-16.09-16.09-16.09-16.09,7.21-16.09,16.09,7.2,16.09,16.09,16.09h0v.7h0"/><path d="M67.18,112.2c-8.89,0-16.09-7.21-16.09-16.09s7.2-16.09,16.09-16.09,16.09,7.21,16.09,16.09-7.2,16.09-16.09,16.09v-.7c4.25,0,8.1-1.72,10.88-4.51,2.79-2.79,4.51-6.63,4.51-10.88,0-4.25-1.72-8.1-4.51-10.89-2.79-2.79-6.63-4.51-10.88-4.51s-8.1,1.72-10.88,4.51c-2.79,2.79-4.51,6.63-4.51,10.89,0,4.25,1.72,8.1,4.51,10.88,2.79,2.79,6.63,4.51,10.88,4.51v.7h0"/><rect class="cls-4" x="99.15" y="90.51" width="7.59" height="11.63"/><g class="cls-9"><path d="M103.1,90.51c1.17,0,2.08,.27,2.7,.81,.63,.54,.94,1.3,.94,2.3v.51c0,.55-.13,1.04-.39,1.47-.26,.42-.6,.8-1.01,1.14-.41,.34-.85,.64-1.31,.92l-1.36,.81c-.4,.24-.69,.45-.88,.64-.19,.19-.31,.38-.36,.56s-.08,.36-.08,.54v.07h4.9c.2,0,.34,.04,.4,.11s.09,.22,.09,.43v.78c0,.21-.03,.36-.09,.43-.06,.07-.19,.11-.4,.11h-6.56c-.21,0-.36-.03-.43-.09-.07-.06-.11-.2-.11-.4v-.83c0-.68,.1-1.26,.31-1.75,.21-.49,.49-.9,.84-1.24,.35-.34,.74-.63,1.17-.88l1.44-.83c.45-.26,.85-.56,1.2-.9,.35-.34,.53-.79,.53-1.34v-.17c0-.99-.54-1.49-1.63-1.49-.54,0-.94,.11-1.19,.33-.25,.22-.42,.6-.5,1.13-.02,.14-.07,.23-.14,.28-.07,.05-.2,.08-.38,.08h-.97c-.21,0-.36-.03-.43-.1-.07-.07-.11-.21-.11-.42,0-.35,.07-.7,.2-1.06s.32-.65,.54-.87c.71-.71,1.73-1.07,3.07-1.07Z"/></g><path d="M103.41,112.9h0m0,0c-9.28,0-16.79-7.52-16.79-16.79,0-9.28,7.52-16.79,16.79-16.79,9.27,0,16.79,7.52,16.79,16.79,0,9.27-7.52,16.79-16.79,16.79v-.7c8.89,0,16.09-7.21,16.09-16.09s-7.2-16.09-16.09-16.09-16.09,7.21-16.09,16.09,7.2,16.09,16.09,16.09h0v.7h0"/><path d="M103.41,112.2c-8.89,0-16.09-7.21-16.09-16.09s7.2-16.09,16.09-16.09,16.09,7.21,16.09,16.09-7.2,16.09-16.09,16.09v-.7c4.25,0,8.1-1.72,10.88-4.51,2.79-2.79,4.51-6.63,4.51-10.88s-1.72-8.1-4.51-10.89c-2.79-2.79-6.63-4.51-10.88-4.51s-8.1,1.72-10.88,4.51c-2.79,2.79-4.51,6.63-4.51,10.89,0,4.25,1.72,8.1,4.51,10.88,2.79,2.79,6.63,4.51,10.88,4.51v.7h0"/><rect class="cls-4" x="135.35" y="90.51" width="7.85" height="11.86"/><g class="cls-8"><path d="M139.45,90.51c1.16,0,2.05,.25,2.67,.75,.62,.5,.92,1.23,.92,2.18v.34c0,.53-.15,1-.46,1.41s-.73,.72-1.27,.95c1.25,.33,1.88,1.15,1.88,2.46v.63c0,.98-.35,1.75-1.04,2.31-.69,.56-1.64,.84-2.84,.84-.72,0-1.36-.09-1.91-.26-.55-.17-.99-.43-1.31-.75-.23-.23-.41-.51-.54-.86s-.2-.69-.2-1.03c0-.21,.04-.36,.11-.42,.07-.07,.22-.1,.43-.1h.97c.19,0,.32,.03,.4,.08,.07,.05,.12,.14,.13,.28,.08,.89,.69,1.34,1.85,1.34,.59,0,1.04-.13,1.36-.4s.47-.65,.47-1.14v-.41c0-1.06-.58-1.59-1.75-1.59h-.51c-.2,0-.34-.04-.4-.11-.06-.07-.09-.22-.09-.43v-.75c0-.21,.03-.36,.09-.43,.06-.07,.19-.11,.4-.11h.3c1.22,0,1.83-.51,1.83-1.53v-.2c0-.93-.55-1.39-1.66-1.39-.55,0-.97,.11-1.26,.34s-.47,.59-.55,1.08c-.02,.14-.07,.23-.14,.28s-.2,.08-.38,.08h-.9c-.21,0-.36-.03-.43-.1s-.11-.21-.11-.42c0-.72,.25-1.33,.75-1.83,.36-.37,.8-.64,1.3-.81,.51-.17,1.14-.25,1.9-.25Z"/></g><path d="M139.63,112.9h0m0,0c-9.28,0-16.79-7.52-16.79-16.79,0-9.28,7.52-16.79,16.79-16.79,9.27,0,16.79,7.52,16.79,16.79s-7.52,16.79-16.79,16.79v-.7c8.89,0,16.09-7.21,16.09-16.09s-7.21-16.09-16.09-16.09-16.09,7.21-16.09,16.09,7.21,16.09,16.09,16.09h0v.7h0"/><path d="M139.63,112.2c-8.89,0-16.09-7.21-16.09-16.09s7.21-16.09,16.09-16.09,16.09,7.21,16.09,16.09-7.21,16.09-16.09,16.09v-.7c4.25,0,8.1-1.72,10.88-4.51,2.79-2.79,4.51-6.63,4.51-10.88s-1.72-8.1-4.51-10.89c-2.79-2.79-6.63-4.51-10.88-4.51s-8.1,1.72-10.88,4.51c-2.79,2.79-4.51,6.63-4.51,10.89s1.72,8.1,4.51,10.88c2.79,2.79,6.63,4.51,10.88,4.51v.7h0"/><rect class="cls-4" x="224.14" y="90.75" width="7.54" height="11.63"/><g class="cls-7"><path d="M231.68,98.26v.76c0,1.05-.33,1.87-.99,2.47-.66,.59-1.57,.89-2.74,.89-1.41,0-2.44-.33-3.08-.98-.49-.49-.73-1.08-.73-1.78,0-.21,.04-.36,.11-.42,.07-.07,.22-.1,.43-.1h.97c.18,0,.31,.03,.38,.08s.12,.14,.14,.28c.07,.43,.23,.74,.5,.92,.26,.19,.67,.28,1.21,.28,1.16,0,1.75-.58,1.75-1.73v-.64c0-1.22-.55-1.83-1.64-1.83-.19,0-.4,.02-.63,.07-.23,.04-.42,.11-.58,.19-.21,.1-.37,.17-.47,.2-.1,.03-.22,.04-.36,.04h-.92c-.23,0-.37-.03-.44-.1s-.1-.2-.1-.39v-5.2c0-.19,.03-.32,.1-.39,.07-.07,.21-.1,.44-.1h5.81c.19,0,.32,.03,.39,.1,.07,.07,.1,.21,.1,.44v.75c0,.23-.03,.37-.1,.44-.07,.07-.2,.1-.39,.1h-4.51v2.64c.36-.17,.71-.29,1.04-.37,.33-.08,.69-.12,1.06-.12,2.16,0,3.24,1.18,3.24,3.52Z"/></g><path d="M228.39,112.9h0m0,0c-9.27,0-16.79-7.52-16.79-16.79,0-9.28,7.52-16.79,16.79-16.79,9.27,0,16.79,7.52,16.79,16.79s-7.52,16.79-16.79,16.79v-.7c8.89,0,16.09-7.21,16.09-16.09s-7.2-16.09-16.09-16.09-16.09,7.21-16.09,16.09,7.2,16.09,16.09,16.09h0v.7h0"/><path d="M228.39,112.2c-8.89,0-16.09-7.21-16.09-16.09s7.2-16.09,16.09-16.09,16.09,7.21,16.09,16.09-7.2,16.09-16.09,16.09v-.7c4.25,0,8.1-1.72,10.88-4.51,2.79-2.79,4.51-6.63,4.51-10.88,0-4.25-1.72-8.1-4.51-10.89-2.79-2.79-6.63-4.51-10.88-4.51s-8.1,1.72-10.88,4.51c-2.79,2.79-4.51,6.63-4.51,10.89s1.72,8.1,4.51,10.88c2.79,2.79,6.63,4.51,10.88,4.51v.7h0"/><path d="M184.01,121.05c13.78,0,24.94-11.17,24.94-24.94s-11.17-24.94-24.94-24.94-24.94,11.17-24.94,24.94,11.17,24.94,24.94,24.94h0Z"/><path class="cls-3" d="M186.04,84.44h2.8c.47,0,.78,.07,.94,.2,.16,.14,.24,.42,.24,.87v14.98h1.48c.44,0,.73,.08,.87,.24,.13,.16,.2,.47,.2,.94v1.51c0,.47-.07,.78-.2,.94-.14,.16-.42,.24-.87,.24h-1.48v3.8c0,.44-.08,.73-.24,.87-.16,.14-.47,.2-.94,.2h-1.88c-.47,0-.78-.07-.94-.2-.16-.13-.24-.42-.24-.87v-3.8h-9.85c-.44,0-.73-.08-.87-.24-.14-.16-.2-.47-.2-.94v-2.58c0-.29,.02-.57,.07-.83,.05-.26,.17-.52,.37-.79l9.3-13.5c.3-.42,.52-.69,.68-.83,.16-.13,.41-.2,.76-.2Zm-7.45,16.05h7.2v-10.37l-7.2,10.37Z"/><g><path class="cls-3" d="M120.06,140.91h3.67c1.18,0,2.11,.24,2.8,.72,.69,.48,1.18,1.06,1.47,1.73,.13,.32,.24,.69,.31,1.09,.08,.4,.12,.95,.12,1.63v2.57c0,.67-.04,1.21-.12,1.6-.08,.4-.18,.75-.31,1.06-.28,.66-.74,1.23-1.38,1.7-.64,.47-1.52,.71-2.62,.71h-3.94c-.23,0-.38-.03-.46-.1-.08-.07-.12-.21-.12-.42v-11.77c0-.22,.04-.36,.12-.42,.08-.07,.23-.1,.46-.1Zm1.62,1.94v8.93h2.02c.54,0,.99-.09,1.36-.28,.37-.19,.64-.51,.84-.96,.19-.46,.29-1.09,.29-1.89v-2.66c0-1.18-.22-1.99-.66-2.45-.44-.46-1.05-.68-1.83-.68h-2.02Z"/><path class="cls-3" d="M136.31,141.23l4,11.97c.03,.1,.04,.16,.04,.2,0,.22-.13,.32-.4,.32h-1.26c-.23,0-.38-.03-.44-.1-.07-.07-.13-.21-.21-.42l-.83-2.54h-4.71l-.81,2.56c-.07,.22-.14,.35-.21,.41-.07,.06-.21,.09-.44,.09h-1.19c-.26,0-.4-.11-.4-.32,0-.04,.01-.1,.04-.2l4.05-11.97c.05-.14,.11-.23,.2-.27,.08-.04,.21-.05,.38-.05h1.62c.17,0,.29,.02,.38,.05s.15,.13,.2,.27Zm-1.47,2.09l-1.75,5.47h3.51l-1.76-5.47Z"/></g><g><path class="cls-3" d="M107.61,172.72v-2.63c0-1.24,.14-2.18,.41-2.84,.35-.86,.91-1.52,1.69-1.96,.78-.44,1.7-.67,2.77-.67,.82,0,1.57,.13,2.25,.4,.68,.27,1.23,.69,1.64,1.26,.41,.57,.61,1.3,.61,2.19,0,.17-.04,.28-.13,.34-.08,.06-.23,.09-.45,.09h-1.12c-.22,0-.36-.03-.44-.09-.08-.06-.12-.18-.13-.36-.05-.67-.26-1.16-.65-1.47-.38-.31-.96-.46-1.73-.46-.59,0-1.06,.1-1.43,.29-.37,.19-.63,.53-.8,1.01-.17,.48-.25,1.14-.25,1.98v3.02c0,1.21,.2,2.06,.6,2.56,.4,.49,1.03,.74,1.88,.74,.79,0,1.39-.2,1.8-.61s.61-1.1,.61-2.09v-.34h-1.39c-.22,0-.36-.04-.42-.12-.07-.08-.1-.23-.1-.46v-.79c0-.23,.03-.38,.1-.46,.07-.08,.21-.12,.42-.12h3.04c.23,0,.38,.03,.46,.1,.08,.07,.12,.21,.12,.42v2.03c0,.79-.17,1.52-.5,2.17-.34,.65-.85,1.18-1.54,1.57-.69,.39-1.56,.58-2.62,.58-1.16,0-2.08-.22-2.76-.65-.68-.43-1.19-1.03-1.54-1.8-.16-.34-.26-.72-.32-1.15-.06-.43-.09-1-.09-1.69Z"/><path class="cls-3" d="M123.65,164.62c2.15,0,3.58,.82,4.3,2.45,.16,.34,.26,.72,.32,1.16,.06,.44,.09,1,.09,1.68v2.63c0,.62-.03,1.16-.1,1.61-.07,.45-.17,.86-.31,1.23-.35,.85-.89,1.5-1.62,1.95-.73,.45-1.63,.67-2.68,.67-2.15,0-3.58-.82-4.3-2.45-.16-.34-.26-.72-.32-1.16-.06-.44-.09-1-.09-1.68v-2.63c0-.62,.03-1.16,.1-1.61s.17-.86,.32-1.23c.35-.85,.89-1.5,1.62-1.95s1.63-.67,2.68-.67Zm0,1.93c-.89,0-1.52,.25-1.9,.76s-.57,1.34-.57,2.5v3.02c0,1.17,.19,2,.57,2.5,.38,.5,1.01,.76,1.9,.76s1.52-.25,1.9-.76c.38-.5,.57-1.34,.57-2.5v-3.02c0-1.16-.19-2-.57-2.5s-1.01-.76-1.9-.76Z"/><path class="cls-3" d="M135.03,164.62c2.15,0,3.58,.82,4.3,2.45,.16,.34,.26,.72,.32,1.16,.06,.44,.09,1,.09,1.68v2.63c0,.62-.03,1.16-.1,1.61-.06,.45-.17,.86-.31,1.23-.35,.85-.89,1.5-1.62,1.95-.73,.45-1.63,.67-2.68,.67-2.15,0-3.58-.82-4.3-2.45-.16-.34-.26-.72-.32-1.16-.06-.44-.09-1-.09-1.68v-2.63c0-.62,.03-1.16,.1-1.61,.06-.45,.17-.86,.31-1.23,.35-.85,.89-1.5,1.62-1.95s1.63-.67,2.68-.67Zm0,1.93c-.89,0-1.52,.25-1.9,.76-.38,.5-.57,1.34-.57,2.5v3.02c0,1.17,.19,2,.57,2.5,.38,.5,1.01,.76,1.9,.76s1.52-.25,1.9-.76c.38-.5,.57-1.34,.57-2.5v-3.02c0-1.16-.19-2-.57-2.5-.38-.5-1.01-.76-1.9-.76Z"/><path class="cls-3" d="M142.59,164.91h3.67c1.18,0,2.11,.24,2.8,.72,.69,.48,1.18,1.06,1.47,1.73,.13,.32,.24,.69,.32,1.09,.08,.4,.12,.95,.12,1.63v2.57c0,.67-.04,1.21-.12,1.6-.08,.4-.18,.75-.32,1.06-.28,.66-.73,1.23-1.38,1.7-.64,.47-1.51,.71-2.62,.71h-3.94c-.23,0-.38-.03-.46-.1-.08-.07-.12-.21-.12-.42v-11.77c0-.22,.04-.36,.12-.42,.08-.07,.23-.1,.46-.1Zm1.62,1.94v8.93h2.02c.54,0,.99-.09,1.36-.28,.37-.19,.64-.51,.84-.96,.19-.46,.29-1.09,.29-1.89v-2.66c0-1.18-.22-1.99-.66-2.45-.44-.46-1.05-.68-1.83-.68h-2.02Z"/></g></svg>