<?xml version="1.0" encoding="utf-8"?>
<!-- Generator: Adobe Illustrator 26.0.1, SVG Export Plug-In . SVG Version: 6.00 Build 0)  -->
<svg version="1.1" id="Layer_1" xmlns="http://www.w3.org/2000/svg" xmlns:xlink="http://www.w3.org/1999/xlink" x="0px" y="0px"
	 viewBox="0 0 258.74 92.25" style="enable-background:new 0 0 258.74 92.25;" xml:space="preserve">
<style type="text/css">
	.st0{fill:#84BD00;}
	.st1{enable-background:new    ;}
</style>
	<g>
	<path class="st0" d="M11.33,0.5C5.35,0.5,0.5,5.35,0.5,11.33c0,0,0,0,0,0v69.93c0,5.8,4.7,10.5,10.5,10.5h236.75
		c5.8-0.01,10.49-4.7,10.49-10.5V11c0-5.8-4.69-10.49-10.49-10.5H11.33"/>
</g>
	<g>
	<path d="M11.33,0.5V0C5.07,0,0,5.07,0,11.33c0,0,0,0,0,0v69.93c0,6.08,4.92,11,11,11h236.75c6.08,0,11-4.92,11-11V11
		c0-6.08-4.92-11-11-11H11.33v1h236.42c5.52,0,10,4.48,10,10v70.26c0,5.52-4.48,10-10,10H11c-5.52,0-10-4.48-10-10V11.33
		C0.99,5.64,5.6,1.01,11.29,1c0.01,0,0.03,0,0.04,0V0.5"/>
</g>
	<g class="st1">
	<path d="M18.71,23.89v6.72c0,0.28-0.05,0.46-0.15,0.54c-0.1,0.08-0.3,0.13-0.59,0.13h-1.34c-0.29,0-0.49-0.04-0.59-0.13
		c-0.1-0.08-0.15-0.27-0.15-0.54V15.52c0-0.28,0.05-0.46,0.15-0.54c0.1-0.08,0.3-0.13,0.59-0.13h8.56c0.28,0,0.46,0.05,0.54,0.15
		c0.08,0.1,0.13,0.3,0.13,0.59v1.02c0,0.29-0.04,0.49-0.13,0.59c-0.08,0.1-0.27,0.15-0.54,0.15h-6.49v4.06h5.89
		c0.28,0,0.46,0.05,0.54,0.15c0.08,0.1,0.13,0.3,0.13,0.59v1.02c0,0.29-0.04,0.49-0.13,0.59c-0.08,0.1-0.27,0.15-0.54,0.15H18.71z"
	/>
		<path d="M34.08,14.48c1.37,0,2.52,0.26,3.45,0.8c0.93,0.53,1.62,1.31,2.07,2.34c0.2,0.45,0.34,0.95,0.42,1.5s0.12,1.27,0.12,2.15
		v3.37c0,0.8-0.04,1.49-0.13,2.07c-0.08,0.58-0.22,1.1-0.4,1.58c-0.45,1.11-1.14,1.95-2.07,2.52c-0.93,0.57-2.08,0.85-3.45,0.85
		c-1.37,0-2.52-0.27-3.45-0.8c-0.93-0.53-1.62-1.31-2.07-2.34c-0.2-0.45-0.34-0.95-0.42-1.5c-0.08-0.55-0.12-1.27-0.12-2.15v-3.37
		c0-0.8,0.04-1.49,0.13-2.07s0.22-1.1,0.4-1.58c0.45-1.11,1.13-1.95,2.07-2.52C31.56,14.76,32.71,14.48,34.08,14.48z M34.08,16.95
		c-1.14,0-1.95,0.32-2.44,0.97s-0.73,1.72-0.73,3.21V25c0,1.49,0.24,2.56,0.73,3.21c0.48,0.65,1.3,0.97,2.44,0.97
		c1.14,0,1.95-0.32,2.43-0.97c0.48-0.65,0.73-1.72,0.73-3.21v-3.88c0-1.49-0.24-2.56-0.73-3.21C36.03,17.27,35.22,16.95,34.08,16.95
		z"/>
		<path d="M48.67,14.48c1.37,0,2.52,0.26,3.45,0.8c0.93,0.53,1.62,1.31,2.07,2.34c0.2,0.45,0.34,0.95,0.42,1.5s0.12,1.27,0.12,2.15
		v3.37c0,0.8-0.04,1.49-0.13,2.07c-0.08,0.58-0.22,1.1-0.4,1.58c-0.45,1.11-1.14,1.95-2.07,2.52c-0.93,0.57-2.08,0.85-3.45,0.85
		c-1.37,0-2.52-0.27-3.45-0.8c-0.93-0.53-1.62-1.31-2.07-2.34c-0.2-0.45-0.34-0.95-0.42-1.5c-0.08-0.55-0.12-1.27-0.12-2.15v-3.37
		c0-0.8,0.04-1.49,0.13-2.07s0.22-1.1,0.4-1.58c0.45-1.11,1.13-1.95,2.07-2.52C46.15,14.76,47.3,14.48,48.67,14.48z M48.67,16.95
		c-1.14,0-1.95,0.32-2.44,0.97s-0.73,1.72-0.73,3.21V25c0,1.49,0.24,2.56,0.73,3.21c0.48,0.65,1.3,0.97,2.44,0.97
		c1.14,0,1.95-0.32,2.43-0.97c0.48-0.65,0.73-1.72,0.73-3.21v-3.88c0-1.49-0.24-2.56-0.73-3.21C50.62,17.27,49.8,16.95,48.67,16.95z
		"/>
		<path d="M63.07,14.85c0.75,0,1.43,0.08,2.02,0.25c0.59,0.17,1.12,0.4,1.57,0.68c0.45,0.29,0.83,0.62,1.14,0.99s0.55,0.78,0.74,1.21
		c0.17,0.42,0.3,0.88,0.4,1.4s0.15,1.21,0.15,2.09v3.3c0,0.86-0.05,1.55-0.15,2.05s-0.23,0.96-0.4,1.36
		c-0.17,0.42-0.4,0.81-0.69,1.19c-0.29,0.38-0.65,0.71-1.06,0.99c-0.42,0.29-0.9,0.51-1.47,0.67c-0.56,0.16-1.2,0.24-1.9,0.24h-5.05
		c-0.29,0-0.49-0.04-0.59-0.13c-0.1-0.08-0.15-0.27-0.15-0.54V15.52c0-0.28,0.05-0.46,0.15-0.54c0.1-0.08,0.3-0.13,0.59-0.13H63.07z
		 M60.44,28.79h2.58c0.52,0,0.98-0.07,1.37-0.2c0.39-0.13,0.72-0.35,0.99-0.66c0.27-0.31,0.47-0.72,0.61-1.23
		c0.14-0.52,0.21-1.16,0.21-1.93v-3.42c0-0.75-0.07-1.39-0.22-1.9c-0.15-0.52-0.35-0.93-0.62-1.24c-0.27-0.31-0.6-0.53-0.99-0.67
		c-0.39-0.14-0.84-0.21-1.35-0.21h-2.58V28.79z"/>
		<path d="M88.48,30.61c0,0.28-0.05,0.46-0.15,0.54c-0.1,0.08-0.3,0.13-0.59,0.13H86.4c-0.29,0-0.49-0.04-0.59-0.13
		c-0.1-0.08-0.15-0.27-0.15-0.54v-6.69h-6.23v6.69c0,0.28-0.05,0.46-0.15,0.54c-0.1,0.08-0.3,0.13-0.59,0.13h-1.34
		c-0.29,0-0.49-0.04-0.59-0.13c-0.1-0.08-0.15-0.27-0.15-0.54V15.52c0-0.28,0.05-0.46,0.15-0.54c0.1-0.08,0.3-0.13,0.59-0.13h1.34
		c0.29,0,0.49,0.04,0.59,0.13c0.1,0.08,0.15,0.26,0.15,0.54v5.91h6.23v-5.91c0-0.28,0.05-0.46,0.15-0.54
		c0.1-0.08,0.3-0.13,0.59-0.13h1.34c0.29,0,0.49,0.04,0.59,0.13c0.1,0.08,0.15,0.26,0.15,0.54V30.61z"/>
		<path d="M92.68,14.85c0.26,0,0.44,0.03,0.54,0.1s0.2,0.21,0.31,0.43l3.35,6.81l3.3-6.81c0.11-0.21,0.21-0.36,0.31-0.43
		c0.1-0.07,0.28-0.1,0.54-0.1h1.59c0.38,0,0.58,0.12,0.58,0.37c0,0.11-0.02,0.21-0.07,0.3l-4.94,9.53v5.56
		c0,0.28-0.05,0.46-0.15,0.54c-0.1,0.08-0.3,0.13-0.59,0.13h-1.34c-0.29,0-0.49-0.04-0.59-0.13c-0.1-0.08-0.15-0.27-0.15-0.54v-5.56
		l-4.94-9.53c-0.05-0.09-0.07-0.19-0.07-0.3c0-0.25,0.19-0.37,0.58-0.37H92.68z"/>
</g>
	<g class="st1">
	<path d="M104.1,21.49c0-1.58,0.18-2.8,0.53-3.65c0.45-1.11,1.17-1.95,2.16-2.52c0.99-0.57,2.18-0.85,3.57-0.85
		c0.78,0,1.53,0.1,2.23,0.29s1.31,0.49,1.83,0.89s0.94,0.91,1.25,1.53c0.31,0.62,0.46,1.37,0.46,2.23c0,0.22-0.05,0.36-0.16,0.44
		c-0.11,0.08-0.3,0.12-0.58,0.12h-1.43c-0.28,0-0.47-0.04-0.57-0.12c-0.1-0.08-0.16-0.23-0.17-0.46c-0.06-0.88-0.34-1.51-0.83-1.89
		c-0.49-0.38-1.23-0.58-2.22-0.58c-0.57,0-1.05,0.07-1.45,0.2c-0.4,0.13-0.73,0.36-0.98,0.68s-0.44,0.75-0.57,1.29
		c-0.12,0.54-0.18,1.22-0.18,2.03V25c0,1.55,0.26,2.65,0.77,3.28s1.32,0.95,2.41,0.95c1.02,0,1.78-0.26,2.31-0.79
		c0.52-0.52,0.78-1.42,0.78-2.68v-0.44h-1.78c-0.28,0-0.46-0.05-0.54-0.15s-0.13-0.3-0.13-0.59v-1.02c0-0.29,0.04-0.49,0.13-0.59
		c0.08-0.1,0.27-0.15,0.54-0.15h3.9c0.29,0,0.49,0.04,0.59,0.13c0.1,0.08,0.15,0.27,0.15,0.54v2.61c0,0.75-0.12,1.47-0.36,2.13
		c-0.24,0.67-0.6,1.26-1.1,1.77c-0.49,0.51-1.12,0.91-1.87,1.2s-1.64,0.44-2.65,0.44c-1.49,0-2.67-0.27-3.54-0.82
		c-0.87-0.55-1.53-1.32-1.97-2.32c-0.2-0.45-0.34-0.94-0.42-1.49c-0.08-0.55-0.12-1.27-0.12-2.16V21.49z"/>
		<path d="M121.84,30.61c0,0.28-0.05,0.46-0.15,0.54c-0.1,0.08-0.3,0.13-0.59,0.13h-1.34c-0.29,0-0.49-0.04-0.59-0.13
		c-0.1-0.08-0.15-0.27-0.15-0.54V15.52c0-0.28,0.05-0.46,0.15-0.54c0.1-0.08,0.3-0.13,0.59-0.13h1.34c0.29,0,0.49,0.04,0.59,0.13
		c0.1,0.08,0.15,0.26,0.15,0.54V30.61z"/>
		<path d="M135.28,30.54c0,0.29-0.04,0.49-0.13,0.59c-0.08,0.1-0.27,0.15-0.54,0.15h-8.7c-0.29,0-0.49-0.04-0.59-0.13
		c-0.1-0.08-0.15-0.27-0.15-0.54V15.52c0-0.28,0.05-0.46,0.15-0.54c0.1-0.08,0.3-0.13,0.59-0.13h8.61c0.28,0,0.46,0.05,0.54,0.15
		c0.08,0.1,0.13,0.3,0.13,0.59v1.02c0,0.29-0.04,0.49-0.13,0.59c-0.08,0.1-0.27,0.15-0.54,0.15h-6.53v4.25h5.93
		c0.28,0,0.46,0.05,0.54,0.15c0.08,0.1,0.13,0.3,0.13,0.59v1.02c0,0.29-0.04,0.49-0.13,0.59c-0.08,0.1-0.27,0.15-0.54,0.15h-5.93
		v4.71h6.62c0.28,0,0.46,0.05,0.54,0.15c0.08,0.1,0.13,0.3,0.13,0.59V30.54z"/>
		<path d="M140.93,20.18v10.43c0,0.28-0.05,0.46-0.15,0.54c-0.1,0.08-0.3,0.13-0.59,0.13h-1.27c-0.29,0-0.49-0.04-0.59-0.13
		c-0.1-0.08-0.15-0.27-0.15-0.54V15.52c0-0.28,0.05-0.46,0.15-0.54c0.1-0.08,0.3-0.13,0.59-0.13h1.34c0.29,0,0.5,0.03,0.63,0.1
		s0.27,0.25,0.43,0.54l5.52,10.46V15.52c0-0.28,0.05-0.46,0.15-0.54c0.1-0.08,0.3-0.13,0.59-0.13h1.27c0.29,0,0.49,0.04,0.59,0.13
		c0.1,0.08,0.15,0.26,0.15,0.54v15.09c0,0.28-0.05,0.46-0.15,0.54c-0.1,0.08-0.3,0.13-0.59,0.13h-1.34c-0.29,0-0.5-0.03-0.63-0.1
		c-0.13-0.07-0.27-0.25-0.43-0.54L140.93,20.18z"/>
		<path d="M163.02,30.54c0,0.29-0.04,0.49-0.13,0.59c-0.08,0.1-0.27,0.15-0.54,0.15h-8.7c-0.29,0-0.49-0.04-0.59-0.13
		c-0.1-0.08-0.15-0.27-0.15-0.54V15.52c0-0.28,0.05-0.46,0.15-0.54c0.1-0.08,0.3-0.13,0.59-0.13h8.61c0.28,0,0.46,0.05,0.54,0.15
		c0.08,0.1,0.13,0.3,0.13,0.59v1.02c0,0.29-0.04,0.49-0.13,0.59c-0.08,0.1-0.27,0.15-0.54,0.15h-6.53v4.25h5.93
		c0.28,0,0.46,0.05,0.54,0.15c0.08,0.1,0.13,0.3,0.13,0.59v1.02c0,0.29-0.04,0.49-0.13,0.59c-0.08,0.1-0.27,0.15-0.54,0.15h-5.93
		v4.71h6.62c0.28,0,0.46,0.05,0.54,0.15c0.08,0.1,0.13,0.3,0.13,0.59V30.54z"/>
		<path d="M173.31,24.86v5.75c0,0.26-0.05,0.44-0.14,0.53c-0.09,0.09-0.29,0.14-0.6,0.14h-1.29c-0.31,0-0.51-0.05-0.6-0.14
		c-0.09-0.09-0.14-0.27-0.14-0.53V15.52c0-0.26,0.05-0.44,0.14-0.53c0.09-0.09,0.29-0.14,0.6-0.14h4.94c1.83,0,3.17,0.38,4.02,1.14
		c0.85,0.76,1.27,1.98,1.27,3.66v0.44c0,2.34-0.93,3.82-2.79,4.43l3.44,6.09c0.06,0.12,0.09,0.22,0.09,0.3c0,0.25-0.2,0.37-0.6,0.37
		h-1.73c-0.26,0-0.45-0.04-0.57-0.13c-0.12-0.08-0.25-0.27-0.4-0.54l-3.12-5.75H173.31z M173.31,22.46h2.89
		c0.89,0,1.52-0.18,1.89-0.54c0.37-0.36,0.55-0.98,0.55-1.86v-0.32c0-0.92-0.18-1.57-0.54-1.94c-0.36-0.37-1-0.55-1.9-0.55h-2.89
		V22.46z"/>
		<path d="M197.18,30.61c0.03,0.12,0.05,0.21,0.05,0.25c0,0.28-0.17,0.42-0.51,0.42h-1.62c-0.29,0-0.48-0.04-0.57-0.13
		c-0.08-0.08-0.17-0.27-0.27-0.54l-1.06-3.25h-6.05l-1.04,3.28c-0.09,0.28-0.18,0.45-0.27,0.53c-0.08,0.08-0.27,0.12-0.57,0.12
		h-1.52c-0.34,0-0.51-0.14-0.51-0.42c0-0.05,0.01-0.13,0.05-0.25l5.19-15.35c0.06-0.18,0.15-0.3,0.25-0.35
		c0.11-0.05,0.27-0.07,0.49-0.07h2.08c0.21,0,0.38,0.02,0.48,0.07c0.11,0.05,0.19,0.16,0.25,0.35L197.18,30.61z M187.92,24.96h4.5
		l-2.26-7.02L187.92,24.96z"/>
</g>
	<g class="st1">
	<path d="M201,17.34h-4.04c-0.28,0-0.46-0.05-0.54-0.15c-0.08-0.1-0.13-0.3-0.13-0.59v-1.02c0-0.29,0.04-0.49,0.13-0.59
		c0.08-0.1,0.27-0.15,0.54-0.15h10.89c0.28,0,0.46,0.05,0.54,0.15c0.08,0.1,0.13,0.3,0.13,0.59v1.02c0,0.29-0.04,0.49-0.13,0.59
		c-0.08,0.1-0.26,0.15-0.54,0.15h-4.04v13.27c0,0.28-0.05,0.46-0.15,0.54c-0.1,0.08-0.3,0.13-0.59,0.13h-1.34
		c-0.29,0-0.49-0.04-0.59-0.13c-0.1-0.08-0.15-0.27-0.15-0.54V17.34z"/>
		<path d="M213.46,30.61c0,0.28-0.05,0.46-0.15,0.54c-0.1,0.08-0.3,0.13-0.59,0.13h-1.34c-0.29,0-0.49-0.04-0.59-0.13
		c-0.1-0.08-0.15-0.27-0.15-0.54V15.52c0-0.28,0.05-0.46,0.15-0.54c0.1-0.08,0.3-0.13,0.59-0.13h1.34c0.29,0,0.49,0.04,0.59,0.13
		c0.1,0.08,0.15,0.26,0.15,0.54V30.61z"/>
		<path d="M219.53,20.18v10.43c0,0.28-0.05,0.46-0.15,0.54c-0.1,0.08-0.3,0.13-0.59,0.13h-1.27c-0.29,0-0.49-0.04-0.59-0.13
		c-0.1-0.08-0.15-0.27-0.15-0.54V15.52c0-0.28,0.05-0.46,0.15-0.54c0.1-0.08,0.3-0.13,0.59-0.13h1.34c0.29,0,0.5,0.03,0.63,0.1
		s0.27,0.25,0.43,0.54l5.52,10.46V15.52c0-0.28,0.05-0.46,0.15-0.54c0.1-0.08,0.3-0.13,0.59-0.13h1.27c0.29,0,0.49,0.04,0.59,0.13
		c0.1,0.08,0.15,0.26,0.15,0.54v15.09c0,0.28-0.05,0.46-0.15,0.54c-0.1,0.08-0.3,0.13-0.59,0.13h-1.34c-0.29,0-0.5-0.03-0.63-0.1
		s-0.27-0.25-0.43-0.54L219.53,20.18z"/>
		<path d="M231.09,21.49c0-1.58,0.18-2.8,0.53-3.65c0.45-1.11,1.17-1.95,2.16-2.52s2.18-0.85,3.57-0.85c0.79,0,1.53,0.1,2.23,0.29
		s1.31,0.49,1.83,0.89c0.52,0.4,0.94,0.91,1.25,1.53c0.31,0.62,0.46,1.37,0.46,2.23c0,0.22-0.05,0.36-0.16,0.44
		c-0.11,0.08-0.3,0.12-0.58,0.12h-1.43c-0.28,0-0.47-0.04-0.57-0.12c-0.1-0.08-0.16-0.23-0.17-0.46c-0.06-0.88-0.34-1.51-0.83-1.89
		s-1.23-0.58-2.22-0.58c-0.57,0-1.05,0.07-1.45,0.2s-0.73,0.36-0.98,0.68s-0.44,0.75-0.57,1.29c-0.12,0.54-0.18,1.22-0.18,2.03V25
		c0,1.55,0.26,2.65,0.77,3.28s1.32,0.95,2.41,0.95c1.02,0,1.79-0.26,2.31-0.79c0.52-0.52,0.78-1.42,0.78-2.68v-0.44h-1.78
		c-0.28,0-0.46-0.05-0.54-0.15c-0.08-0.1-0.13-0.3-0.13-0.59v-1.02c0-0.29,0.04-0.49,0.13-0.59c0.08-0.1,0.27-0.15,0.54-0.15h3.9
		c0.29,0,0.49,0.04,0.59,0.13c0.1,0.08,0.15,0.27,0.15,0.54v2.61c0,0.75-0.12,1.47-0.36,2.13c-0.24,0.67-0.6,1.26-1.1,1.77
		c-0.49,0.51-1.12,0.91-1.87,1.2s-1.64,0.44-2.65,0.44c-1.49,0-2.67-0.27-3.54-0.82c-0.87-0.55-1.53-1.32-1.97-2.32
		c-0.2-0.45-0.34-0.94-0.42-1.49c-0.08-0.55-0.12-1.27-0.12-2.16V21.49z"/>
</g>
	<g>
	<polyline points="257.75,46.87 1,46.87 1,45.39 257.75,45.39 257.75,46.87 	"/>
</g>
	<g>
	<polyline points="258.35,46.87 258.24,46.87 258.24,45.39 258.35,45.39 258.35,46.87 	"/>
</g>
	<g>
	<path d="M258.24,46.87h-0.49v-1.48h0.49V46.87 M1,46.87H0.6v-1.48H1V46.87"/>
</g>
	<g class="st1">
	<path d="M29.49,76.72c0.03,0.12,0.04,0.2,0.04,0.24c0,0.26-0.16,0.39-0.48,0.39h-1.53c-0.28,0-0.46-0.04-0.54-0.12
		s-0.16-0.25-0.25-0.51l-1.01-3.09h-5.73L19,76.75c-0.09,0.26-0.17,0.43-0.25,0.5c-0.08,0.07-0.26,0.11-0.54,0.11h-1.44
		c-0.32,0-0.48-0.13-0.48-0.39c0-0.04,0.01-0.12,0.04-0.24l4.93-14.56c0.06-0.18,0.14-0.29,0.24-0.33c0.1-0.04,0.26-0.07,0.46-0.07
		h1.97c0.2,0,0.36,0.02,0.46,0.07c0.1,0.04,0.18,0.15,0.24,0.33L29.49,76.72z M20.71,71.36h4.27l-2.15-6.65L20.71,71.36z"/>
		<path d="M29.8,61.77c0.26,0,0.44,0.04,0.55,0.11c0.1,0.07,0.18,0.25,0.24,0.53l2.08,10.75l2.28-10.44c0.03-0.16,0.1-0.27,0.21-0.32
		c0.11-0.05,0.27-0.08,0.49-0.08h1.31c0.22,0,0.38,0.03,0.49,0.08c0.11,0.05,0.18,0.16,0.21,0.32l2.06,10.55l2.32-10.86
		c0.06-0.28,0.14-0.45,0.24-0.53c0.1-0.07,0.28-0.11,0.55-0.11h1.42c0.31,0,0.46,0.13,0.46,0.39c0,0.12-0.02,0.26-0.07,0.44
		L41.4,76.97c-0.03,0.16-0.1,0.27-0.22,0.32c-0.12,0.05-0.28,0.08-0.48,0.08h-1.69c-0.22,0-0.38-0.03-0.49-0.08
		c-0.11-0.05-0.18-0.16-0.21-0.32l-2.15-10.29l-2.12,10.29c-0.03,0.16-0.1,0.27-0.21,0.32c-0.11,0.05-0.27,0.08-0.49,0.08H31.7
		c-0.2,0-0.36-0.03-0.48-0.08c-0.12-0.05-0.19-0.16-0.22-0.32l-3.06-14.36c-0.04-0.17-0.07-0.32-0.07-0.44
		c0-0.26,0.15-0.39,0.46-0.39H29.8z"/>
</g>
	<g class="st1">
	<path d="M58.43,76.72c0.03,0.12,0.04,0.2,0.04,0.24c0,0.26-0.16,0.39-0.48,0.39h-1.53c-0.28,0-0.46-0.04-0.54-0.12
		s-0.16-0.25-0.25-0.51l-1.01-3.09h-5.73l-0.99,3.11c-0.09,0.26-0.17,0.43-0.25,0.5c-0.08,0.07-0.26,0.11-0.54,0.11h-1.44
		c-0.32,0-0.48-0.13-0.48-0.39c0-0.04,0.01-0.12,0.04-0.24l4.93-14.56c0.06-0.18,0.14-0.29,0.24-0.33c0.1-0.04,0.26-0.07,0.46-0.07
		h1.97c0.2,0,0.36,0.02,0.46,0.07c0.1,0.04,0.18,0.15,0.24,0.33L58.43,76.72z M49.65,71.36h4.27l-2.15-6.65L49.65,71.36z"/>
		<path d="M62.94,76.72c0,0.26-0.05,0.43-0.14,0.51c-0.1,0.08-0.28,0.12-0.56,0.12h-1.27c-0.28,0-0.46-0.04-0.56-0.12
		c-0.1-0.08-0.14-0.25-0.14-0.51V62.41c0-0.26,0.05-0.43,0.14-0.51c0.09-0.08,0.28-0.12,0.56-0.12h1.27c0.28,0,0.46,0.04,0.56,0.12
		c0.09,0.08,0.14,0.25,0.14,0.51V76.72z"/>
		<path d="M69.42,64.14h-3.83c-0.26,0-0.43-0.05-0.51-0.14c-0.08-0.09-0.12-0.28-0.12-0.56v-0.96c0-0.28,0.04-0.46,0.12-0.56
		s0.25-0.14,0.51-0.14h10.33c0.26,0,0.43,0.05,0.51,0.14s0.12,0.28,0.12,0.56v0.96c0,0.28-0.04,0.46-0.12,0.56
		c-0.08,0.1-0.25,0.14-0.51,0.14h-3.83v12.59c0,0.26-0.05,0.43-0.14,0.51c-0.1,0.08-0.28,0.12-0.56,0.12h-1.27
		c-0.28,0-0.46-0.04-0.56-0.12c-0.09-0.08-0.14-0.25-0.14-0.51V64.14z"/>
		<path d="M81.24,76.72c0,0.26-0.05,0.43-0.14,0.51c-0.1,0.08-0.28,0.12-0.56,0.12h-1.27c-0.28,0-0.46-0.04-0.56-0.12
		c-0.1-0.08-0.14-0.25-0.14-0.51V62.41c0-0.26,0.05-0.43,0.14-0.51c0.09-0.08,0.28-0.12,0.56-0.12h1.27c0.28,0,0.46,0.04,0.56,0.12
		c0.09,0.08,0.14,0.25,0.14,0.51V76.72z"/>
		<path d="M86.99,66.83v9.89c0,0.26-0.05,0.43-0.14,0.51s-0.28,0.12-0.56,0.12h-1.2c-0.28,0-0.46-0.04-0.56-0.12
		c-0.1-0.08-0.14-0.25-0.14-0.51V62.41c0-0.26,0.05-0.43,0.14-0.51c0.09-0.08,0.28-0.12,0.56-0.12h1.27c0.28,0,0.48,0.03,0.6,0.1
		s0.26,0.24,0.41,0.51l5.23,9.92v-9.89c0-0.26,0.05-0.43,0.14-0.51c0.09-0.08,0.28-0.12,0.56-0.12h1.2c0.28,0,0.46,0.04,0.56,0.12
		c0.09,0.08,0.14,0.25,0.14,0.51v14.32c0,0.26-0.05,0.43-0.14,0.51c-0.1,0.08-0.28,0.12-0.56,0.12h-1.27c-0.28,0-0.48-0.03-0.6-0.1
		c-0.12-0.07-0.26-0.24-0.41-0.51L86.99,66.83z"/>
		<path d="M97.96,68.08c0-1.5,0.17-2.66,0.5-3.46c0.42-1.05,1.11-1.85,2.05-2.39c0.94-0.54,2.07-0.81,3.38-0.81
		c0.74,0,1.45,0.09,2.11,0.27s1.24,0.46,1.74,0.84s0.89,0.86,1.18,1.46c0.29,0.59,0.44,1.3,0.44,2.11c0,0.2-0.05,0.34-0.15,0.42
		c-0.1,0.07-0.28,0.11-0.55,0.11h-1.36c-0.26,0-0.44-0.04-0.54-0.11c-0.1-0.07-0.15-0.22-0.16-0.44c-0.06-0.83-0.32-1.43-0.79-1.79
		c-0.47-0.36-1.17-0.55-2.1-0.55c-0.54,0-1,0.06-1.38,0.19c-0.38,0.12-0.69,0.34-0.93,0.65c-0.24,0.31-0.42,0.72-0.54,1.23
		s-0.17,1.15-0.17,1.93v3.68c0,1.47,0.24,2.51,0.73,3.11c0.49,0.6,1.25,0.9,2.29,0.9c0.96,0,1.69-0.25,2.19-0.74
		s0.74-1.34,0.74-2.54v-0.42h-1.69c-0.26,0-0.43-0.05-0.51-0.14c-0.08-0.09-0.12-0.28-0.12-0.56v-0.96c0-0.28,0.04-0.46,0.12-0.56
		s0.25-0.14,0.51-0.14h3.7c0.28,0,0.46,0.04,0.56,0.12c0.09,0.08,0.14,0.25,0.14,0.51v2.47c0,0.71-0.11,1.39-0.34,2.02
		c-0.23,0.63-0.57,1.19-1.04,1.67c-0.47,0.48-1.06,0.86-1.77,1.14c-0.72,0.28-1.55,0.42-2.52,0.42c-1.42,0-2.54-0.26-3.36-0.78
		c-0.82-0.52-1.45-1.25-1.87-2.2c-0.19-0.42-0.32-0.89-0.39-1.41c-0.07-0.52-0.11-1.2-0.11-2.05V68.08z"/>
		<path d="M119.13,71.58v5.14c0,0.26-0.05,0.43-0.14,0.51c-0.1,0.08-0.28,0.12-0.56,0.12h-1.23c-0.28,0-0.46-0.04-0.56-0.12
		c-0.1-0.08-0.14-0.25-0.14-0.51V62.41c0-0.26,0.05-0.43,0.14-0.51c0.09-0.08,0.28-0.12,0.56-0.12h4.36c0.86,0,1.62,0.08,2.28,0.25
		s1.2,0.44,1.64,0.82c0.44,0.38,0.77,0.87,0.99,1.47c0.22,0.6,0.33,1.34,0.33,2.21v0.44c0,1.59-0.44,2.76-1.32,3.5
		c-0.88,0.74-2.19,1.12-3.91,1.12H119.13z M119.13,69.3h2.43c0.55,0,1-0.06,1.32-0.19s0.58-0.3,0.76-0.51
		c0.17-0.22,0.29-0.47,0.35-0.77c0.06-0.29,0.09-0.6,0.09-0.92v-0.31c0-0.36-0.03-0.7-0.09-1.01c-0.06-0.31-0.18-0.58-0.35-0.81
		c-0.18-0.23-0.43-0.42-0.76-0.55c-0.33-0.13-0.77-0.2-1.32-0.2h-2.43V69.3z"/>
		<path d="M139.84,71.93c0,1.91-0.46,3.35-1.38,4.32c-0.92,0.97-2.26,1.46-4.03,1.46h-0.18c-1.77,0-3.11-0.49-4.03-1.46
		c-0.92-0.97-1.38-2.41-1.38-4.32v-9.52c0-0.25,0.04-0.42,0.13-0.5c0.09-0.09,0.28-0.13,0.57-0.13h1.27c0.29,0,0.48,0.04,0.57,0.13
		c0.09,0.09,0.13,0.25,0.13,0.5v9.5c0,2.25,0.9,3.37,2.69,3.37h0.26c1.8,0,2.69-1.12,2.69-3.37v-9.5c0-0.25,0.04-0.42,0.13-0.5
		c0.09-0.09,0.28-0.13,0.57-0.13h1.27c0.29,0,0.48,0.04,0.57,0.13c0.09,0.09,0.13,0.25,0.13,0.5V71.93z"/>
		<path d="M143.54,77.36c-0.28,0-0.46-0.04-0.56-0.12c-0.1-0.08-0.14-0.25-0.14-0.51V62.41c0-0.26,0.05-0.43,0.14-0.51
		c0.09-0.08,0.28-0.12,0.56-0.12h5.04c1.56,0,2.74,0.33,3.55,1s1.2,1.65,1.2,2.94V66c0,0.8-0.2,1.49-0.6,2.06
		c-0.4,0.57-0.91,0.93-1.52,1.09c0.69,0.18,1.25,0.57,1.69,1.19c0.44,0.62,0.66,1.36,0.66,2.22v0.35c0,1.62-0.46,2.77-1.39,3.44
		s-2.27,1.01-4.02,1.01H143.54z M145.46,68.1h2.93c0.74,0,1.29-0.15,1.65-0.44s0.54-0.77,0.54-1.42v-0.28
		c0-0.66-0.19-1.14-0.57-1.45c-0.38-0.31-0.98-0.46-1.79-0.46h-2.76V68.1z M145.46,75.08h2.76c0.8,0,1.43-0.17,1.87-0.5
		c0.45-0.33,0.67-0.9,0.67-1.69v-0.44c0-0.67-0.19-1.2-0.57-1.59c-0.38-0.39-0.93-0.58-1.64-0.58h-3.09V75.08z"/>
		<path d="M165.29,76.66c0,0.28-0.04,0.46-0.12,0.56c-0.08,0.1-0.25,0.14-0.51,0.14h-7.79c-0.28,0-0.46-0.04-0.56-0.12
		c-0.1-0.08-0.14-0.25-0.14-0.51V62.41c0-0.26,0.05-0.43,0.14-0.51c0.09-0.08,0.28-0.12,0.56-0.12h1.27c0.28,0,0.46,0.04,0.56,0.12
		s0.14,0.25,0.14,0.51V75h5.82c0.26,0,0.43,0.05,0.51,0.14s0.12,0.28,0.12,0.56V76.66z"/>
		<path d="M170.09,76.72c0,0.26-0.05,0.43-0.14,0.51s-0.28,0.12-0.56,0.12h-1.27c-0.28,0-0.46-0.04-0.56-0.12
		c-0.1-0.08-0.14-0.25-0.14-0.51V62.41c0-0.26,0.05-0.43,0.14-0.51c0.09-0.08,0.28-0.12,0.56-0.12h1.27c0.28,0,0.46,0.04,0.56,0.12
		s0.14,0.25,0.14,0.51V76.72z"/>
		<path d="M181.23,72.76c0.01-0.22,0.07-0.37,0.16-0.44c0.09-0.07,0.27-0.11,0.54-0.11h1.31c0.28,0,0.46,0.04,0.56,0.12
		s0.14,0.24,0.14,0.47c0,0.79-0.1,1.44-0.29,1.96s-0.5,1-0.94,1.46c-0.96,0.99-2.42,1.49-4.38,1.49c-1.2,0-2.22-0.25-3.06-0.76
		c-0.85-0.5-1.49-1.24-1.93-2.22c-0.19-0.42-0.32-0.89-0.39-1.4s-0.11-1.2-0.11-2.06v-3.2c0-0.79,0.04-1.45,0.12-1.97
		c0.08-0.53,0.21-1.02,0.38-1.49c0.39-1.04,1.04-1.83,1.94-2.38c0.9-0.55,2.01-0.82,3.34-0.82c1.87,0,3.25,0.49,4.16,1.47
		c0.42,0.45,0.72,0.94,0.9,1.47c0.17,0.53,0.26,1.16,0.26,1.9c0,0.23-0.05,0.39-0.14,0.47c-0.09,0.08-0.28,0.12-0.56,0.12h-1.36
		c-0.26,0-0.44-0.04-0.54-0.11c-0.1-0.07-0.15-0.22-0.17-0.44c-0.03-0.92-0.25-1.58-0.66-1.97c-0.41-0.39-1.09-0.59-2.04-0.59
		c-1.07,0-1.82,0.3-2.25,0.91c-0.44,0.61-0.66,1.63-0.66,3.08v3.68c0,1.4,0.22,2.41,0.67,3.03c0.44,0.62,1.19,0.93,2.22,0.93
		c0.92,0,1.6-0.21,2.05-0.63C180.96,74.31,181.2,73.65,181.23,72.76z"/>
		<path d="M198.28,76.72c0.03,0.12,0.04,0.2,0.04,0.24c0,0.26-0.16,0.39-0.48,0.39h-1.53c-0.28,0-0.46-0.04-0.54-0.12
		s-0.16-0.25-0.25-0.51l-1.01-3.09h-5.73l-0.99,3.11c-0.09,0.26-0.17,0.43-0.25,0.5s-0.26,0.11-0.54,0.11h-1.44
		c-0.32,0-0.48-0.13-0.48-0.39c0-0.04,0.01-0.12,0.04-0.24l4.93-14.56c0.06-0.18,0.14-0.29,0.24-0.33c0.1-0.04,0.26-0.07,0.46-0.07
		h1.97c0.2,0,0.36,0.02,0.46,0.07c0.1,0.04,0.18,0.15,0.24,0.33L198.28,76.72z M189.5,71.36h4.27l-2.14-6.65L189.5,71.36z"/>
</g>
	<g class="st1">
	<path d="M201.91,64.14h-3.83c-0.26,0-0.43-0.05-0.51-0.14c-0.08-0.09-0.12-0.28-0.12-0.56v-0.96c0-0.28,0.04-0.46,0.12-0.56
		s0.25-0.14,0.51-0.14h10.33c0.26,0,0.43,0.05,0.51,0.14s0.12,0.28,0.12,0.56v0.96c0,0.28-0.04,0.46-0.12,0.56
		c-0.08,0.1-0.25,0.14-0.51,0.14h-3.83v12.59c0,0.26-0.05,0.43-0.14,0.51s-0.28,0.12-0.56,0.12h-1.27c-0.28,0-0.46-0.04-0.56-0.12
		s-0.14-0.25-0.14-0.51V64.14z"/>
		<path d="M213.73,76.72c0,0.26-0.05,0.43-0.14,0.51c-0.1,0.08-0.28,0.12-0.56,0.12h-1.27c-0.28,0-0.46-0.04-0.56-0.12
		s-0.14-0.25-0.14-0.51V62.41c0-0.26,0.05-0.43,0.14-0.51s0.28-0.12,0.56-0.12h1.27c0.28,0,0.46,0.04,0.56,0.12
		c0.09,0.08,0.14,0.25,0.14,0.51V76.72z"/>
		<path d="M222.23,61.42c1.3,0,2.39,0.25,3.27,0.75c0.88,0.5,1.54,1.24,1.96,2.22c0.19,0.42,0.32,0.9,0.39,1.42s0.11,1.2,0.11,2.04
		v3.2c0,0.76-0.04,1.41-0.12,1.96c-0.08,0.55-0.21,1.05-0.38,1.5c-0.42,1.05-1.08,1.85-1.96,2.39c-0.88,0.54-1.97,0.81-3.27,0.81
		c-1.3,0-2.39-0.25-3.27-0.76c-0.88-0.5-1.54-1.24-1.96-2.22c-0.19-0.42-0.32-0.9-0.39-1.42c-0.07-0.53-0.11-1.2-0.11-2.04v-3.2
		c0-0.76,0.04-1.41,0.12-1.96c0.08-0.55,0.21-1.05,0.38-1.5c0.42-1.05,1.08-1.85,1.96-2.39S220.93,61.42,222.23,61.42z
		 M222.23,63.77c-1.08,0-1.85,0.31-2.31,0.92c-0.46,0.61-0.69,1.63-0.69,3.04v3.68c0,1.42,0.23,2.43,0.69,3.04
		c0.46,0.61,1.23,0.92,2.31,0.92c1.08,0,1.85-0.31,2.31-0.92c0.46-0.61,0.69-1.63,0.69-3.04v-3.68c0-1.42-0.23-2.43-0.69-3.04
		C224.08,64.07,223.31,63.77,222.23,63.77z"/>
		<path d="M233.33,66.83v9.89c0,0.26-0.05,0.43-0.14,0.51s-0.28,0.12-0.56,0.12h-1.2c-0.28,0-0.46-0.04-0.56-0.12
		c-0.1-0.08-0.14-0.25-0.14-0.51V62.41c0-0.26,0.05-0.43,0.14-0.51c0.09-0.08,0.28-0.12,0.56-0.12h1.27c0.28,0,0.48,0.03,0.6,0.1
		s0.26,0.24,0.41,0.51l5.23,9.92v-9.89c0-0.26,0.05-0.43,0.14-0.51c0.09-0.08,0.28-0.12,0.56-0.12h1.2c0.28,0,0.46,0.04,0.56,0.12
		c0.09,0.08,0.14,0.25,0.14,0.51v14.32c0,0.26-0.05,0.43-0.14,0.51c-0.1,0.08-0.28,0.12-0.56,0.12h-1.27c-0.28,0-0.48-0.03-0.6-0.1
		c-0.12-0.07-0.26-0.24-0.41-0.51L233.33,66.83z"/>
</g>
</svg>
